<?xml version="1.0" standalone="no"?>
 <!DOCTYPE svg PUBLIC "-//W3C//DTD SVG 1.1//EN" 
 "http://www.w3.org/Graphics/SVG/1.1/DTD/svg11.dtd"> 
<svg
  xmlns:svg="http://www.w3.org/2000/svg"
  xmlns="http://www.w3.org/2000/svg"
  xmlns:xlink="http://www.w3.org/1999/xlink"
  xmlns:inkscape="http://www.inkscape.org/namespaces/inkscape"
  version="1.1"
  width="91.9988mm" height="117.9830mm" viewBox="0.0000 0.0000 91.9988 117.9830">
<title>SVG Image created as pcb_back.svg date 2026-06-21T01:21:32 </title>
  <desc>Image generated by PCBNEW </desc>
<g style="fill:#000000; fill-opacity:1.0000;stroke:#000000; stroke-opacity:1.0000;
stroke-linecap:round; stroke-linejoin:round;"
 transform="translate(0 0) scale(1 1)">
</g>
<g style="fill:none; 
stroke:#C872AB; stroke-width:0.1500; stroke-opacity:1; 
stroke-linecap:round; stroke-linejoin:round;">
<path d="M-102.0000 40.0000
L6.0000 40.0000
L6.0000 72.0000
L-102.0000 72.0000
L-102.0000 40.0000
" />
<path d="M-64.0000 -24.0000
L8.0000 -24.0000
L8.0000 74.0000
L-64.0000 74.0000
L-64.0000 -24.0000
" />
<path d="M-62.0000 -22.0000
L6.0000 -22.0000
L6.0000 72.0000
L-62.0000 72.0000
L-62.0000 -22.0000
" />
<path d="M-14.0000 -22.0000
L-14.0000 -24.0000
" />
<text x="-39.0000" y="-22.3500"
textLength="1.4281" font-size="1.7333" lengthAdjust="spacingAndGlyphs"
text-anchor="start" opacity="0" stroke-opacity="0">1</text>
<g class="stroked-text"><desc>1</desc>
<path d="M-37.9108 -22.4064
L-38.6537 -22.4064
" />
<path d="M-38.2823 -22.4064
L-38.2823 -23.7064
" />
<path d="M-38.2823 -23.7064
L-38.4061 -23.5207
" />
<path d="M-38.4061 -23.5207
L-38.5299 -23.3969
" />
<path d="M-38.5299 -23.3969
L-38.6537 -23.3350
" />
</g><path d="M-14.0000 72.0000
L-14.0000 74.0000
" />
<text x="-39.0000" y="73.6500"
textLength="1.4281" font-size="1.7333" lengthAdjust="spacingAndGlyphs"
text-anchor="start" opacity="0" stroke-opacity="0">1</text>
<g class="stroked-text"><desc>1</desc>
<path d="M-37.9108 73.5936
L-38.6537 73.5936
" />
<path d="M-38.2823 73.5936
L-38.2823 72.2936
" />
<path d="M-38.2823 72.2936
L-38.4061 72.4793
" />
<path d="M-38.4061 72.4793
L-38.5299 72.6031
" />
<path d="M-38.5299 72.6031
L-38.6537 72.6650
" />
</g><path d="M-64.0000 26.0000
L-62.0000 26.0000
" />
<text x="-63.0000" y="1.6500"
textLength="1.3043" font-size="1.7333" lengthAdjust="spacingAndGlyphs"
text-anchor="middle" opacity="0" stroke-opacity="0">A</text>
<g class="stroked-text"><desc>A</desc>
<path d="M-63.3095 1.2222
L-62.6905 1.2222
" />
<path d="M-63.4333 1.5936
L-63.0000 0.2936
" />
<path d="M-63.0000 0.2936
L-62.5667 1.5936
" />
</g><text x="-63.0000" y="51.6500"
textLength="1.4900" font-size="1.7333" lengthAdjust="spacingAndGlyphs"
text-anchor="middle" opacity="0" stroke-opacity="0">B</text>
<g class="stroked-text"><desc>B</desc>
<path d="M-62.9071 50.9127
L-62.7214 50.9746
" />
<path d="M-62.7214 50.9746
L-62.6595 51.0365
" />
<path d="M-62.6595 51.0365
L-62.5976 51.1603
" />
<path d="M-62.5976 51.1603
L-62.5976 51.3460
" />
<path d="M-62.5976 51.3460
L-62.6595 51.4698
" />
<path d="M-62.6595 51.4698
L-62.7214 51.5317
" />
<path d="M-62.7214 51.5317
L-62.8452 51.5936
" />
<path d="M-62.8452 51.5936
L-63.3405 51.5936
" />
<path d="M-63.3405 51.5936
L-63.3405 50.2936
" />
<path d="M-63.3405 50.2936
L-62.9071 50.2936
" />
<path d="M-62.9071 50.2936
L-62.7833 50.3555
" />
<path d="M-62.7833 50.3555
L-62.7214 50.4174
" />
<path d="M-62.7214 50.4174
L-62.6595 50.5412
" />
<path d="M-62.6595 50.5412
L-62.6595 50.6650
" />
<path d="M-62.6595 50.6650
L-62.7214 50.7888
" />
<path d="M-62.7214 50.7888
L-62.7833 50.8507
" />
<path d="M-62.7833 50.8507
L-62.9071 50.9127
" />
<path d="M-62.9071 50.9127
L-63.3405 50.9127
" />
</g><path d="M8.0000 26.0000
L6.0000 26.0000
" />
<text x="7.0000" y="1.6500"
textLength="1.3043" font-size="1.7333" lengthAdjust="spacingAndGlyphs"
text-anchor="middle" opacity="0" stroke-opacity="0">A</text>
<g class="stroked-text"><desc>A</desc>
<path d="M6.6905 1.2222
L7.3095 1.2222
" />
<path d="M6.5667 1.5936
L7.0000 0.2936
" />
<path d="M7.0000 0.2936
L7.4333 1.5936
" />
</g><text x="7.0000" y="51.6500"
textLength="1.4900" font-size="1.7333" lengthAdjust="spacingAndGlyphs"
text-anchor="middle" opacity="0" stroke-opacity="0">B</text>
<g class="stroked-text"><desc>B</desc>
<path d="M7.0929 50.9127
L7.2786 50.9746
" />
<path d="M7.2786 50.9746
L7.3405 51.0365
" />
<path d="M7.3405 51.0365
L7.4024 51.1603
" />
<path d="M7.4024 51.1603
L7.4024 51.3460
" />
<path d="M7.4024 51.3460
L7.3405 51.4698
" />
<path d="M7.3405 51.4698
L7.2786 51.5317
" />
<path d="M7.2786 51.5317
L7.1548 51.5936
" />
<path d="M7.1548 51.5936
L6.6595 51.5936
" />
<path d="M6.6595 51.5936
L6.6595 50.2936
" />
<path d="M6.6595 50.2936
L7.0929 50.2936
" />
<path d="M7.0929 50.2936
L7.2167 50.3555
" />
<path d="M7.2167 50.3555
L7.2786 50.4174
" />
<path d="M7.2786 50.4174
L7.3405 50.5412
" />
<path d="M7.3405 50.5412
L7.3405 50.6650
" />
<path d="M7.3405 50.6650
L7.2786 50.7888
" />
<path d="M7.2786 50.7888
L7.2167 50.8507
" />
<path d="M7.2167 50.8507
L7.0929 50.9127
" />
<path d="M7.0929 50.9127
L6.6595 50.9127
" />
</g><text x="-79.0000" y="67.8500"
textLength="7.0071" font-size="2.0000" lengthAdjust="spacingAndGlyphs"
text-anchor="start" opacity="0" stroke-opacity="0">Date: </text>
<g class="stroked-text"><desc>Date: </desc>
<path d="M-78.5442 67.7861
L-78.5442 66.2861
" />
<path d="M-78.5442 66.2861
L-78.1870 66.2861
" />
<path d="M-78.1870 66.2861
L-77.9727 66.3576
" />
<path d="M-77.9727 66.3576
L-77.8299 66.5004
" />
<path d="M-77.8299 66.5004
L-77.7585 66.6433
" />
<path d="M-77.7585 66.6433
L-77.6870 66.9290
" />
<path d="M-77.6870 66.9290
L-77.6870 67.1433
" />
<path d="M-77.6870 67.1433
L-77.7585 67.4290
" />
<path d="M-77.7585 67.4290
L-77.8299 67.5718
" />
<path d="M-77.8299 67.5718
L-77.9727 67.7147
" />
<path d="M-77.9727 67.7147
L-78.1870 67.7861
" />
<path d="M-78.1870 67.7861
L-78.5442 67.7861
" />
<path d="M-76.4013 67.7861
L-76.4013 67.0004
" />
<path d="M-76.4013 67.0004
L-76.4727 66.8576
" />
<path d="M-76.4727 66.8576
L-76.6156 66.7861
" />
<path d="M-76.6156 66.7861
L-76.9013 66.7861
" />
<path d="M-76.9013 66.7861
L-77.0442 66.8576
" />
<path d="M-76.4013 67.7147
L-76.5442 67.7861
" />
<path d="M-76.5442 67.7861
L-76.9013 67.7861
" />
<path d="M-76.9013 67.7861
L-77.0442 67.7147
" />
<path d="M-77.0442 67.7147
L-77.1156 67.5718
" />
<path d="M-77.1156 67.5718
L-77.1156 67.4290
" />
<path d="M-77.1156 67.4290
L-77.0442 67.2861
" />
<path d="M-77.0442 67.2861
L-76.9013 67.2147
" />
<path d="M-76.9013 67.2147
L-76.5442 67.2147
" />
<path d="M-76.5442 67.2147
L-76.4013 67.1433
" />
<path d="M-75.9013 66.7861
L-75.3299 66.7861
" />
<path d="M-75.6870 66.2861
L-75.6870 67.5718
" />
<path d="M-75.6870 67.5718
L-75.6156 67.7147
" />
<path d="M-75.6156 67.7147
L-75.4727 67.7861
" />
<path d="M-75.4727 67.7861
L-75.3299 67.7861
" />
<path d="M-74.2585 67.7147
L-74.4013 67.7861
" />
<path d="M-74.4013 67.7861
L-74.6870 67.7861
" />
<path d="M-74.6870 67.7861
L-74.8299 67.7147
" />
<path d="M-74.8299 67.7147
L-74.9013 67.5718
" />
<path d="M-74.9013 67.5718
L-74.9013 67.0004
" />
<path d="M-74.9013 67.0004
L-74.8299 66.8576
" />
<path d="M-74.8299 66.8576
L-74.6870 66.7861
" />
<path d="M-74.6870 66.7861
L-74.4013 66.7861
" />
<path d="M-74.4013 66.7861
L-74.2585 66.8576
" />
<path d="M-74.2585 66.8576
L-74.1870 67.0004
" />
<path d="M-74.1870 67.0004
L-74.1870 67.1433
" />
<path d="M-74.1870 67.1433
L-74.9013 67.2861
" />
<path d="M-73.5442 67.6433
L-73.4727 67.7147
" />
<path d="M-73.4727 67.7147
L-73.5442 67.7861
" />
<path d="M-73.5442 67.7861
L-73.6156 67.7147
" />
<path d="M-73.6156 67.7147
L-73.5442 67.6433
" />
<path d="M-73.5442 67.6433
L-73.5442 67.7861
" />
<path d="M-73.5442 66.8576
L-73.4727 66.9290
" />
<path d="M-73.4727 66.9290
L-73.5442 67.0004
" />
<path d="M-73.5442 67.0004
L-73.6156 66.9290
" />
<path d="M-73.6156 66.9290
L-73.5442 66.8576
" />
<path d="M-73.5442 66.8576
L-73.5442 67.0004
" />
</g><path d="M-102.0000 68.5000
L6.0000 68.5000
" />
<text x="-101.0000" y="70.6500"
textLength="22.2929" font-size="2.0000" lengthAdjust="spacingAndGlyphs"
text-anchor="start" opacity="0" stroke-opacity="0">KiCad E.D.A. 10.0.4</text>
<g class="stroked-text"><desc>KiCad E.D.A. 10.0.4</desc>
<path d="M-100.5442 70.5861
L-100.5442 69.0861
" />
<path d="M-99.6870 70.5861
L-100.3299 69.7290
" />
<path d="M-99.6870 69.0861
L-100.5442 69.9433
" />
<path d="M-99.0442 70.5861
L-99.0442 69.5861
" />
<path d="M-99.0442 69.0861
L-99.1156 69.1576
" />
<path d="M-99.1156 69.1576
L-99.0442 69.2290
" />
<path d="M-99.0442 69.2290
L-98.9727 69.1576
" />
<path d="M-98.9727 69.1576
L-99.0442 69.0861
" />
<path d="M-99.0442 69.0861
L-99.0442 69.2290
" />
<path d="M-97.4727 70.4433
L-97.5442 70.5147
" />
<path d="M-97.5442 70.5147
L-97.7585 70.5861
" />
<path d="M-97.7585 70.5861
L-97.9013 70.5861
" />
<path d="M-97.9013 70.5861
L-98.1156 70.5147
" />
<path d="M-98.1156 70.5147
L-98.2585 70.3718
" />
<path d="M-98.2585 70.3718
L-98.3299 70.2290
" />
<path d="M-98.3299 70.2290
L-98.4013 69.9433
" />
<path d="M-98.4013 69.9433
L-98.4013 69.7290
" />
<path d="M-98.4013 69.7290
L-98.3299 69.4433
" />
<path d="M-98.3299 69.4433
L-98.2585 69.3004
" />
<path d="M-98.2585 69.3004
L-98.1156 69.1576
" />
<path d="M-98.1156 69.1576
L-97.9013 69.0861
" />
<path d="M-97.9013 69.0861
L-97.7585 69.0861
" />
<path d="M-97.7585 69.0861
L-97.5442 69.1576
" />
<path d="M-97.5442 69.1576
L-97.4727 69.2290
" />
<path d="M-96.1870 70.5861
L-96.1870 69.8004
" />
<path d="M-96.1870 69.8004
L-96.2585 69.6576
" />
<path d="M-96.2585 69.6576
L-96.4013 69.5861
" />
<path d="M-96.4013 69.5861
L-96.6870 69.5861
" />
<path d="M-96.6870 69.5861
L-96.8299 69.6576
" />
<path d="M-96.1870 70.5147
L-96.3299 70.5861
" />
<path d="M-96.3299 70.5861
L-96.6870 70.5861
" />
<path d="M-96.6870 70.5861
L-96.8299 70.5147
" />
<path d="M-96.8299 70.5147
L-96.9013 70.3718
" />
<path d="M-96.9013 70.3718
L-96.9013 70.2290
" />
<path d="M-96.9013 70.2290
L-96.8299 70.0861
" />
<path d="M-96.8299 70.0861
L-96.6870 70.0147
" />
<path d="M-96.6870 70.0147
L-96.3299 70.0147
" />
<path d="M-96.3299 70.0147
L-96.1870 69.9433
" />
<path d="M-94.8299 70.5861
L-94.8299 69.0861
" />
<path d="M-94.8299 70.5147
L-94.9727 70.5861
" />
<path d="M-94.9727 70.5861
L-95.2585 70.5861
" />
<path d="M-95.2585 70.5861
L-95.4013 70.5147
" />
<path d="M-95.4013 70.5147
L-95.4727 70.4433
" />
<path d="M-95.4727 70.4433
L-95.5442 70.3004
" />
<path d="M-95.5442 70.3004
L-95.5442 69.8718
" />
<path d="M-95.5442 69.8718
L-95.4727 69.7290
" />
<path d="M-95.4727 69.7290
L-95.4013 69.6576
" />
<path d="M-95.4013 69.6576
L-95.2585 69.5861
" />
<path d="M-95.2585 69.5861
L-94.9727 69.5861
" />
<path d="M-94.9727 69.5861
L-94.8299 69.6576
" />
<path d="M-92.9727 69.8004
L-92.4727 69.8004
" />
<path d="M-92.2585 70.5861
L-92.9727 70.5861
" />
<path d="M-92.9727 70.5861
L-92.9727 69.0861
" />
<path d="M-92.9727 69.0861
L-92.2585 69.0861
" />
<path d="M-91.6156 70.4433
L-91.5442 70.5147
" />
<path d="M-91.5442 70.5147
L-91.6156 70.5861
" />
<path d="M-91.6156 70.5861
L-91.6870 70.5147
" />
<path d="M-91.6870 70.5147
L-91.6156 70.4433
" />
<path d="M-91.6156 70.4433
L-91.6156 70.5861
" />
<path d="M-90.9013 70.5861
L-90.9013 69.0861
" />
<path d="M-90.9013 69.0861
L-90.5442 69.0861
" />
<path d="M-90.5442 69.0861
L-90.3299 69.1576
" />
<path d="M-90.3299 69.1576
L-90.1870 69.3004
" />
<path d="M-90.1870 69.3004
L-90.1156 69.4433
" />
<path d="M-90.1156 69.4433
L-90.0442 69.7290
" />
<path d="M-90.0442 69.7290
L-90.0442 69.9433
" />
<path d="M-90.0442 69.9433
L-90.1156 70.2290
" />
<path d="M-90.1156 70.2290
L-90.1870 70.3718
" />
<path d="M-90.1870 70.3718
L-90.3299 70.5147
" />
<path d="M-90.3299 70.5147
L-90.5442 70.5861
" />
<path d="M-90.5442 70.5861
L-90.9013 70.5861
" />
<path d="M-89.4013 70.4433
L-89.3299 70.5147
" />
<path d="M-89.3299 70.5147
L-89.4013 70.5861
" />
<path d="M-89.4013 70.5861
L-89.4727 70.5147
" />
<path d="M-89.4727 70.5147
L-89.4013 70.4433
" />
<path d="M-89.4013 70.4433
L-89.4013 70.5861
" />
<path d="M-88.7585 70.1576
L-88.0442 70.1576
" />
<path d="M-88.9013 70.5861
L-88.4013 69.0861
" />
<path d="M-88.4013 69.0861
L-87.9013 70.5861
" />
<path d="M-87.4013 70.4433
L-87.3299 70.5147
" />
<path d="M-87.3299 70.5147
L-87.4013 70.5861
" />
<path d="M-87.4013 70.5861
L-87.4727 70.5147
" />
<path d="M-87.4727 70.5147
L-87.4013 70.4433
" />
<path d="M-87.4013 70.4433
L-87.4013 70.5861
" />
<path d="M-84.7585 70.5861
L-85.6156 70.5861
" />
<path d="M-85.1870 70.5861
L-85.1870 69.0861
" />
<path d="M-85.1870 69.0861
L-85.3299 69.3004
" />
<path d="M-85.3299 69.3004
L-85.4727 69.4433
" />
<path d="M-85.4727 69.4433
L-85.6156 69.5147
" />
<path d="M-83.8299 69.0861
L-83.6870 69.0861
" />
<path d="M-83.6870 69.0861
L-83.5442 69.1576
" />
<path d="M-83.5442 69.1576
L-83.4727 69.2290
" />
<path d="M-83.4727 69.2290
L-83.4013 69.3718
" />
<path d="M-83.4013 69.3718
L-83.3299 69.6576
" />
<path d="M-83.3299 69.6576
L-83.3299 70.0147
" />
<path d="M-83.3299 70.0147
L-83.4013 70.3004
" />
<path d="M-83.4013 70.3004
L-83.4727 70.4433
" />
<path d="M-83.4727 70.4433
L-83.5442 70.5147
" />
<path d="M-83.5442 70.5147
L-83.6870 70.5861
" />
<path d="M-83.6870 70.5861
L-83.8299 70.5861
" />
<path d="M-83.8299 70.5861
L-83.9727 70.5147
" />
<path d="M-83.9727 70.5147
L-84.0442 70.4433
" />
<path d="M-84.0442 70.4433
L-84.1156 70.3004
" />
<path d="M-84.1156 70.3004
L-84.1870 70.0147
" />
<path d="M-84.1870 70.0147
L-84.1870 69.6576
" />
<path d="M-84.1870 69.6576
L-84.1156 69.3718
" />
<path d="M-84.1156 69.3718
L-84.0442 69.2290
" />
<path d="M-84.0442 69.2290
L-83.9727 69.1576
" />
<path d="M-83.9727 69.1576
L-83.8299 69.0861
" />
<path d="M-82.6870 70.4433
L-82.6156 70.5147
" />
<path d="M-82.6156 70.5147
L-82.6870 70.5861
" />
<path d="M-82.6870 70.5861
L-82.7585 70.5147
" />
<path d="M-82.7585 70.5147
L-82.6870 70.4433
" />
<path d="M-82.6870 70.4433
L-82.6870 70.5861
" />
<path d="M-81.6870 69.0861
L-81.5442 69.0861
" />
<path d="M-81.5442 69.0861
L-81.4013 69.1576
" />
<path d="M-81.4013 69.1576
L-81.3299 69.2290
" />
<path d="M-81.3299 69.2290
L-81.2585 69.3718
" />
<path d="M-81.2585 69.3718
L-81.1870 69.6576
" />
<path d="M-81.1870 69.6576
L-81.1870 70.0147
" />
<path d="M-81.1870 70.0147
L-81.2585 70.3004
" />
<path d="M-81.2585 70.3004
L-81.3299 70.4433
" />
<path d="M-81.3299 70.4433
L-81.4013 70.5147
" />
<path d="M-81.4013 70.5147
L-81.5442 70.5861
" />
<path d="M-81.5442 70.5861
L-81.6870 70.5861
" />
<path d="M-81.6870 70.5861
L-81.8299 70.5147
" />
<path d="M-81.8299 70.5147
L-81.9013 70.4433
" />
<path d="M-81.9013 70.4433
L-81.9727 70.3004
" />
<path d="M-81.9727 70.3004
L-82.0442 70.0147
" />
<path d="M-82.0442 70.0147
L-82.0442 69.6576
" />
<path d="M-82.0442 69.6576
L-81.9727 69.3718
" />
<path d="M-81.9727 69.3718
L-81.9013 69.2290
" />
<path d="M-81.9013 69.2290
L-81.8299 69.1576
" />
<path d="M-81.8299 69.1576
L-81.6870 69.0861
" />
<path d="M-80.5442 70.4433
L-80.4727 70.5147
" />
<path d="M-80.4727 70.5147
L-80.5442 70.5861
" />
<path d="M-80.5442 70.5861
L-80.6156 70.5147
" />
<path d="M-80.6156 70.5147
L-80.5442 70.4433
" />
<path d="M-80.5442 70.4433
L-80.5442 70.5861
" />
<path d="M-79.1870 69.5861
L-79.1870 70.5861
" />
<path d="M-79.5442 69.0147
L-79.9013 70.0861
" />
<path d="M-79.9013 70.0861
L-78.9727 70.0861
" />
</g><path d="M-102.0000 65.5000
L6.0000 65.5000
" />
</g>
<g style="fill:none; 
stroke:#C872AB; stroke-width:0.3000; stroke-opacity:1; 
stroke-linecap:round; stroke-linejoin:round;">
<text x="-16.0000" y="67.8500"
textLength="6.3857" font-size="2.0000" lengthAdjust="spacingAndGlyphs"
text-anchor="start" opacity="0" stroke-opacity="0">Rev: </text>
<g class="stroked-text"><desc>Rev: </desc>
<path d="M-14.5883 67.7783
L-15.0883 67.0640
" />
<path d="M-15.4455 67.7783
L-15.4455 66.2783
" />
<path d="M-15.4455 66.2783
L-14.8741 66.2783
" />
<path d="M-14.8741 66.2783
L-14.7312 66.3498
" />
<path d="M-14.7312 66.3498
L-14.6598 66.4212
" />
<path d="M-14.6598 66.4212
L-14.5883 66.5640
" />
<path d="M-14.5883 66.5640
L-14.5883 66.7783
" />
<path d="M-14.5883 66.7783
L-14.6598 66.9212
" />
<path d="M-14.6598 66.9212
L-14.7312 66.9926
" />
<path d="M-14.7312 66.9926
L-14.8741 67.0640
" />
<path d="M-14.8741 67.0640
L-15.4455 67.0640
" />
<path d="M-13.3741 67.7069
L-13.5169 67.7783
" />
<path d="M-13.5169 67.7783
L-13.8026 67.7783
" />
<path d="M-13.8026 67.7783
L-13.9455 67.7069
" />
<path d="M-13.9455 67.7069
L-14.0169 67.5640
" />
<path d="M-14.0169 67.5640
L-14.0169 66.9926
" />
<path d="M-14.0169 66.9926
L-13.9455 66.8498
" />
<path d="M-13.9455 66.8498
L-13.8026 66.7783
" />
<path d="M-13.8026 66.7783
L-13.5169 66.7783
" />
<path d="M-13.5169 66.7783
L-13.3741 66.8498
" />
<path d="M-13.3741 66.8498
L-13.3026 66.9926
" />
<path d="M-13.3026 66.9926
L-13.3026 67.1355
" />
<path d="M-13.3026 67.1355
L-14.0169 67.2783
" />
<path d="M-12.8026 66.7783
L-12.4455 67.7783
" />
<path d="M-12.4455 67.7783
L-12.0883 66.7783
" />
<path d="M-11.5169 67.6355
L-11.4455 67.7069
" />
<path d="M-11.4455 67.7069
L-11.5169 67.7783
" />
<path d="M-11.5169 67.7783
L-11.5883 67.7069
" />
<path d="M-11.5883 67.7069
L-11.5169 67.6355
" />
<path d="M-11.5169 67.6355
L-11.5169 67.7783
" />
<path d="M-11.5169 66.8498
L-11.4455 66.9212
" />
<path d="M-11.4455 66.9212
L-11.5169 66.9926
" />
<path d="M-11.5169 66.9926
L-11.5883 66.9212
" />
<path d="M-11.5883 66.9212
L-11.5169 66.8498
" />
<path d="M-11.5169 66.8498
L-11.5169 66.9926
" />
</g></g>
<g style="fill:none; 
stroke:#C872AB; stroke-width:0.1500; stroke-opacity:1; 
stroke-linecap:round; stroke-linejoin:round;">
<text x="-101.0000" y="67.8500"
textLength="11.6500" font-size="2.0000" lengthAdjust="spacingAndGlyphs"
text-anchor="start" opacity="0" stroke-opacity="0">Size: User</text>
<g class="stroked-text"><desc>Size: User</desc>
<path d="M-100.6156 67.7147
L-100.4013 67.7861
" />
<path d="M-100.4013 67.7861
L-100.0442 67.7861
" />
<path d="M-100.0442 67.7861
L-99.9013 67.7147
" />
<path d="M-99.9013 67.7147
L-99.8299 67.6433
" />
<path d="M-99.8299 67.6433
L-99.7585 67.5004
" />
<path d="M-99.7585 67.5004
L-99.7585 67.3576
" />
<path d="M-99.7585 67.3576
L-99.8299 67.2147
" />
<path d="M-99.8299 67.2147
L-99.9013 67.1433
" />
<path d="M-99.9013 67.1433
L-100.0442 67.0718
" />
<path d="M-100.0442 67.0718
L-100.3299 67.0004
" />
<path d="M-100.3299 67.0004
L-100.4727 66.9290
" />
<path d="M-100.4727 66.9290
L-100.5442 66.8576
" />
<path d="M-100.5442 66.8576
L-100.6156 66.7147
" />
<path d="M-100.6156 66.7147
L-100.6156 66.5718
" />
<path d="M-100.6156 66.5718
L-100.5442 66.4290
" />
<path d="M-100.5442 66.4290
L-100.4727 66.3576
" />
<path d="M-100.4727 66.3576
L-100.3299 66.2861
" />
<path d="M-100.3299 66.2861
L-99.9727 66.2861
" />
<path d="M-99.9727 66.2861
L-99.7585 66.3576
" />
<path d="M-99.1156 67.7861
L-99.1156 66.7861
" />
<path d="M-99.1156 66.2861
L-99.1870 66.3576
" />
<path d="M-99.1870 66.3576
L-99.1156 66.4290
" />
<path d="M-99.1156 66.4290
L-99.0442 66.3576
" />
<path d="M-99.0442 66.3576
L-99.1156 66.2861
" />
<path d="M-99.1156 66.2861
L-99.1156 66.4290
" />
<path d="M-98.5442 66.7861
L-97.7585 66.7861
" />
<path d="M-97.7585 66.7861
L-98.5442 67.7861
" />
<path d="M-98.5442 67.7861
L-97.7585 67.7861
" />
<path d="M-96.6156 67.7147
L-96.7585 67.7861
" />
<path d="M-96.7585 67.7861
L-97.0442 67.7861
" />
<path d="M-97.0442 67.7861
L-97.1870 67.7147
" />
<path d="M-97.1870 67.7147
L-97.2585 67.5718
" />
<path d="M-97.2585 67.5718
L-97.2585 67.0004
" />
<path d="M-97.2585 67.0004
L-97.1870 66.8576
" />
<path d="M-97.1870 66.8576
L-97.0442 66.7861
" />
<path d="M-97.0442 66.7861
L-96.7585 66.7861
" />
<path d="M-96.7585 66.7861
L-96.6156 66.8576
" />
<path d="M-96.6156 66.8576
L-96.5442 67.0004
" />
<path d="M-96.5442 67.0004
L-96.5442 67.1433
" />
<path d="M-96.5442 67.1433
L-97.2585 67.2861
" />
<path d="M-95.9013 67.6433
L-95.8299 67.7147
" />
<path d="M-95.8299 67.7147
L-95.9013 67.7861
" />
<path d="M-95.9013 67.7861
L-95.9727 67.7147
" />
<path d="M-95.9727 67.7147
L-95.9013 67.6433
" />
<path d="M-95.9013 67.6433
L-95.9013 67.7861
" />
<path d="M-95.9013 66.8576
L-95.8299 66.9290
" />
<path d="M-95.8299 66.9290
L-95.9013 67.0004
" />
<path d="M-95.9013 67.0004
L-95.9727 66.9290
" />
<path d="M-95.9727 66.9290
L-95.9013 66.8576
" />
<path d="M-95.9013 66.8576
L-95.9013 67.0004
" />
<path d="M-94.0442 66.2861
L-94.0442 67.5004
" />
<path d="M-94.0442 67.5004
L-93.9727 67.6433
" />
<path d="M-93.9727 67.6433
L-93.9013 67.7147
" />
<path d="M-93.9013 67.7147
L-93.7585 67.7861
" />
<path d="M-93.7585 67.7861
L-93.4727 67.7861
" />
<path d="M-93.4727 67.7861
L-93.3299 67.7147
" />
<path d="M-93.3299 67.7147
L-93.2585 67.6433
" />
<path d="M-93.2585 67.6433
L-93.1870 67.5004
" />
<path d="M-93.1870 67.5004
L-93.1870 66.2861
" />
<path d="M-92.5442 67.7147
L-92.4013 67.7861
" />
<path d="M-92.4013 67.7861
L-92.1156 67.7861
" />
<path d="M-92.1156 67.7861
L-91.9727 67.7147
" />
<path d="M-91.9727 67.7147
L-91.9013 67.5718
" />
<path d="M-91.9013 67.5718
L-91.9013 67.5004
" />
<path d="M-91.9013 67.5004
L-91.9727 67.3576
" />
<path d="M-91.9727 67.3576
L-92.1156 67.2861
" />
<path d="M-92.1156 67.2861
L-92.3299 67.2861
" />
<path d="M-92.3299 67.2861
L-92.4727 67.2147
" />
<path d="M-92.4727 67.2147
L-92.5442 67.0718
" />
<path d="M-92.5442 67.0718
L-92.5442 67.0004
" />
<path d="M-92.5442 67.0004
L-92.4727 66.8576
" />
<path d="M-92.4727 66.8576
L-92.3299 66.7861
" />
<path d="M-92.3299 66.7861
L-92.1156 66.7861
" />
<path d="M-92.1156 66.7861
L-91.9727 66.8576
" />
<path d="M-90.6870 67.7147
L-90.8299 67.7861
" />
<path d="M-90.8299 67.7861
L-91.1156 67.7861
" />
<path d="M-91.1156 67.7861
L-91.2585 67.7147
" />
<path d="M-91.2585 67.7147
L-91.3299 67.5718
" />
<path d="M-91.3299 67.5718
L-91.3299 67.0004
" />
<path d="M-91.3299 67.0004
L-91.2585 66.8576
" />
<path d="M-91.2585 66.8576
L-91.1156 66.7861
" />
<path d="M-91.1156 66.7861
L-90.8299 66.7861
" />
<path d="M-90.8299 66.7861
L-90.6870 66.8576
" />
<path d="M-90.6870 66.8576
L-90.6156 67.0004
" />
<path d="M-90.6156 67.0004
L-90.6156 67.1433
" />
<path d="M-90.6156 67.1433
L-91.3299 67.2861
" />
<path d="M-89.9727 67.7861
L-89.9727 66.7861
" />
<path d="M-89.9727 67.0718
L-89.9013 66.9290
" />
<path d="M-89.9013 66.9290
L-89.8299 66.8576
" />
<path d="M-89.8299 66.8576
L-89.6870 66.7861
" />
<path d="M-89.6870 66.7861
L-89.5442 66.7861
" />
</g><text x="-16.0000" y="70.6500"
textLength="8.5071" font-size="2.0000" lengthAdjust="spacingAndGlyphs"
text-anchor="start" opacity="0" stroke-opacity="0">Id: 1/1</text>
<g class="stroked-text"><desc>Id: 1/1</desc>
<path d="M-15.5442 70.5861
L-15.5442 69.0861
" />
<path d="M-14.1870 70.5861
L-14.1870 69.0861
" />
<path d="M-14.1870 70.5147
L-14.3299 70.5861
" />
<path d="M-14.3299 70.5861
L-14.6156 70.5861
" />
<path d="M-14.6156 70.5861
L-14.7585 70.5147
" />
<path d="M-14.7585 70.5147
L-14.8299 70.4433
" />
<path d="M-14.8299 70.4433
L-14.9013 70.3004
" />
<path d="M-14.9013 70.3004
L-14.9013 69.8718
" />
<path d="M-14.9013 69.8718
L-14.8299 69.7290
" />
<path d="M-14.8299 69.7290
L-14.7585 69.6576
" />
<path d="M-14.7585 69.6576
L-14.6156 69.5861
" />
<path d="M-14.6156 69.5861
L-14.3299 69.5861
" />
<path d="M-14.3299 69.5861
L-14.1870 69.6576
" />
<path d="M-13.4727 70.4433
L-13.4013 70.5147
" />
<path d="M-13.4013 70.5147
L-13.4727 70.5861
" />
<path d="M-13.4727 70.5861
L-13.5442 70.5147
" />
<path d="M-13.5442 70.5147
L-13.4727 70.4433
" />
<path d="M-13.4727 70.4433
L-13.4727 70.5861
" />
<path d="M-13.4727 69.6576
L-13.4013 69.7290
" />
<path d="M-13.4013 69.7290
L-13.4727 69.8004
" />
<path d="M-13.4727 69.8004
L-13.5442 69.7290
" />
<path d="M-13.5442 69.7290
L-13.4727 69.6576
" />
<path d="M-13.4727 69.6576
L-13.4727 69.8004
" />
<path d="M-10.8299 70.5861
L-11.6870 70.5861
" />
<path d="M-11.2585 70.5861
L-11.2585 69.0861
" />
<path d="M-11.2585 69.0861
L-11.4013 69.3004
" />
<path d="M-11.4013 69.3004
L-11.5442 69.4433
" />
<path d="M-11.5442 69.4433
L-11.6870 69.5147
" />
<path d="M-9.1156 69.0147
L-10.4013 70.9433
" />
<path d="M-7.8299 70.5861
L-8.6870 70.5861
" />
<path d="M-8.2585 70.5861
L-8.2585 69.0861
" />
<path d="M-8.2585 69.0861
L-8.4013 69.3004
" />
<path d="M-8.4013 69.3004
L-8.5442 69.4433
" />
<path d="M-8.5442 69.4433
L-8.6870 69.5147
" />
</g><path d="M-102.0000 61.5000
L6.0000 61.5000
" />
</g>
<g style="fill:none; 
stroke:#C872AB; stroke-width:0.4000; stroke-opacity:1; 
stroke-linecap:round; stroke-linejoin:round;">
<text x="-101.0000" y="64.3000"
textLength="9.6571" font-size="2.6667" lengthAdjust="spacingAndGlyphs"
text-anchor="start" opacity="0" stroke-opacity="0">Title: </text>
<g class="stroked-text"><desc>Title: </desc>
<path d="M-100.3083 62.2044
L-99.1654 62.2044
" />
<path d="M-99.9868 64.2044
L-99.7368 62.2044
" />
<path d="M-98.7487 64.2044
L-98.5821 62.8711
" />
<path d="M-98.4987 62.2044
L-98.6059 62.2997
" />
<path d="M-98.6059 62.2997
L-98.5226 62.3949
" />
<path d="M-98.5226 62.3949
L-98.4154 62.2997
" />
<path d="M-98.4154 62.2997
L-98.4987 62.2044
" />
<path d="M-98.4987 62.2044
L-98.5226 62.3949
" />
<path d="M-97.9154 62.8711
L-97.1535 62.8711
" />
<path d="M-97.5464 62.2044
L-97.7607 63.9187
" />
<path d="M-97.7607 63.9187
L-97.6892 64.1092
" />
<path d="M-97.6892 64.1092
L-97.5107 64.2044
" />
<path d="M-97.5107 64.2044
L-97.3202 64.2044
" />
<path d="M-96.3678 64.2044
L-96.5464 64.1092
" />
<path d="M-96.5464 64.1092
L-96.6178 63.9187
" />
<path d="M-96.6178 63.9187
L-96.4035 62.2044
" />
<path d="M-94.8321 64.1092
L-95.0345 64.2044
" />
<path d="M-95.0345 64.2044
L-95.4154 64.2044
" />
<path d="M-95.4154 64.2044
L-95.5940 64.1092
" />
<path d="M-95.5940 64.1092
L-95.6654 63.9187
" />
<path d="M-95.6654 63.9187
L-95.5702 63.1568
" />
<path d="M-95.5702 63.1568
L-95.4511 62.9663
" />
<path d="M-95.4511 62.9663
L-95.2487 62.8711
" />
<path d="M-95.2487 62.8711
L-94.8678 62.8711
" />
<path d="M-94.8678 62.8711
L-94.6892 62.9663
" />
<path d="M-94.6892 62.9663
L-94.6178 63.1568
" />
<path d="M-94.6178 63.1568
L-94.6416 63.3473
" />
<path d="M-94.6416 63.3473
L-95.6178 63.5378
" />
<path d="M-93.8678 64.0140
L-93.7845 64.1092
" />
<path d="M-93.7845 64.1092
L-93.8916 64.2044
" />
<path d="M-93.8916 64.2044
L-93.9749 64.1092
" />
<path d="M-93.9749 64.1092
L-93.8678 64.0140
" />
<path d="M-93.8678 64.0140
L-93.8916 64.2044
" />
<path d="M-93.7368 62.9663
L-93.6535 63.0616
" />
<path d="M-93.6535 63.0616
L-93.7607 63.1568
" />
<path d="M-93.7607 63.1568
L-93.8440 63.0616
" />
<path d="M-93.8440 63.0616
L-93.7368 62.9663
" />
<path d="M-93.7368 62.9663
L-93.7607 63.1568
" />
</g></g>
<g style="fill:none; 
stroke:#C872AB; stroke-width:0.1500; stroke-opacity:1; 
stroke-linecap:round; stroke-linejoin:round;">
<text x="-101.0000" y="60.4500"
textLength="28.3643" font-size="2.0000" lengthAdjust="spacingAndGlyphs"
text-anchor="start" opacity="0" stroke-opacity="0">File: fullScope.kicad_pcb</text>
<g class="stroked-text"><desc>File: fullScope.kicad_pcb</desc>
<path d="M-100.0442 59.6004
L-100.5442 59.6004
" />
<path d="M-100.5442 60.3861
L-100.5442 58.8861
" />
<path d="M-100.5442 58.8861
L-99.8299 58.8861
" />
<path d="M-99.2585 60.3861
L-99.2585 59.3861
" />
<path d="M-99.2585 58.8861
L-99.3299 58.9576
" />
<path d="M-99.3299 58.9576
L-99.2585 59.0290
" />
<path d="M-99.2585 59.0290
L-99.1870 58.9576
" />
<path d="M-99.1870 58.9576
L-99.2585 58.8861
" />
<path d="M-99.2585 58.8861
L-99.2585 59.0290
" />
<path d="M-98.3299 60.3861
L-98.4727 60.3147
" />
<path d="M-98.4727 60.3147
L-98.5442 60.1718
" />
<path d="M-98.5442 60.1718
L-98.5442 58.8861
" />
<path d="M-97.1870 60.3147
L-97.3299 60.3861
" />
<path d="M-97.3299 60.3861
L-97.6156 60.3861
" />
<path d="M-97.6156 60.3861
L-97.7585 60.3147
" />
<path d="M-97.7585 60.3147
L-97.8299 60.1718
" />
<path d="M-97.8299 60.1718
L-97.8299 59.6004
" />
<path d="M-97.8299 59.6004
L-97.7585 59.4576
" />
<path d="M-97.7585 59.4576
L-97.6156 59.3861
" />
<path d="M-97.6156 59.3861
L-97.3299 59.3861
" />
<path d="M-97.3299 59.3861
L-97.1870 59.4576
" />
<path d="M-97.1870 59.4576
L-97.1156 59.6004
" />
<path d="M-97.1156 59.6004
L-97.1156 59.7433
" />
<path d="M-97.1156 59.7433
L-97.8299 59.8861
" />
<path d="M-96.4727 60.2433
L-96.4013 60.3147
" />
<path d="M-96.4013 60.3147
L-96.4727 60.3861
" />
<path d="M-96.4727 60.3861
L-96.5442 60.3147
" />
<path d="M-96.5442 60.3147
L-96.4727 60.2433
" />
<path d="M-96.4727 60.2433
L-96.4727 60.3861
" />
<path d="M-96.4727 59.4576
L-96.4013 59.5290
" />
<path d="M-96.4013 59.5290
L-96.4727 59.6004
" />
<path d="M-96.4727 59.6004
L-96.5442 59.5290
" />
<path d="M-96.5442 59.5290
L-96.4727 59.4576
" />
<path d="M-96.4727 59.4576
L-96.4727 59.6004
" />
<path d="M-94.8299 59.3861
L-94.2585 59.3861
" />
<path d="M-94.6156 60.3861
L-94.6156 59.1004
" />
<path d="M-94.6156 59.1004
L-94.5442 58.9576
" />
<path d="M-94.5442 58.9576
L-94.4013 58.8861
" />
<path d="M-94.4013 58.8861
L-94.2585 58.8861
" />
<path d="M-93.1156 59.3861
L-93.1156 60.3861
" />
<path d="M-93.7585 59.3861
L-93.7585 60.1718
" />
<path d="M-93.7585 60.1718
L-93.6870 60.3147
" />
<path d="M-93.6870 60.3147
L-93.5442 60.3861
" />
<path d="M-93.5442 60.3861
L-93.3299 60.3861
" />
<path d="M-93.3299 60.3861
L-93.1870 60.3147
" />
<path d="M-93.1870 60.3147
L-93.1156 60.2433
" />
<path d="M-92.1870 60.3861
L-92.3299 60.3147
" />
<path d="M-92.3299 60.3147
L-92.4013 60.1718
" />
<path d="M-92.4013 60.1718
L-92.4013 58.8861
" />
<path d="M-91.4013 60.3861
L-91.5442 60.3147
" />
<path d="M-91.5442 60.3147
L-91.6156 60.1718
" />
<path d="M-91.6156 60.1718
L-91.6156 58.8861
" />
<path d="M-90.9013 60.3147
L-90.6870 60.3861
" />
<path d="M-90.6870 60.3861
L-90.3299 60.3861
" />
<path d="M-90.3299 60.3861
L-90.1870 60.3147
" />
<path d="M-90.1870 60.3147
L-90.1156 60.2433
" />
<path d="M-90.1156 60.2433
L-90.0442 60.1004
" />
<path d="M-90.0442 60.1004
L-90.0442 59.9576
" />
<path d="M-90.0442 59.9576
L-90.1156 59.8147
" />
<path d="M-90.1156 59.8147
L-90.1870 59.7433
" />
<path d="M-90.1870 59.7433
L-90.3299 59.6718
" />
<path d="M-90.3299 59.6718
L-90.6156 59.6004
" />
<path d="M-90.6156 59.6004
L-90.7585 59.5290
" />
<path d="M-90.7585 59.5290
L-90.8299 59.4576
" />
<path d="M-90.8299 59.4576
L-90.9013 59.3147
" />
<path d="M-90.9013 59.3147
L-90.9013 59.1718
" />
<path d="M-90.9013 59.1718
L-90.8299 59.0290
" />
<path d="M-90.8299 59.0290
L-90.7585 58.9576
" />
<path d="M-90.7585 58.9576
L-90.6156 58.8861
" />
<path d="M-90.6156 58.8861
L-90.2585 58.8861
" />
<path d="M-90.2585 58.8861
L-90.0442 58.9576
" />
<path d="M-88.7585 60.3147
L-88.9013 60.3861
" />
<path d="M-88.9013 60.3861
L-89.1870 60.3861
" />
<path d="M-89.1870 60.3861
L-89.3299 60.3147
" />
<path d="M-89.3299 60.3147
L-89.4013 60.2433
" />
<path d="M-89.4013 60.2433
L-89.4727 60.1004
" />
<path d="M-89.4727 60.1004
L-89.4727 59.6718
" />
<path d="M-89.4727 59.6718
L-89.4013 59.5290
" />
<path d="M-89.4013 59.5290
L-89.3299 59.4576
" />
<path d="M-89.3299 59.4576
L-89.1870 59.3861
" />
<path d="M-89.1870 59.3861
L-88.9013 59.3861
" />
<path d="M-88.9013 59.3861
L-88.7585 59.4576
" />
<path d="M-87.9013 60.3861
L-88.0442 60.3147
" />
<path d="M-88.0442 60.3147
L-88.1156 60.2433
" />
<path d="M-88.1156 60.2433
L-88.1870 60.1004
" />
<path d="M-88.1870 60.1004
L-88.1870 59.6718
" />
<path d="M-88.1870 59.6718
L-88.1156 59.5290
" />
<path d="M-88.1156 59.5290
L-88.0442 59.4576
" />
<path d="M-88.0442 59.4576
L-87.9013 59.3861
" />
<path d="M-87.9013 59.3861
L-87.6870 59.3861
" />
<path d="M-87.6870 59.3861
L-87.5442 59.4576
" />
<path d="M-87.5442 59.4576
L-87.4727 59.5290
" />
<path d="M-87.4727 59.5290
L-87.4013 59.6718
" />
<path d="M-87.4013 59.6718
L-87.4013 60.1004
" />
<path d="M-87.4013 60.1004
L-87.4727 60.2433
" />
<path d="M-87.4727 60.2433
L-87.5442 60.3147
" />
<path d="M-87.5442 60.3147
L-87.6870 60.3861
" />
<path d="M-87.6870 60.3861
L-87.9013 60.3861
" />
<path d="M-86.7585 59.3861
L-86.7585 60.8861
" />
<path d="M-86.7585 59.4576
L-86.6156 59.3861
" />
<path d="M-86.6156 59.3861
L-86.3299 59.3861
" />
<path d="M-86.3299 59.3861
L-86.1870 59.4576
" />
<path d="M-86.1870 59.4576
L-86.1156 59.5290
" />
<path d="M-86.1156 59.5290
L-86.0442 59.6718
" />
<path d="M-86.0442 59.6718
L-86.0442 60.1004
" />
<path d="M-86.0442 60.1004
L-86.1156 60.2433
" />
<path d="M-86.1156 60.2433
L-86.1870 60.3147
" />
<path d="M-86.1870 60.3147
L-86.3299 60.3861
" />
<path d="M-86.3299 60.3861
L-86.6156 60.3861
" />
<path d="M-86.6156 60.3861
L-86.7585 60.3147
" />
<path d="M-84.8299 60.3147
L-84.9727 60.3861
" />
<path d="M-84.9727 60.3861
L-85.2585 60.3861
" />
<path d="M-85.2585 60.3861
L-85.4013 60.3147
" />
<path d="M-85.4013 60.3147
L-85.4727 60.1718
" />
<path d="M-85.4727 60.1718
L-85.4727 59.6004
" />
<path d="M-85.4727 59.6004
L-85.4013 59.4576
" />
<path d="M-85.4013 59.4576
L-85.2585 59.3861
" />
<path d="M-85.2585 59.3861
L-84.9727 59.3861
" />
<path d="M-84.9727 59.3861
L-84.8299 59.4576
" />
<path d="M-84.8299 59.4576
L-84.7585 59.6004
" />
<path d="M-84.7585 59.6004
L-84.7585 59.7433
" />
<path d="M-84.7585 59.7433
L-85.4727 59.8861
" />
<path d="M-84.1156 60.2433
L-84.0442 60.3147
" />
<path d="M-84.0442 60.3147
L-84.1156 60.3861
" />
<path d="M-84.1156 60.3861
L-84.1870 60.3147
" />
<path d="M-84.1870 60.3147
L-84.1156 60.2433
" />
<path d="M-84.1156 60.2433
L-84.1156 60.3861
" />
<path d="M-83.4013 60.3861
L-83.4013 58.8861
" />
<path d="M-83.2585 59.8147
L-82.8299 60.3861
" />
<path d="M-82.8299 59.3861
L-83.4013 59.9576
" />
<path d="M-82.1870 60.3861
L-82.1870 59.3861
" />
<path d="M-82.1870 58.8861
L-82.2585 58.9576
" />
<path d="M-82.2585 58.9576
L-82.1870 59.0290
" />
<path d="M-82.1870 59.0290
L-82.1156 58.9576
" />
<path d="M-82.1156 58.9576
L-82.1870 58.8861
" />
<path d="M-82.1870 58.8861
L-82.1870 59.0290
" />
<path d="M-80.8299 60.3147
L-80.9727 60.3861
" />
<path d="M-80.9727 60.3861
L-81.2585 60.3861
" />
<path d="M-81.2585 60.3861
L-81.4013 60.3147
" />
<path d="M-81.4013 60.3147
L-81.4727 60.2433
" />
<path d="M-81.4727 60.2433
L-81.5442 60.1004
" />
<path d="M-81.5442 60.1004
L-81.5442 59.6718
" />
<path d="M-81.5442 59.6718
L-81.4727 59.5290
" />
<path d="M-81.4727 59.5290
L-81.4013 59.4576
" />
<path d="M-81.4013 59.4576
L-81.2585 59.3861
" />
<path d="M-81.2585 59.3861
L-80.9727 59.3861
" />
<path d="M-80.9727 59.3861
L-80.8299 59.4576
" />
<path d="M-79.5442 60.3861
L-79.5442 59.6004
" />
<path d="M-79.5442 59.6004
L-79.6156 59.4576
" />
<path d="M-79.6156 59.4576
L-79.7585 59.3861
" />
<path d="M-79.7585 59.3861
L-80.0442 59.3861
" />
<path d="M-80.0442 59.3861
L-80.1870 59.4576
" />
<path d="M-79.5442 60.3147
L-79.6870 60.3861
" />
<path d="M-79.6870 60.3861
L-80.0442 60.3861
" />
<path d="M-80.0442 60.3861
L-80.1870 60.3147
" />
<path d="M-80.1870 60.3147
L-80.2585 60.1718
" />
<path d="M-80.2585 60.1718
L-80.2585 60.0290
" />
<path d="M-80.2585 60.0290
L-80.1870 59.8861
" />
<path d="M-80.1870 59.8861
L-80.0442 59.8147
" />
<path d="M-80.0442 59.8147
L-79.6870 59.8147
" />
<path d="M-79.6870 59.8147
L-79.5442 59.7433
" />
<path d="M-78.1870 60.3861
L-78.1870 58.8861
" />
<path d="M-78.1870 60.3147
L-78.3299 60.3861
" />
<path d="M-78.3299 60.3861
L-78.6156 60.3861
" />
<path d="M-78.6156 60.3861
L-78.7585 60.3147
" />
<path d="M-78.7585 60.3147
L-78.8299 60.2433
" />
<path d="M-78.8299 60.2433
L-78.9013 60.1004
" />
<path d="M-78.9013 60.1004
L-78.9013 59.6718
" />
<path d="M-78.9013 59.6718
L-78.8299 59.5290
" />
<path d="M-78.8299 59.5290
L-78.7585 59.4576
" />
<path d="M-78.7585 59.4576
L-78.6156 59.3861
" />
<path d="M-78.6156 59.3861
L-78.3299 59.3861
" />
<path d="M-78.3299 59.3861
L-78.1870 59.4576
" />
<path d="M-77.8299 60.5290
L-76.6870 60.5290
" />
<path d="M-76.3299 59.3861
L-76.3299 60.8861
" />
<path d="M-76.3299 59.4576
L-76.1870 59.3861
" />
<path d="M-76.1870 59.3861
L-75.9013 59.3861
" />
<path d="M-75.9013 59.3861
L-75.7585 59.4576
" />
<path d="M-75.7585 59.4576
L-75.6870 59.5290
" />
<path d="M-75.6870 59.5290
L-75.6156 59.6718
" />
<path d="M-75.6156 59.6718
L-75.6156 60.1004
" />
<path d="M-75.6156 60.1004
L-75.6870 60.2433
" />
<path d="M-75.6870 60.2433
L-75.7585 60.3147
" />
<path d="M-75.7585 60.3147
L-75.9013 60.3861
" />
<path d="M-75.9013 60.3861
L-76.1870 60.3861
" />
<path d="M-76.1870 60.3861
L-76.3299 60.3147
" />
<path d="M-74.3299 60.3147
L-74.4727 60.3861
" />
<path d="M-74.4727 60.3861
L-74.7585 60.3861
" />
<path d="M-74.7585 60.3861
L-74.9013 60.3147
" />
<path d="M-74.9013 60.3147
L-74.9727 60.2433
" />
<path d="M-74.9727 60.2433
L-75.0442 60.1004
" />
<path d="M-75.0442 60.1004
L-75.0442 59.6718
" />
<path d="M-75.0442 59.6718
L-74.9727 59.5290
" />
<path d="M-74.9727 59.5290
L-74.9013 59.4576
" />
<path d="M-74.9013 59.4576
L-74.7585 59.3861
" />
<path d="M-74.7585 59.3861
L-74.4727 59.3861
" />
<path d="M-74.4727 59.3861
L-74.3299 59.4576
" />
<path d="M-73.6870 60.3861
L-73.6870 58.8861
" />
<path d="M-73.6870 59.4576
L-73.5442 59.3861
" />
<path d="M-73.5442 59.3861
L-73.2585 59.3861
" />
<path d="M-73.2585 59.3861
L-73.1156 59.4576
" />
<path d="M-73.1156 59.4576
L-73.0442 59.5290
" />
<path d="M-73.0442 59.5290
L-72.9727 59.6718
" />
<path d="M-72.9727 59.6718
L-72.9727 60.1004
" />
<path d="M-72.9727 60.1004
L-73.0442 60.2433
" />
<path d="M-73.0442 60.2433
L-73.1156 60.3147
" />
<path d="M-73.1156 60.3147
L-73.2585 60.3861
" />
<path d="M-73.2585 60.3861
L-73.5442 60.3861
" />
<path d="M-73.5442 60.3861
L-73.6870 60.3147
" />
</g><path d="M-102.0000 55.5000
L6.0000 55.5000
" />
<text x="-101.0000" y="57.7500"
textLength="8.2214" font-size="2.0000" lengthAdjust="spacingAndGlyphs"
text-anchor="start" opacity="0" stroke-opacity="0">Sheet: </text>
<g class="stroked-text"><desc>Sheet: </desc>
<path d="M-100.6156 57.6147
L-100.4013 57.6861
" />
<path d="M-100.4013 57.6861
L-100.0442 57.6861
" />
<path d="M-100.0442 57.6861
L-99.9013 57.6147
" />
<path d="M-99.9013 57.6147
L-99.8299 57.5433
" />
<path d="M-99.8299 57.5433
L-99.7585 57.4004
" />
<path d="M-99.7585 57.4004
L-99.7585 57.2576
" />
<path d="M-99.7585 57.2576
L-99.8299 57.1147
" />
<path d="M-99.8299 57.1147
L-99.9013 57.0433
" />
<path d="M-99.9013 57.0433
L-100.0442 56.9718
" />
<path d="M-100.0442 56.9718
L-100.3299 56.9004
" />
<path d="M-100.3299 56.9004
L-100.4727 56.8290
" />
<path d="M-100.4727 56.8290
L-100.5442 56.7576
" />
<path d="M-100.5442 56.7576
L-100.6156 56.6147
" />
<path d="M-100.6156 56.6147
L-100.6156 56.4718
" />
<path d="M-100.6156 56.4718
L-100.5442 56.3290
" />
<path d="M-100.5442 56.3290
L-100.4727 56.2576
" />
<path d="M-100.4727 56.2576
L-100.3299 56.1861
" />
<path d="M-100.3299 56.1861
L-99.9727 56.1861
" />
<path d="M-99.9727 56.1861
L-99.7585 56.2576
" />
<path d="M-99.1156 57.6861
L-99.1156 56.1861
" />
<path d="M-98.4727 57.6861
L-98.4727 56.9004
" />
<path d="M-98.4727 56.9004
L-98.5442 56.7576
" />
<path d="M-98.5442 56.7576
L-98.6870 56.6861
" />
<path d="M-98.6870 56.6861
L-98.9013 56.6861
" />
<path d="M-98.9013 56.6861
L-99.0442 56.7576
" />
<path d="M-99.0442 56.7576
L-99.1156 56.8290
" />
<path d="M-97.1870 57.6147
L-97.3299 57.6861
" />
<path d="M-97.3299 57.6861
L-97.6156 57.6861
" />
<path d="M-97.6156 57.6861
L-97.7585 57.6147
" />
<path d="M-97.7585 57.6147
L-97.8299 57.4718
" />
<path d="M-97.8299 57.4718
L-97.8299 56.9004
" />
<path d="M-97.8299 56.9004
L-97.7585 56.7576
" />
<path d="M-97.7585 56.7576
L-97.6156 56.6861
" />
<path d="M-97.6156 56.6861
L-97.3299 56.6861
" />
<path d="M-97.3299 56.6861
L-97.1870 56.7576
" />
<path d="M-97.1870 56.7576
L-97.1156 56.9004
" />
<path d="M-97.1156 56.9004
L-97.1156 57.0433
" />
<path d="M-97.1156 57.0433
L-97.8299 57.1861
" />
<path d="M-95.9013 57.6147
L-96.0442 57.6861
" />
<path d="M-96.0442 57.6861
L-96.3299 57.6861
" />
<path d="M-96.3299 57.6861
L-96.4727 57.6147
" />
<path d="M-96.4727 57.6147
L-96.5442 57.4718
" />
<path d="M-96.5442 57.4718
L-96.5442 56.9004
" />
<path d="M-96.5442 56.9004
L-96.4727 56.7576
" />
<path d="M-96.4727 56.7576
L-96.3299 56.6861
" />
<path d="M-96.3299 56.6861
L-96.0442 56.6861
" />
<path d="M-96.0442 56.6861
L-95.9013 56.7576
" />
<path d="M-95.9013 56.7576
L-95.8299 56.9004
" />
<path d="M-95.8299 56.9004
L-95.8299 57.0433
" />
<path d="M-95.8299 57.0433
L-96.5442 57.1861
" />
<path d="M-95.4013 56.6861
L-94.8299 56.6861
" />
<path d="M-95.1870 56.1861
L-95.1870 57.4718
" />
<path d="M-95.1870 57.4718
L-95.1156 57.6147
" />
<path d="M-95.1156 57.6147
L-94.9727 57.6861
" />
<path d="M-94.9727 57.6861
L-94.8299 57.6861
" />
<path d="M-94.3299 57.5433
L-94.2585 57.6147
" />
<path d="M-94.2585 57.6147
L-94.3299 57.6861
" />
<path d="M-94.3299 57.6861
L-94.4013 57.6147
" />
<path d="M-94.4013 57.6147
L-94.3299 57.5433
" />
<path d="M-94.3299 57.5433
L-94.3299 57.6861
" />
<path d="M-94.3299 56.7576
L-94.2585 56.8290
" />
<path d="M-94.2585 56.8290
L-94.3299 56.9004
" />
<path d="M-94.3299 56.9004
L-94.4013 56.8290
" />
<path d="M-94.4013 56.8290
L-94.3299 56.7576
" />
<path d="M-94.3299 56.7576
L-94.3299 56.9004
" />
</g></g>
<g style="fill:none; 
stroke:#C872AB; stroke-width:0.3000; stroke-opacity:1; 
stroke-linecap:round; stroke-linejoin:round;">
<text x="-101.0000" y="54.7500"
textLength="0.9000" font-size="2.0000" lengthAdjust="spacingAndGlyphs"
text-anchor="start" opacity="0" stroke-opacity="0"></text>
<g class="stroked-text"><desc></desc>
</g></g>
<g style="fill:none; 
stroke:#C872AB; stroke-width:0.1500; stroke-opacity:1; 
stroke-linecap:round; stroke-linejoin:round;">
<text x="-101.0000" y="51.7500"
textLength="0.4500" font-size="2.0000" lengthAdjust="spacingAndGlyphs"
text-anchor="start" opacity="0" stroke-opacity="0"></text>
<g class="stroked-text"><desc></desc>
</g><text x="-101.0000" y="48.7500"
textLength="0.4500" font-size="2.0000" lengthAdjust="spacingAndGlyphs"
text-anchor="start" opacity="0" stroke-opacity="0"></text>
<g class="stroked-text"><desc></desc>
</g><text x="-101.0000" y="45.7500"
textLength="0.4500" font-size="2.0000" lengthAdjust="spacingAndGlyphs"
text-anchor="start" opacity="0" stroke-opacity="0"></text>
<g class="stroked-text"><desc></desc>
</g><text x="-101.0000" y="42.7500"
textLength="0.4500" font-size="2.0000" lengthAdjust="spacingAndGlyphs"
text-anchor="start" opacity="0" stroke-opacity="0"></text>
<g class="stroked-text"><desc></desc>
</g><path d="M-82.0000 65.5000
L-82.0000 68.5000
" />
<path d="M-18.0000 65.5000
L-18.0000 72.0000
" />
</g>
<g style="fill:#4D7FC4; fill-opacity:1.0000; stroke:none;">
<circle cx="49.9988" cy="20.0000" r="0.8000" /> 
<circle cx="42.3788" cy="20.0000" r="0.8000" /> 
<path style="fill:#4D7FC4; fill-opacity:1.0000; stroke:none;fill-rule:evenodd;"
d="M 62.7988,55.4500
62.7798,55.3543
62.7256,55.2732
62.6445,55.2190
62.5488,55.2000
61.4488,55.2000
61.3531,55.2190
61.2720,55.2732
61.2178,55.3543
61.1988,55.4500
61.1988,56.5500
61.2178,56.6457
61.2720,56.7268
61.3531,56.7810
61.4488,56.8000
62.5488,56.8000
62.6445,56.7810
62.7256,56.7268
62.7798,56.6457
62.7988,56.5500
Z" /> 
<circle cx="59.9988" cy="56.0000" r="0.8000" /> 
<circle cx="39.9988" cy="46.0000" r="0.8000" /> 
<circle cx="32.3788" cy="46.0000" r="0.8000" /> 
<circle cx="24.9988" cy="32.0000" r="0.8000" /> 
<circle cx="19.9988" cy="32.0000" r="0.8000" /> 
</g>
<g style="fill:none; 
stroke:#4D7FC4; stroke-width:1.9000; stroke-opacity:1; 
stroke-linecap:round; stroke-linejoin:round;">
<path d="M88.6488 70.0000
L87.3488 70.0000
" />
<path d="M76.1488 70.0000
L74.8488 70.0000
" />
<path d="M88.6488 75.0000
L87.3488 75.0000
" />
<path d="M76.1488 75.0000
L74.8488 75.0000
" />
<path style="fill:#4D7FC4; fill-opacity:1.0000; stroke:none;fill-rule:evenodd;"
d="M 38.7988,31.4500
38.7798,31.3543
38.7256,31.2732
38.6445,31.2190
38.5488,31.2000
37.4488,31.2000
37.3531,31.2190
37.2720,31.2732
37.2178,31.3543
37.1988,31.4500
37.1988,32.5500
37.2178,32.6457
37.2720,32.7268
37.3531,32.7810
37.4488,32.8000
38.5488,32.8000
38.6445,32.7810
38.7256,32.7268
38.7798,32.6457
38.7988,32.5500
Z" /> 
</g>
<g style="fill:#4D7FC4; fill-opacity:1.0000; stroke:none;">
<circle cx="37.9988" cy="34.5400" r="0.8000" /> 
<circle cx="37.9988" cy="37.0800" r="0.8000" /> 
<circle cx="37.9988" cy="39.6200" r="0.8000" /> 
<circle cx="30.3788" cy="39.6200" r="0.8000" /> 
<circle cx="30.3788" cy="37.0800" r="0.8000" /> 
<circle cx="30.3788" cy="34.5400" r="0.8000" /> 
<circle cx="30.3788" cy="32.0000" r="0.8000" /> 
<path style="fill:#4D7FC4; fill-opacity:1.0000; stroke:none;fill-rule:evenodd;"
d="M 78.8488,10.8500
78.8488,9.1500
77.1488,9.1500
77.1488,10.8500
Z" /> 
<circle cx="77.9988" cy="12.5400" r="0.8500" /> 
<path style="fill:#4D7FC4; fill-opacity:1.0000; stroke:none;fill-rule:evenodd;"
d="M 66.8488,66.8500
66.8488,65.1500
65.1488,65.1500
65.1488,66.8500
Z" /> 
<circle cx="68.5388" cy="66.0000" r="0.8500" /> 
<circle cx="65.9988" cy="68.5400" r="0.8500" /> 
<circle cx="68.5388" cy="68.5400" r="0.8500" /> 
<circle cx="65.9988" cy="71.0800" r="0.8500" /> 
<circle cx="68.5388" cy="71.0800" r="0.8500" /> 
<circle cx="65.9988" cy="73.6200" r="0.8500" /> 
<circle cx="68.5388" cy="73.6200" r="0.8500" /> 
<circle cx="65.9988" cy="76.1600" r="0.8500" /> 
<circle cx="68.5388" cy="76.1600" r="0.8500" /> 
<circle cx="65.9988" cy="78.7000" r="0.8500" /> 
<circle cx="68.5388" cy="78.7000" r="0.8500" /> 
<circle cx="65.9988" cy="81.2400" r="0.8500" /> 
<circle cx="68.5388" cy="81.2400" r="0.8500" /> 
<circle cx="65.9988" cy="83.7800" r="0.8500" /> 
<circle cx="68.5388" cy="83.7800" r="0.8500" /> 
<circle cx="65.9988" cy="86.3200" r="0.8500" /> 
<circle cx="68.5388" cy="86.3200" r="0.8500" /> 
<circle cx="65.9988" cy="88.8600" r="0.8500" /> 
<circle cx="68.5388" cy="88.8600" r="0.8500" /> 
<circle cx="65.9988" cy="91.4000" r="0.8500" /> 
<circle cx="68.5388" cy="91.4000" r="0.8500" /> 
<circle cx="65.9988" cy="93.9400" r="0.8500" /> 
<circle cx="68.5388" cy="93.9400" r="0.8500" /> 
<circle cx="65.9988" cy="96.4800" r="0.8500" /> 
<circle cx="68.5388" cy="96.4800" r="0.8500" /> 
<circle cx="65.9988" cy="99.0200" r="0.8500" /> 
<circle cx="68.5388" cy="99.0200" r="0.8500" /> 
<circle cx="65.9988" cy="101.5600" r="0.8500" /> 
<circle cx="68.5388" cy="101.5600" r="0.8500" /> 
<circle cx="65.9988" cy="104.1000" r="0.8500" /> 
<circle cx="68.5388" cy="104.1000" r="0.8500" /> 
</g>
<g style="fill:none; 
stroke:#4D7FC4; stroke-width:2.2000; stroke-opacity:1; 
stroke-linecap:round; stroke-linejoin:round;">
<path d="M64.0988 31.3500
L64.0988 32.6500
" />
<path d="M55.8988 31.3500
L55.8988 32.6500
" />
<path style="fill:#4D7FC4; fill-opacity:1.0000; stroke:none;fill-rule:evenodd;"
d="M 62.7488,33.2500
62.7488,30.7500
61.2488,30.7500
61.2488,33.2500
Z" /> 
</g>
<g style="fill:none; 
stroke:#4D7FC4; stroke-width:1.5000; stroke-opacity:1; 
stroke-linecap:round; stroke-linejoin:round;">
<path d="M59.9988 31.5000
L59.9988 32.5000
" />
<path d="M57.9988 31.5000
L57.9988 32.5000
" />
<path style="fill:#4D7FC4; fill-opacity:1.0000; stroke:none;fill-rule:evenodd;"
d="M 31.2888,66.8500
31.2888,65.1500
29.5888,65.1500
29.5888,66.8500
Z" /> 
</g>
<g style="fill:#4D7FC4; fill-opacity:1.0000; stroke:none;">
<circle cx="32.9788" cy="66.0000" r="0.8500" /> 
<circle cx="30.4388" cy="68.5400" r="0.8500" /> 
<circle cx="32.9788" cy="68.5400" r="0.8500" /> 
<circle cx="30.4388" cy="71.0800" r="0.8500" /> 
<circle cx="32.9788" cy="71.0800" r="0.8500" /> 
<circle cx="30.4388" cy="73.6200" r="0.8500" /> 
<circle cx="32.9788" cy="73.6200" r="0.8500" /> 
<circle cx="30.4388" cy="76.1600" r="0.8500" /> 
<circle cx="32.9788" cy="76.1600" r="0.8500" /> 
<circle cx="30.4388" cy="78.7000" r="0.8500" /> 
<circle cx="32.9788" cy="78.7000" r="0.8500" /> 
<circle cx="30.4388" cy="81.2400" r="0.8500" /> 
<circle cx="32.9788" cy="81.2400" r="0.8500" /> 
<circle cx="30.4388" cy="83.7800" r="0.8500" /> 
<circle cx="32.9788" cy="83.7800" r="0.8500" /> 
<circle cx="30.4388" cy="86.3200" r="0.8500" /> 
<circle cx="32.9788" cy="86.3200" r="0.8500" /> 
<circle cx="30.4388" cy="88.8600" r="0.8500" /> 
<circle cx="32.9788" cy="88.8600" r="0.8500" /> 
<circle cx="30.4388" cy="91.4000" r="0.8500" /> 
<circle cx="32.9788" cy="91.4000" r="0.8500" /> 
<circle cx="30.4388" cy="93.9400" r="0.8500" /> 
<circle cx="32.9788" cy="93.9400" r="0.8500" /> 
<circle cx="30.4388" cy="96.4800" r="0.8500" /> 
<circle cx="32.9788" cy="96.4800" r="0.8500" /> 
<circle cx="30.4388" cy="99.0200" r="0.8500" /> 
<circle cx="32.9788" cy="99.0200" r="0.8500" /> 
<circle cx="30.4388" cy="101.5600" r="0.8500" /> 
<circle cx="32.9788" cy="101.5600" r="0.8500" /> 
<circle cx="30.4388" cy="104.1000" r="0.8500" /> 
<circle cx="32.9788" cy="104.1000" r="0.8500" /> 
<circle cx="30.4388" cy="106.6400" r="0.8500" /> 
<circle cx="32.9788" cy="106.6400" r="0.8500" /> 
<circle cx="30.4388" cy="109.1800" r="0.8500" /> 
<circle cx="32.9788" cy="109.1800" r="0.8500" /> 
</g>
<g style="fill:none; 
stroke:#4D7FC4; stroke-width:1.6000; stroke-opacity:1; 
stroke-linecap:round; stroke-linejoin:round;">
<path d="M61.9988 15.5500
L61.9988 16.4500
" />
</g>
<g style="fill:none; 
stroke:#4D7FC4; stroke-width:3.5000; stroke-opacity:1; 
stroke-linecap:round; stroke-linejoin:round;">
<path d="M67.0788 9.1700
L67.0788 12.6700
" />
</g>
<g style="fill:none; 
stroke:#4D7FC4; stroke-width:1.6000; stroke-opacity:1; 
stroke-linecap:round; stroke-linejoin:round;">
<path d="M64.5388 15.5500
L64.5388 16.4500
" />
</g>
<g style="fill:none; 
stroke:#4D7FC4; stroke-width:3.5000; stroke-opacity:1; 
stroke-linecap:round; stroke-linejoin:round;">
<path d="M56.9188 9.1700
L56.9188 12.6700
" />
<path style="fill:#4D7FC4; fill-opacity:1.0000; stroke:none;fill-rule:evenodd;"
d="M 78.9513,53.0000
78.9513,51.0000
77.0463,51.0000
77.0463,53.0000
Z" /> 
</g>
<g style="fill:none; 
stroke:#4D7FC4; stroke-width:1.9050; stroke-opacity:1; 
stroke-linecap:round; stroke-linejoin:round;">
<path d="M75.4588 51.9525
L75.4588 52.0475
" />
<path d="M72.9188 51.9525
L72.9188 52.0475
" />
</g>
<g style="fill:#4D7FC4; fill-opacity:1.0000; stroke:none;">
<circle cx="49.9988" cy="36.0000" r="0.7200" /> 
<circle cx="52.5388" cy="36.0000" r="0.7200" /> 
<circle cx="55.0788" cy="36.0000" r="0.7200" /> 
<path style="fill:#4D7FC4; fill-opacity:1.0000; stroke:none;fill-rule:evenodd;"
d="M 25.8488,74.8500
25.8488,73.1500
24.1488,73.1500
24.1488,74.8500
Z" /> 
<circle cx="24.9988" cy="76.5400" r="0.8500" /> 
<circle cx="24.9988" cy="79.0800" r="0.8500" /> 
<circle cx="24.9988" cy="81.6200" r="0.8500" /> 
<circle cx="24.9988" cy="84.1600" r="0.8500" /> 
<circle cx="24.9988" cy="86.7000" r="0.8500" /> 
<circle cx="24.9988" cy="89.2400" r="0.8500" /> 
<circle cx="24.9988" cy="91.7800" r="0.8500" /> 
<circle cx="33.9988" cy="14.0000" r="0.8000" /> 
<circle cx="26.3788" cy="14.0000" r="0.8000" /> 
<circle cx="49.9988" cy="28.0000" r="0.8000" /> 
<circle cx="44.9988" cy="28.0000" r="0.8000" /> 
<circle cx="33.9988" cy="10.0000" r="0.8000" /> 
<circle cx="26.3788" cy="10.0000" r="0.8000" /> 
</g>
<g style="fill:none; 
stroke:#4D7FC4; stroke-width:1.9000; stroke-opacity:1; 
stroke-linecap:round; stroke-linejoin:round;">
<path d="M20.6488 104.0000
L19.3488 104.0000
" />
<path d="M8.1488 104.0000
L6.8488 104.0000
" />
<path d="M20.6488 109.0000
L19.3488 109.0000
" />
<path d="M8.1488 109.0000
L6.8488 109.0000
" />
<path d="M20.6488 88.0000
L19.3488 88.0000
" />
<path d="M8.1488 88.0000
L6.8488 88.0000
" />
<path d="M20.6488 93.0000
L19.3488 93.0000
" />
<path d="M8.1488 93.0000
L6.8488 93.0000
" />
</g>
<g style="fill:#4D7FC4; fill-opacity:1.0000; stroke:none;">
<circle cx="49.9988" cy="12.0000" r="0.8000" /> 
<circle cx="42.3788" cy="12.0000" r="0.8000" /> 
<path style="fill:#4D7FC4; fill-opacity:1.0000; stroke:none;fill-rule:evenodd;"
d="M 78.7988,21.4500
78.7798,21.3543
78.7256,21.2732
78.6445,21.2190
78.5488,21.2000
77.4488,21.2000
77.3531,21.2190
77.2720,21.2732
77.2178,21.3543
77.1988,21.4500
77.1988,22.5500
77.2178,22.6457
77.2720,22.7268
77.3531,22.7810
77.4488,22.8000
78.5488,22.8000
78.6445,22.7810
78.7256,22.7268
78.7798,22.6457
78.7988,22.5500
Z" /> 
<circle cx="75.9988" cy="22.0000" r="0.8000" /> 
</g>
<g style="fill:none; 
stroke:#4D7FC4; stroke-width:0.4000; stroke-opacity:1; 
stroke-linecap:round; stroke-linejoin:round;">
<path d="M33.9988 14.0000
L43.9988 14.0000
" />
<path d="M25.8706 15.2088
L32.7900 15.2088
" />
<path d="M43.9988 14.0000
L49.9988 20.0000
" />
<path d="M32.7900 15.2088
L33.9988 14.0000
" />
<path d="M26.3788 10.0000
L25.1759 11.2029
" />
<path d="M25.1759 14.5141
L25.8706 15.2088
" />
<path d="M25.1759 11.2029
L25.1759 14.5141
" />
<path d="M65.9988 52.0000
L61.9988 56.0000
" />
<path d="M72.9188 52.0000
L65.9988 52.0000
" />
<path d="M30.3788 39.6200
L37.9988 39.6200
" />
<path d="M56.9188 8.9691
L45.4097 8.9691
" />
<path d="M45.4097 8.9691
L42.3788 12.0000
" />
<path d="M7.4988 109.0000
L19.9988 109.0000
" />
<path d="M56.9188 8.9691
L56.9188 7.0183
" />
<path d="M19.9988 109.0000
L22.0005 109.0000
" />
<path d="M67.0788 8.9691
L67.0788 7.0183
" />
<path d="M75.4588 52.0000
L70.2561 57.2027
" />
<path d="M70.2561 57.2027
L65.9988 57.2027
" />
<path d="M77.9988 10.0000
L76.7471 10.0000
" />
<path d="M67.0788 8.9691
L75.7162 8.9691
" />
<path d="M56.9188 7.0183
L67.0788 7.0183
" />
<path d="M75.4988 75.0000
L87.9988 75.0000
" />
<path d="M67.0788 10.9200
L67.0788 8.9691
" />
<path d="M59.9988 56.1022
L59.9988 56.0000
" />
<path d="M32.9788 106.6400
L63.4588 106.6400
" />
<path d="M31.7088 107.9100
L23.0905 107.9100
" />
<path d="M75.7162 8.9691
L76.7471 10.0000
" />
<path d="M7.4988 93.0000
L19.9988 93.0000
" />
<path d="M65.9988 57.2027
L61.0993 57.2027
" />
<path d="M56.9188 10.9200
L56.9188 8.9691
" />
<path d="M61.0993 57.2027
L59.9988 56.1022
" />
<path d="M32.9788 106.6400
L31.7088 107.9100
" />
<path d="M26.6488 74.8900
L31.7088 74.8900
" />
<path d="M42.3788 12.0000
L28.3788 12.0000
" />
<path d="M68.5388 104.1000
L65.9988 104.1000
" />
<path d="M22.7588 32.0000
L19.9988 32.0000
" />
<path d="M65.9988 66.0000
L65.9988 57.2027
" />
<path d="M23.0905 107.9100
L22.0005 109.0000
" />
<path d="M51.4588 39.6200
L37.9988 39.6200
" />
<path d="M24.9988 76.5400
L26.6488 74.8900
" />
<path d="M63.4588 106.6400
L65.9988 104.1000
" />
<path d="M55.0788 36.0000
L51.4588 39.6200
" />
<path d="M31.7088 74.8900
L32.9788 73.6200
" />
<path d="M28.3788 12.0000
L26.3788 14.0000
" />
<path d="M30.3788 39.6200
L22.7588 32.0000
" />
<path d="M18.7743 31.5152
L18.7743 32.5003
" />
<path d="M19.5260 30.7635
L18.7743 31.5152
" />
<path d="M24.9988 32.0000
L23.7623 30.7635
" />
<path d="M32.2740 46.0000
L32.3788 46.0000
" />
<path d="M23.7623 30.7635
L19.5260 30.7635
" />
<path d="M18.7743 32.5003
L32.2740 46.0000
" />
<path d="M75.4988 70.0000
L73.4971 70.0000
" />
<path d="M68.5388 71.0800
L72.4171 71.0800
" />
<path d="M72.4171 71.0800
L73.4971 70.0000
" />
<path d="M75.4988 70.0000
L87.9988 70.0000
" />
<path d="M24.9988 74.0000
L30.0588 74.0000
" />
<path d="M57.0335 72.3500
L59.5735 69.8100
" />
<path d="M31.7088 72.3500
L57.0335 72.3500
" />
<path d="M30.0588 74.0000
L30.4388 73.6200
" />
<path d="M59.5735 69.8100
L67.2688 69.8100
" />
<path d="M30.4388 73.6200
L31.7088 72.3500
" />
<path d="M67.2688 69.8100
L68.5388 68.5400
" />
<path d="M61.9988 32.0000
L61.9988 30.3483
" />
<path d="M58.4326 26.7821
L61.9988 30.3483
" />
<path d="M60.9848 14.8645
L52.8633 14.8645
" />
<path d="M61.5010 14.3483
L60.9848 14.8645
" />
<path d="M52.8633 14.8645
L49.9988 12.0000
" />
<path d="M61.9988 14.3483
L61.5010 14.3483
" />
<path d="M44.9988 28.0000
L46.2167 26.7821
" />
<path d="M46.2167 26.7821
L58.4326 26.7821
" />
<path d="M61.9988 16.0000
L61.9988 14.3483
" />
<path d="M51.5078 34.4910
L59.1595 34.4910
" />
<path d="M49.9988 36.0000
L51.5078 34.4910
" />
<path d="M59.9988 32.0000
L59.9988 33.6517
" />
<path d="M59.1595 34.4910
L59.9988 33.6517
" />
<path d="M57.9988 30.3483
L55.6505 28.0000
" />
<path d="M57.9988 32.0000
L57.9988 30.3483
" />
<path d="M55.6505 28.0000
L49.9988 28.0000
" />
<path d="M30.4388 81.2400
L27.9188 81.2400
" />
<path d="M27.9188 81.2400
L24.9988 84.1600
" />
<path d="M24.9988 81.6200
L26.6488 79.9700
" />
<path d="M31.7088 79.9700
L32.9788 81.2400
" />
<path d="M26.6488 79.9700
L31.7088 79.9700
" />
<path d="M29.8088 85.0500
L31.7088 85.0500
" />
<path d="M24.4353 85.4300
L29.4288 85.4300
" />
<path d="M31.7088 85.0500
L32.9788 83.7800
" />
<path d="M23.6616 80.4172
L23.6616 84.6563
" />
<path d="M29.4288 85.4300
L29.8088 85.0500
" />
<path d="M23.6616 84.6563
L24.4353 85.4300
" />
<path d="M24.9988 79.0800
L23.6616 80.4172
" />
<path d="M33.5225 90.1300
L25.8888 90.1300
" />
<path d="M34.3127 89.3398
L33.5225 90.1300
" />
<path d="M32.9788 86.3200
L34.3127 87.6539
" />
<path d="M25.8888 90.1300
L24.9988 89.2400
" />
<path d="M34.3127 87.6539
L34.3127 89.3398
" />
<path d="M25.8888 87.5900
L31.7088 87.5900
" />
<path d="M31.7088 87.5900
L32.9788 88.8600
" />
<path d="M24.9988 86.7000
L25.8888 87.5900
" />
<path d="M30.4388 96.4800
L27.8916 96.4800
" />
<path d="M22.0005 90.5889
L22.0005 88.0000
" />
<path d="M19.9988 88.0000
L22.0005 88.0000
" />
<path d="M7.4988 88.0000
L19.9988 88.0000
" />
<path d="M27.8916 96.4800
L22.0005 90.5889
" />
<path d="M31.7088 97.7500
L28.2505 97.7500
" />
<path d="M32.9788 96.4800
L31.7088 97.7500
" />
<path d="M28.2505 97.7500
L22.0005 104.0000
" />
<path d="M19.9988 104.0000
L22.0005 104.0000
" />
<path d="M7.4988 104.0000
L19.9988 104.0000
" />
<path style="fill:none; 
stroke:#D0D2CD; stroke-width:0.1000; stroke-opacity:1; 
stroke-linecap:round; stroke-linejoin:round;fill:none"
d="M 91.9988,0.0000
-0.0012,0.0000
-0.0012,118.0000
91.9988,118.0000
Z" /> 
</g>
<g style="fill:#FFFFFF; fill-opacity:1.0000; stroke:none;">
<circle cx="49.9988" cy="20.0000" r="0.4000" /> 
</g>
<g style="fill:#FFFFFF; fill-opacity:1.0000; stroke:none;">
<circle cx="42.3788" cy="20.0000" r="0.4000" /> 
</g>
<g style="fill:#FFFFFF; fill-opacity:1.0000; stroke:none;">
<circle cx="61.9988" cy="56.0000" r="0.4000" /> 
</g>
<g style="fill:#FFFFFF; fill-opacity:1.0000; stroke:none;">
<circle cx="59.9988" cy="56.0000" r="0.4000" /> 
</g>
<g style="fill:#FFFFFF; fill-opacity:1.0000; stroke:none;">
<circle cx="39.9988" cy="46.0000" r="0.4000" /> 
</g>
<g style="fill:#FFFFFF; fill-opacity:1.0000; stroke:none;">
<circle cx="32.3788" cy="46.0000" r="0.4000" /> 
</g>
<g style="fill:#FFFFFF; fill-opacity:1.0000; stroke:none;">
<circle cx="24.9988" cy="32.0000" r="0.4000" /> 
</g>
<g style="fill:#FFFFFF; fill-opacity:1.0000; stroke:none;">
<circle cx="19.9988" cy="32.0000" r="0.4000" /> 
</g>
<g style="fill:#FFFFFF; fill-opacity:1.0000; stroke:none;">
<circle cx="87.9988" cy="70.0000" r="0.6500" /> 
</g>
<g style="fill:#FFFFFF; fill-opacity:1.0000; stroke:none;">
<circle cx="75.4988" cy="70.0000" r="0.6500" /> 
</g>
<g style="fill:#FFFFFF; fill-opacity:1.0000; stroke:none;">
<circle cx="87.9988" cy="75.0000" r="0.6500" /> 
</g>
<g style="fill:#FFFFFF; fill-opacity:1.0000; stroke:none;">
<circle cx="75.4988" cy="75.0000" r="0.6500" /> 
</g>
<g style="fill:#FFFFFF; fill-opacity:1.0000; stroke:none;">
<circle cx="37.9988" cy="32.0000" r="0.4000" /> 
</g>
<g style="fill:#FFFFFF; fill-opacity:1.0000; stroke:none;">
<circle cx="37.9988" cy="34.5400" r="0.4000" /> 
</g>
<g style="fill:#FFFFFF; fill-opacity:1.0000; stroke:none;">
<circle cx="37.9988" cy="37.0800" r="0.4000" /> 
</g>
<g style="fill:#FFFFFF; fill-opacity:1.0000; stroke:none;">
<circle cx="37.9988" cy="39.6200" r="0.4000" /> 
</g>
<g style="fill:#FFFFFF; fill-opacity:1.0000; stroke:none;">
<circle cx="30.3788" cy="39.6200" r="0.4000" /> 
</g>
<g style="fill:#FFFFFF; fill-opacity:1.0000; stroke:none;">
<circle cx="30.3788" cy="37.0800" r="0.4000" /> 
</g>
<g style="fill:#FFFFFF; fill-opacity:1.0000; stroke:none;">
<circle cx="30.3788" cy="34.5400" r="0.4000" /> 
</g>
<g style="fill:#FFFFFF; fill-opacity:1.0000; stroke:none;">
<circle cx="30.3788" cy="32.0000" r="0.4000" /> 
</g>
<g style="fill:#FFFFFF; fill-opacity:1.0000; stroke:none;">
<circle cx="77.9988" cy="10.0000" r="0.5000" /> 
</g>
<g style="fill:#FFFFFF; fill-opacity:1.0000; stroke:none;">
<circle cx="77.9988" cy="12.5400" r="0.5000" /> 
</g>
<g style="fill:#FFFFFF; fill-opacity:1.0000; stroke:none;">
<circle cx="65.9988" cy="66.0000" r="0.5000" /> 
</g>
<g style="fill:#FFFFFF; fill-opacity:1.0000; stroke:none;">
<circle cx="68.5388" cy="66.0000" r="0.5000" /> 
</g>
<g style="fill:#FFFFFF; fill-opacity:1.0000; stroke:none;">
<circle cx="65.9988" cy="68.5400" r="0.5000" /> 
</g>
<g style="fill:#FFFFFF; fill-opacity:1.0000; stroke:none;">
<circle cx="68.5388" cy="68.5400" r="0.5000" /> 
</g>
<g style="fill:#FFFFFF; fill-opacity:1.0000; stroke:none;">
<circle cx="65.9988" cy="71.0800" r="0.5000" /> 
</g>
<g style="fill:#FFFFFF; fill-opacity:1.0000; stroke:none;">
<circle cx="68.5388" cy="71.0800" r="0.5000" /> 
</g>
<g style="fill:#FFFFFF; fill-opacity:1.0000; stroke:none;">
<circle cx="65.9988" cy="73.6200" r="0.5000" /> 
</g>
<g style="fill:#FFFFFF; fill-opacity:1.0000; stroke:none;">
<circle cx="68.5388" cy="73.6200" r="0.5000" /> 
</g>
<g style="fill:#FFFFFF; fill-opacity:1.0000; stroke:none;">
<circle cx="65.9988" cy="76.1600" r="0.5000" /> 
</g>
<g style="fill:#FFFFFF; fill-opacity:1.0000; stroke:none;">
<circle cx="68.5388" cy="76.1600" r="0.5000" /> 
</g>
<g style="fill:#FFFFFF; fill-opacity:1.0000; stroke:none;">
<circle cx="65.9988" cy="78.7000" r="0.5000" /> 
</g>
<g style="fill:#FFFFFF; fill-opacity:1.0000; stroke:none;">
<circle cx="68.5388" cy="78.7000" r="0.5000" /> 
</g>
<g style="fill:#FFFFFF; fill-opacity:1.0000; stroke:none;">
<circle cx="65.9988" cy="81.2400" r="0.5000" /> 
</g>
<g style="fill:#FFFFFF; fill-opacity:1.0000; stroke:none;">
<circle cx="68.5388" cy="81.2400" r="0.5000" /> 
</g>
<g style="fill:#FFFFFF; fill-opacity:1.0000; stroke:none;">
<circle cx="65.9988" cy="83.7800" r="0.5000" /> 
</g>
<g style="fill:#FFFFFF; fill-opacity:1.0000; stroke:none;">
<circle cx="68.5388" cy="83.7800" r="0.5000" /> 
</g>
<g style="fill:#FFFFFF; fill-opacity:1.0000; stroke:none;">
<circle cx="65.9988" cy="86.3200" r="0.5000" /> 
</g>
<g style="fill:#FFFFFF; fill-opacity:1.0000; stroke:none;">
<circle cx="68.5388" cy="86.3200" r="0.5000" /> 
</g>
<g style="fill:#FFFFFF; fill-opacity:1.0000; stroke:none;">
<circle cx="65.9988" cy="88.8600" r="0.5000" /> 
</g>
<g style="fill:#FFFFFF; fill-opacity:1.0000; stroke:none;">
<circle cx="68.5388" cy="88.8600" r="0.5000" /> 
</g>
<g style="fill:#FFFFFF; fill-opacity:1.0000; stroke:none;">
<circle cx="65.9988" cy="91.4000" r="0.5000" /> 
</g>
<g style="fill:#FFFFFF; fill-opacity:1.0000; stroke:none;">
<circle cx="68.5388" cy="91.4000" r="0.5000" /> 
</g>
<g style="fill:#FFFFFF; fill-opacity:1.0000; stroke:none;">
<circle cx="65.9988" cy="93.9400" r="0.5000" /> 
</g>
<g style="fill:#FFFFFF; fill-opacity:1.0000; stroke:none;">
<circle cx="68.5388" cy="93.9400" r="0.5000" /> 
</g>
<g style="fill:#FFFFFF; fill-opacity:1.0000; stroke:none;">
<circle cx="65.9988" cy="96.4800" r="0.5000" /> 
</g>
<g style="fill:#FFFFFF; fill-opacity:1.0000; stroke:none;">
<circle cx="68.5388" cy="96.4800" r="0.5000" /> 
</g>
<g style="fill:#FFFFFF; fill-opacity:1.0000; stroke:none;">
<circle cx="65.9988" cy="99.0200" r="0.5000" /> 
</g>
<g style="fill:#FFFFFF; fill-opacity:1.0000; stroke:none;">
<circle cx="68.5388" cy="99.0200" r="0.5000" /> 
</g>
<g style="fill:#FFFFFF; fill-opacity:1.0000; stroke:none;">
<circle cx="65.9988" cy="101.5600" r="0.5000" /> 
</g>
<g style="fill:#FFFFFF; fill-opacity:1.0000; stroke:none;">
<circle cx="68.5388" cy="101.5600" r="0.5000" /> 
</g>
<g style="fill:#FFFFFF; fill-opacity:1.0000; stroke:none;">
<circle cx="65.9988" cy="104.1000" r="0.5000" /> 
</g>
<g style="fill:#FFFFFF; fill-opacity:1.0000; stroke:none;">
<circle cx="68.5388" cy="104.1000" r="0.5000" /> 
</g>
<g style="fill:#FFFFFF; fill-opacity:1.0000; stroke:none;">
<circle cx="64.0988" cy="32.0000" r="0.7500" /> 
</g>
<g style="fill:#FFFFFF; fill-opacity:1.0000; stroke:none;">
<circle cx="55.8988" cy="32.0000" r="0.7500" /> 
</g>
<g style="fill:#FFFFFF; fill-opacity:1.0000; stroke:none;">
<circle cx="61.9988" cy="32.0000" r="0.4000" /> 
</g>
<g style="fill:#FFFFFF; fill-opacity:1.0000; stroke:none;">
<circle cx="59.9988" cy="32.0000" r="0.4000" /> 
</g>
<g style="fill:#FFFFFF; fill-opacity:1.0000; stroke:none;">
<circle cx="57.9988" cy="32.0000" r="0.4000" /> 
</g>
<g style="fill:#FFFFFF; fill-opacity:1.0000; stroke:none;">
<circle cx="30.4388" cy="66.0000" r="0.5000" /> 
</g>
<g style="fill:#FFFFFF; fill-opacity:1.0000; stroke:none;">
<circle cx="32.9788" cy="66.0000" r="0.5000" /> 
</g>
<g style="fill:#FFFFFF; fill-opacity:1.0000; stroke:none;">
<circle cx="30.4388" cy="68.5400" r="0.5000" /> 
</g>
<g style="fill:#FFFFFF; fill-opacity:1.0000; stroke:none;">
<circle cx="32.9788" cy="68.5400" r="0.5000" /> 
</g>
<g style="fill:#FFFFFF; fill-opacity:1.0000; stroke:none;">
<circle cx="30.4388" cy="71.0800" r="0.5000" /> 
</g>
<g style="fill:#FFFFFF; fill-opacity:1.0000; stroke:none;">
<circle cx="32.9788" cy="71.0800" r="0.5000" /> 
</g>
<g style="fill:#FFFFFF; fill-opacity:1.0000; stroke:none;">
<circle cx="30.4388" cy="73.6200" r="0.5000" /> 
</g>
<g style="fill:#FFFFFF; fill-opacity:1.0000; stroke:none;">
<circle cx="32.9788" cy="73.6200" r="0.5000" /> 
</g>
<g style="fill:#FFFFFF; fill-opacity:1.0000; stroke:none;">
<circle cx="30.4388" cy="76.1600" r="0.5000" /> 
</g>
<g style="fill:#FFFFFF; fill-opacity:1.0000; stroke:none;">
<circle cx="32.9788" cy="76.1600" r="0.5000" /> 
</g>
<g style="fill:#FFFFFF; fill-opacity:1.0000; stroke:none;">
<circle cx="30.4388" cy="78.7000" r="0.5000" /> 
</g>
<g style="fill:#FFFFFF; fill-opacity:1.0000; stroke:none;">
<circle cx="32.9788" cy="78.7000" r="0.5000" /> 
</g>
<g style="fill:#FFFFFF; fill-opacity:1.0000; stroke:none;">
<circle cx="30.4388" cy="81.2400" r="0.5000" /> 
</g>
<g style="fill:#FFFFFF; fill-opacity:1.0000; stroke:none;">
<circle cx="32.9788" cy="81.2400" r="0.5000" /> 
</g>
<g style="fill:#FFFFFF; fill-opacity:1.0000; stroke:none;">
<circle cx="30.4388" cy="83.7800" r="0.5000" /> 
</g>
<g style="fill:#FFFFFF; fill-opacity:1.0000; stroke:none;">
<circle cx="32.9788" cy="83.7800" r="0.5000" /> 
</g>
<g style="fill:#FFFFFF; fill-opacity:1.0000; stroke:none;">
<circle cx="30.4388" cy="86.3200" r="0.5000" /> 
</g>
<g style="fill:#FFFFFF; fill-opacity:1.0000; stroke:none;">
<circle cx="32.9788" cy="86.3200" r="0.5000" /> 
</g>
<g style="fill:#FFFFFF; fill-opacity:1.0000; stroke:none;">
<circle cx="30.4388" cy="88.8600" r="0.5000" /> 
</g>
<g style="fill:#FFFFFF; fill-opacity:1.0000; stroke:none;">
<circle cx="32.9788" cy="88.8600" r="0.5000" /> 
</g>
<g style="fill:#FFFFFF; fill-opacity:1.0000; stroke:none;">
<circle cx="30.4388" cy="91.4000" r="0.5000" /> 
</g>
<g style="fill:#FFFFFF; fill-opacity:1.0000; stroke:none;">
<circle cx="32.9788" cy="91.4000" r="0.5000" /> 
</g>
<g style="fill:#FFFFFF; fill-opacity:1.0000; stroke:none;">
<circle cx="30.4388" cy="93.9400" r="0.5000" /> 
</g>
<g style="fill:#FFFFFF; fill-opacity:1.0000; stroke:none;">
<circle cx="32.9788" cy="93.9400" r="0.5000" /> 
</g>
<g style="fill:#FFFFFF; fill-opacity:1.0000; stroke:none;">
<circle cx="30.4388" cy="96.4800" r="0.5000" /> 
</g>
<g style="fill:#FFFFFF; fill-opacity:1.0000; stroke:none;">
<circle cx="32.9788" cy="96.4800" r="0.5000" /> 
</g>
<g style="fill:#FFFFFF; fill-opacity:1.0000; stroke:none;">
<circle cx="30.4388" cy="99.0200" r="0.5000" /> 
</g>
<g style="fill:#FFFFFF; fill-opacity:1.0000; stroke:none;">
<circle cx="32.9788" cy="99.0200" r="0.5000" /> 
</g>
<g style="fill:#FFFFFF; fill-opacity:1.0000; stroke:none;">
<circle cx="30.4388" cy="101.5600" r="0.5000" /> 
</g>
<g style="fill:#FFFFFF; fill-opacity:1.0000; stroke:none;">
<circle cx="32.9788" cy="101.5600" r="0.5000" /> 
</g>
<g style="fill:#FFFFFF; fill-opacity:1.0000; stroke:none;">
<circle cx="30.4388" cy="104.1000" r="0.5000" /> 
</g>
<g style="fill:#FFFFFF; fill-opacity:1.0000; stroke:none;">
<circle cx="32.9788" cy="104.1000" r="0.5000" /> 
</g>
<g style="fill:#FFFFFF; fill-opacity:1.0000; stroke:none;">
<circle cx="30.4388" cy="106.6400" r="0.5000" /> 
</g>
<g style="fill:#FFFFFF; fill-opacity:1.0000; stroke:none;">
<circle cx="32.9788" cy="106.6400" r="0.5000" /> 
</g>
<g style="fill:#FFFFFF; fill-opacity:1.0000; stroke:none;">
<circle cx="30.4388" cy="109.1800" r="0.5000" /> 
</g>
<g style="fill:#FFFFFF; fill-opacity:1.0000; stroke:none;">
<circle cx="32.9788" cy="109.1800" r="0.5000" /> 
</g>
<g style="fill:#FFFFFF; fill-opacity:1.0000; stroke:none;">
<circle cx="61.9988" cy="16.0000" r="0.4450" /> 
</g>
<g style="fill:#FFFFFF; fill-opacity:1.0000; stroke:none;">
<circle cx="67.0788" cy="10.9200" r="1.0050" /> 
</g>
<g style="fill:#FFFFFF; fill-opacity:1.0000; stroke:none;">
<circle cx="64.5388" cy="16.0000" r="0.4450" /> 
</g>
<g style="fill:#FFFFFF; fill-opacity:1.0000; stroke:none;">
<circle cx="56.9188" cy="10.9200" r="1.0050" /> 
</g>
<g style="fill:#000000; fill-opacity:1.0000; stroke:none;">
<circle cx="75.4588" cy="35.3400" r="1.7500" /> 
</g>
<g style="fill:#FFFFFF; fill-opacity:1.0000; stroke:none;">
<circle cx="77.9988" cy="52.0000" r="0.5500" /> 
</g>
<g style="fill:#FFFFFF; fill-opacity:1.0000; stroke:none;">
<circle cx="75.4588" cy="52.0000" r="0.5500" /> 
</g>
<g style="fill:#FFFFFF; fill-opacity:1.0000; stroke:none;">
<circle cx="72.9188" cy="52.0000" r="0.5500" /> 
</g>
<g style="fill:#FFFFFF; fill-opacity:1.0000; stroke:none;">
<circle cx="49.9988" cy="36.0000" r="0.4000" /> 
</g>
<g style="fill:#FFFFFF; fill-opacity:1.0000; stroke:none;">
<circle cx="52.5388" cy="36.0000" r="0.4000" /> 
</g>
<g style="fill:#FFFFFF; fill-opacity:1.0000; stroke:none;">
<circle cx="55.0788" cy="36.0000" r="0.4000" /> 
</g>
<g style="fill:#FFFFFF; fill-opacity:1.0000; stroke:none;">
<circle cx="24.9988" cy="74.0000" r="0.5000" /> 
</g>
<g style="fill:#FFFFFF; fill-opacity:1.0000; stroke:none;">
<circle cx="24.9988" cy="76.5400" r="0.5000" /> 
</g>
<g style="fill:#FFFFFF; fill-opacity:1.0000; stroke:none;">
<circle cx="24.9988" cy="79.0800" r="0.5000" /> 
</g>
<g style="fill:#FFFFFF; fill-opacity:1.0000; stroke:none;">
<circle cx="24.9988" cy="81.6200" r="0.5000" /> 
</g>
<g style="fill:#FFFFFF; fill-opacity:1.0000; stroke:none;">
<circle cx="24.9988" cy="84.1600" r="0.5000" /> 
</g>
<g style="fill:#FFFFFF; fill-opacity:1.0000; stroke:none;">
<circle cx="24.9988" cy="86.7000" r="0.5000" /> 
</g>
<g style="fill:#FFFFFF; fill-opacity:1.0000; stroke:none;">
<circle cx="24.9988" cy="89.2400" r="0.5000" /> 
</g>
<g style="fill:#FFFFFF; fill-opacity:1.0000; stroke:none;">
<circle cx="24.9988" cy="91.7800" r="0.5000" /> 
</g>
<g style="fill:#FFFFFF; fill-opacity:1.0000; stroke:none;">
<circle cx="33.9988" cy="14.0000" r="0.4000" /> 
</g>
<g style="fill:#FFFFFF; fill-opacity:1.0000; stroke:none;">
<circle cx="26.3788" cy="14.0000" r="0.4000" /> 
</g>
<g style="fill:#FFFFFF; fill-opacity:1.0000; stroke:none;">
<circle cx="49.9988" cy="28.0000" r="0.4000" /> 
</g>
<g style="fill:#FFFFFF; fill-opacity:1.0000; stroke:none;">
<circle cx="44.9988" cy="28.0000" r="0.4000" /> 
</g>
<g style="fill:#FFFFFF; fill-opacity:1.0000; stroke:none;">
<circle cx="33.9988" cy="10.0000" r="0.4000" /> 
</g>
<g style="fill:#FFFFFF; fill-opacity:1.0000; stroke:none;">
<circle cx="26.3788" cy="10.0000" r="0.4000" /> 
</g>
<g style="fill:#FFFFFF; fill-opacity:1.0000; stroke:none;">
<circle cx="19.9988" cy="104.0000" r="0.6500" /> 
</g>
<g style="fill:#FFFFFF; fill-opacity:1.0000; stroke:none;">
<circle cx="7.4988" cy="104.0000" r="0.6500" /> 
</g>
<g style="fill:#FFFFFF; fill-opacity:1.0000; stroke:none;">
<circle cx="19.9988" cy="109.0000" r="0.6500" /> 
</g>
<g style="fill:#FFFFFF; fill-opacity:1.0000; stroke:none;">
<circle cx="7.4988" cy="109.0000" r="0.6500" /> 
</g>
<g style="fill:#FFFFFF; fill-opacity:1.0000; stroke:none;">
<circle cx="19.9988" cy="88.0000" r="0.6500" /> 
</g>
<g style="fill:#FFFFFF; fill-opacity:1.0000; stroke:none;">
<circle cx="7.4988" cy="88.0000" r="0.6500" /> 
</g>
<g style="fill:#FFFFFF; fill-opacity:1.0000; stroke:none;">
<circle cx="19.9988" cy="93.0000" r="0.6500" /> 
</g>
<g style="fill:#FFFFFF; fill-opacity:1.0000; stroke:none;">
<circle cx="7.4988" cy="93.0000" r="0.6500" /> 
</g>
<g style="fill:#FFFFFF; fill-opacity:1.0000; stroke:none;">
<circle cx="49.9988" cy="12.0000" r="0.4000" /> 
</g>
<g style="fill:#FFFFFF; fill-opacity:1.0000; stroke:none;">
<circle cx="42.3788" cy="12.0000" r="0.4000" /> 
</g>
<g style="fill:#FFFFFF; fill-opacity:1.0000; stroke:none;">
<circle cx="77.9988" cy="22.0000" r="0.4000" /> 
</g>
<g style="fill:#FFFFFF; fill-opacity:1.0000; stroke:none;">
<circle cx="75.9988" cy="22.0000" r="0.4000" /> 
</g> 
</svg>
