%TF.GenerationSoftware,KiCad,Pcbnew,10.0.3*%
%TF.CreationDate,2026-06-18T18:48:07+05:30*%
%TF.ProjectId,fullScope,66756c6c-5363-46f7-9065-2e6b69636164,rev?*%
%TF.SameCoordinates,Original*%
%TF.FileFunction,Copper,L2,Bot*%
%TF.FilePolarity,Positive*%
%FSLAX46Y46*%
G04 Gerber Fmt 4.6, Leading zero omitted, Abs format (unit mm)*
G04 Created by KiCad (PCBNEW 10.0.3) date 2026-06-18 18:48:07*
%MOMM*%
%LPD*%
G01*
G04 APERTURE LIST*
G04 Aperture macros list*
%AMRoundRect*
0 Rectangle with rounded corners*
0 $1 Rounding radius*
0 $2 $3 $4 $5 $6 $7 $8 $9 X,Y pos of 4 corners*
0 Add a 4 corners polygon primitive as box body*
4,1,4,$2,$3,$4,$5,$6,$7,$8,$9,$2,$3,0*
0 Add four circle primitives for the rounded corners*
1,1,$1+$1,$2,$3*
1,1,$1+$1,$4,$5*
1,1,$1+$1,$6,$7*
1,1,$1+$1,$8,$9*
0 Add four rect primitives between the rounded corners*
20,1,$1+$1,$2,$3,$4,$5,0*
20,1,$1+$1,$4,$5,$6,$7,0*
20,1,$1+$1,$6,$7,$8,$9,0*
20,1,$1+$1,$8,$9,$2,$3,0*%
G04 Aperture macros list end*
%TA.AperFunction,ComponentPad*%
%ADD10C,1.600000*%
%TD*%
%TA.AperFunction,ComponentPad*%
%ADD11RoundRect,0.250000X-0.550000X-0.550000X0.550000X-0.550000X0.550000X0.550000X-0.550000X0.550000X0*%
%TD*%
%TA.AperFunction,ComponentPad*%
%ADD12O,3.200000X1.900000*%
%TD*%
%TA.AperFunction,ComponentPad*%
%ADD13R,1.700000X1.700000*%
%TD*%
%TA.AperFunction,ComponentPad*%
%ADD14C,1.700000*%
%TD*%
%TA.AperFunction,ComponentPad*%
%ADD15O,2.200000X3.500000*%
%TD*%
%TA.AperFunction,ComponentPad*%
%ADD16R,1.500000X2.500000*%
%TD*%
%TA.AperFunction,ComponentPad*%
%ADD17O,1.500000X2.500000*%
%TD*%
%TA.AperFunction,ComponentPad*%
%ADD18O,1.600000X2.500000*%
%TD*%
%TA.AperFunction,ComponentPad*%
%ADD19O,3.500000X7.000000*%
%TD*%
%TA.AperFunction,ComponentPad*%
%ADD20R,1.905000X2.000000*%
%TD*%
%TA.AperFunction,ComponentPad*%
%ADD21O,1.905000X2.000000*%
%TD*%
%TA.AperFunction,ComponentPad*%
%ADD22C,1.440000*%
%TD*%
%TA.AperFunction,Conductor*%
%ADD23C,0.400000*%
%TD*%
G04 APERTURE END LIST*
D10*
%TO.P,R4,1*%
%TO.N,Net-(D1-COM)*%
X116000000Y-54000000D03*
%TO.P,R4,2*%
%TO.N,Net-(R4-Pad2)*%
X123620000Y-54000000D03*
%TD*%
D11*
%TO.P,C2,1*%
%TO.N,+5V*%
X104000000Y-90000000D03*
D10*
%TO.P,C2,2*%
%TO.N,GND*%
X106000000Y-90000000D03*
%TD*%
%TO.P,R5,1*%
%TO.N,Net-(U1A--)*%
X126000000Y-80000000D03*
%TO.P,R5,2*%
%TO.N,FE_OUT*%
X133620000Y-80000000D03*
%TD*%
%TO.P,C4,1*%
%TO.N,FE_OUT*%
X141000000Y-66000000D03*
%TO.P,C4,2*%
%TO.N,GND*%
X146000000Y-66000000D03*
%TD*%
D12*
%TO.P,SW1,1,1_1*%
%TO.N,BTN1*%
X78000000Y-104000000D03*
X90500000Y-104000000D03*
%TO.P,SW1,2,2_2*%
%TO.N,GND*%
X78000000Y-109000000D03*
X90500000Y-109000000D03*
%TD*%
D11*
%TO.P,U1,1*%
%TO.N,Net-(U1A--)*%
X128000000Y-66000000D03*
D10*
%TO.P,U1,2,-_2*%
X128000000Y-68540000D03*
%TO.P,U1,3,+_3*%
%TO.N,Net-(D1-COM)*%
X128000000Y-71080000D03*
%TO.P,U1,4,V-_4*%
%TO.N,GND*%
X128000000Y-73620000D03*
%TO.P,U1,5,+_5*%
X135620000Y-73620000D03*
%TO.P,U1,6,-_6*%
%TO.N,Net-(U1B--)*%
X135620000Y-71080000D03*
%TO.P,U1,7*%
X135620000Y-68540000D03*
%TO.P,U1,8,V+_8*%
%TO.N,+3.3V*%
X135620000Y-66000000D03*
%TD*%
D13*
%TO.P,J5,1,Pin_1_1*%
%TO.N,GND*%
X88000000Y-44000000D03*
D14*
%TO.P,J5,2,Pin_2_2*%
%TO.N,+9V*%
X88000000Y-46540000D03*
%TD*%
D13*
%TO.P,J2,1,Pin_1_1*%
%TO.N,GND*%
X100000000Y-100000000D03*
D14*
%TO.P,J2,2,Pin_2_2*%
%TO.N,+5V*%
X97460000Y-100000000D03*
%TO.P,J2,3,Pin_3_3*%
%TO.N,GND*%
X100000000Y-102540000D03*
%TO.P,J2,4,Pin_4_4*%
%TO.N,+3.3V*%
X97460000Y-102540000D03*
%TO.P,J2,5,Pin_5_5*%
%TO.N,unconnected-(J2-Pin_5-Pad5)*%
X100000000Y-105080000D03*
%TO.P,J2,6,Pin_6_6*%
%TO.N,BTN1*%
X97460000Y-105080000D03*
%TO.P,J2,7,Pin_7_7*%
%TO.N,unconnected-(J2-Pin_7-Pad7)*%
X100000000Y-107620000D03*
%TO.P,J2,8,Pin_8_8*%
%TO.N,unconnected-(J2-Pin_8-Pad8)*%
X97460000Y-107620000D03*
%TO.P,J2,9,Pin_9_9*%
%TO.N,unconnected-(J2-Pin_9-Pad9)*%
X100000000Y-110160000D03*
%TO.P,J2,10,Pin_10_10*%
%TO.N,unconnected-(J2-Pin_10-Pad10)*%
X97460000Y-110160000D03*
%TO.P,J2,11,Pin_11_11*%
%TO.N,unconnected-(J2-Pin_11-Pad11)*%
X100000000Y-112700000D03*
%TO.P,J2,12,Pin_12_12*%
%TO.N,unconnected-(J2-Pin_12-Pad12)*%
X97460000Y-112700000D03*
%TO.P,J2,13,Pin_13_13*%
%TO.N,unconnected-(J2-Pin_13-Pad13)*%
X100000000Y-115240000D03*
%TO.P,J2,14,Pin_14_14*%
%TO.N,unconnected-(J2-Pin_14-Pad14)*%
X97460000Y-115240000D03*
%TO.P,J2,15,Pin_15_15*%
%TO.N,unconnected-(J2-Pin_15-Pad15)*%
X100000000Y-117780000D03*
%TO.P,J2,16,Pin_16_16*%
%TO.N,unconnected-(J2-Pin_16-Pad16)*%
X97460000Y-117780000D03*
%TO.P,J2,17,Pin_17_17*%
%TO.N,unconnected-(J2-Pin_17-Pad17)*%
X100000000Y-120320000D03*
%TO.P,J2,18,Pin_18_18*%
%TO.N,unconnected-(J2-Pin_18-Pad18)*%
X97460000Y-120320000D03*
%TO.P,J2,19,Pin_19_19*%
%TO.N,unconnected-(J2-Pin_19-Pad19)*%
X100000000Y-122860000D03*
%TO.P,J2,20,Pin_20_20*%
%TO.N,unconnected-(J2-Pin_20-Pad20)*%
X97460000Y-122860000D03*
%TO.P,J2,21,Pin_21_21*%
%TO.N,unconnected-(J2-Pin_21-Pad21)*%
X100000000Y-125400000D03*
%TO.P,J2,22,Pin_22_22*%
%TO.N,unconnected-(J2-Pin_22-Pad22)*%
X97460000Y-125400000D03*
%TO.P,J2,23,Pin_23_23*%
%TO.N,unconnected-(J2-Pin_23-Pad23)*%
X100000000Y-127940000D03*
%TO.P,J2,24,Pin_24_24*%
%TO.N,unconnected-(J2-Pin_24-Pad24)*%
X97460000Y-127940000D03*
%TO.P,J2,25,Pin_25_25*%
%TO.N,unconnected-(J2-Pin_25-Pad25)*%
X100000000Y-130480000D03*
%TO.P,J2,26,Pin_26_26*%
%TO.N,unconnected-(J2-Pin_26-Pad26)*%
X97460000Y-130480000D03*
%TO.P,J2,27,Pin_27_27*%
%TO.N,unconnected-(J2-Pin_27-Pad27)*%
X100000000Y-133020000D03*
%TO.P,J2,28,Pin_28_28*%
%TO.N,unconnected-(J2-Pin_28-Pad28)*%
X97460000Y-133020000D03*
%TO.P,J2,29,Pin_29_29*%
%TO.N,unconnected-(J2-Pin_29-Pad29)*%
X100000000Y-135560000D03*
%TO.P,J2,30,Pin_30_30*%
%TO.N,unconnected-(J2-Pin_30-Pad30)*%
X97460000Y-135560000D03*
%TO.P,J2,31,Pin_31_31*%
%TO.N,GND*%
X100000000Y-138100000D03*
%TO.P,J2,32,Pin_32_32*%
X97460000Y-138100000D03*
%TD*%
D15*
%TO.P,SW4,*%
%TO.N,*%
X101900000Y-66000000D03*
X110100000Y-66000000D03*
D16*
%TO.P,SW4,1,A_1*%
%TO.N,IN+*%
X104000000Y-66000000D03*
D17*
%TO.P,SW4,2,B_2*%
%TO.N,Net-(SW4-B)*%
X106000000Y-66000000D03*
%TO.P,SW4,3,C_3*%
%TO.N,Net-(SW4-C)*%
X108000000Y-66000000D03*
%TD*%
D13*
%TO.P,J4,1,Pin_1_1*%
%TO.N,unconnected-(J4-Pin_1-Pad1)*%
X135560000Y-100000000D03*
D14*
%TO.P,J4,2,Pin_2_2*%
%TO.N,unconnected-(J4-Pin_2-Pad2)*%
X133020000Y-100000000D03*
%TO.P,J4,3,Pin_3_3*%
%TO.N,unconnected-(J4-Pin_3-Pad3)*%
X135560000Y-102540000D03*
%TO.P,J4,4,Pin_4_4*%
%TO.N,unconnected-(J4-Pin_4-Pad4)*%
X133020000Y-102540000D03*
%TO.P,J4,5,Pin_5_5*%
%TO.N,unconnected-(J4-Pin_5-Pad5)*%
X135560000Y-105080000D03*
%TO.P,J4,6,Pin_6_6*%
%TO.N,unconnected-(J4-Pin_6-Pad6)*%
X133020000Y-105080000D03*
%TO.P,J4,7,Pin_7_7*%
%TO.N,+3.3V*%
X135560000Y-107620000D03*
%TO.P,J4,8,Pin_8_8*%
%TO.N,GND*%
X133020000Y-107620000D03*
%TO.P,J4,9,Pin_9_9*%
%TO.N,unconnected-(J4-Pin_9-Pad9)*%
X135560000Y-110160000D03*
%TO.P,J4,10,Pin_10_10*%
%TO.N,unconnected-(J4-Pin_10-Pad10)*%
X133020000Y-110160000D03*
%TO.P,J4,11,Pin_11_11*%
%TO.N,unconnected-(J4-Pin_11-Pad11)*%
X135560000Y-112700000D03*
%TO.P,J4,12,Pin_12_12*%
%TO.N,FE_OUT*%
X133020000Y-112700000D03*
%TO.P,J4,13,Pin_13_13*%
%TO.N,DC*%
X135560000Y-115240000D03*
%TO.P,J4,14,Pin_14_14*%
%TO.N,RES*%
X133020000Y-115240000D03*
%TO.P,J4,15,Pin_15_15*%
%TO.N,unconnected-(J4-Pin_15-Pad15)*%
X135560000Y-117780000D03*
%TO.P,J4,16,Pin_16_16*%
%TO.N,CS*%
X133020000Y-117780000D03*
%TO.P,J4,17,Pin_17_17*%
%TO.N,unconnected-(J4-Pin_17-Pad17)*%
X135560000Y-120320000D03*
%TO.P,J4,18,Pin_18_18*%
%TO.N,SCK*%
X133020000Y-120320000D03*
%TO.P,J4,19,Pin_19_19*%
%TO.N,unconnected-(J4-Pin_19-Pad19)*%
X135560000Y-122860000D03*
%TO.P,J4,20,Pin_20_20*%
%TO.N,MOSI*%
X133020000Y-122860000D03*
%TO.P,J4,21,Pin_21_21*%
%TO.N,unconnected-(J4-Pin_21-Pad21)*%
X135560000Y-125400000D03*
%TO.P,J4,22,Pin_22_22*%
%TO.N,unconnected-(J4-Pin_22-Pad22)*%
X133020000Y-125400000D03*
%TO.P,J4,23,Pin_23_23*%
%TO.N,unconnected-(J4-Pin_23-Pad23)*%
X135560000Y-127940000D03*
%TO.P,J4,24,Pin_24_24*%
%TO.N,unconnected-(J4-Pin_24-Pad24)*%
X133020000Y-127940000D03*
%TO.P,J4,25,Pin_25_25*%
%TO.N,BTN2*%
X135560000Y-130480000D03*
%TO.P,J4,26,Pin_26_26*%
%TO.N,BTN3*%
X133020000Y-130480000D03*
%TO.P,J4,27,Pin_27_27*%
%TO.N,unconnected-(J4-Pin_27-Pad27)*%
X135560000Y-133020000D03*
%TO.P,J4,28,Pin_28_28*%
%TO.N,unconnected-(J4-Pin_28-Pad28)*%
X133020000Y-133020000D03*
%TO.P,J4,29,Pin_29_29*%
%TO.N,unconnected-(J4-Pin_29-Pad29)*%
X135560000Y-135560000D03*
%TO.P,J4,30,Pin_30_30*%
%TO.N,unconnected-(J4-Pin_30-Pad30)*%
X133020000Y-135560000D03*
%TO.P,J4,31,Pin_31_31*%
%TO.N,unconnected-(J4-Pin_31-Pad31)*%
X135560000Y-138100000D03*
%TO.P,J4,32,Pin_32_32*%
%TO.N,unconnected-(J4-Pin_32-Pad32)*%
X133020000Y-138100000D03*
%TO.P,J4,33,Pin_33_33*%
%TO.N,unconnected-(J4-Pin_33-Pad33)*%
X135560000Y-140640000D03*
%TO.P,J4,34,Pin_34_34*%
%TO.N,GND*%
X133020000Y-140640000D03*
%TO.P,J4,35,Pin_35_35*%
%TO.N,unconnected-(J4-Pin_35-Pad35)*%
X135560000Y-143180000D03*
%TO.P,J4,36,Pin_36_36*%
%TO.N,GND*%
X133020000Y-143180000D03*
%TD*%
D18*
%TO.P,J1,1,In_1*%
%TO.N,IN+*%
X104000000Y-50000000D03*
D19*
%TO.P,J1,2,Ext_2*%
%TO.N,GND*%
X98920000Y-44920000D03*
D18*
X101460000Y-50000000D03*
D19*
X109080000Y-44920000D03*
%TD*%
D20*
%TO.P,U3,1,VI_1*%
%TO.N,+9V*%
X88000000Y-86000000D03*
D21*
%TO.P,U3,2,GND_2*%
%TO.N,GND*%
X90540000Y-86000000D03*
%TO.P,U3,3,VO_3*%
%TO.N,+5V*%
X93080000Y-86000000D03*
%TD*%
D22*
%TO.P,RV1,1,1_1*%
%TO.N,Net-(SW4-B)*%
X116000000Y-70000000D03*
%TO.P,RV1,2,2_2*%
%TO.N,Net-(R4-Pad2)*%
X113460000Y-70000000D03*
%TO.P,RV1,3,3_3*%
%TO.N,GND*%
X110920000Y-70000000D03*
%TD*%
D13*
%TO.P,J3,1,Pin_1_1*%
%TO.N,+3.3V*%
X141000000Y-108000000D03*
D14*
%TO.P,J3,2,Pin_2_2*%
%TO.N,GND*%
X141000000Y-110540000D03*
%TO.P,J3,3,Pin_3_3*%
%TO.N,CS*%
X141000000Y-113080000D03*
%TO.P,J3,4,Pin_4_4*%
%TO.N,RES*%
X141000000Y-115620000D03*
%TO.P,J3,5,Pin_5_5*%
%TO.N,DC*%
X141000000Y-118160000D03*
%TO.P,J3,6,Pin_6_6*%
%TO.N,MOSI*%
X141000000Y-120700000D03*
%TO.P,J3,7,Pin_7_7*%
%TO.N,SCK*%
X141000000Y-123240000D03*
%TO.P,J3,8,Pin_8_8*%
%TO.N,+3.3V*%
X141000000Y-125780000D03*
%TD*%
D10*
%TO.P,R2,1*%
%TO.N,Net-(D1-COM)*%
X132000000Y-48000000D03*
%TO.P,R2,2*%
%TO.N,GND*%
X139620000Y-48000000D03*
%TD*%
%TO.P,C3,1*%
%TO.N,Net-(SW4-C)*%
X116000000Y-62000000D03*
%TO.P,C3,2*%
%TO.N,IN+*%
X121000000Y-62000000D03*
%TD*%
%TO.P,R1,1*%
%TO.N,+3.3V*%
X132000000Y-44000000D03*
%TO.P,R1,2*%
%TO.N,Net-(D1-COM)*%
X139620000Y-44000000D03*
%TD*%
D12*
%TO.P,SW3,1,1_1*%
%TO.N,BTN3*%
X146000000Y-138000000D03*
X158500000Y-138000000D03*
%TO.P,SW3,2,2_2*%
%TO.N,GND*%
X146000000Y-143000000D03*
X158500000Y-143000000D03*
%TD*%
%TO.P,SW2,1,1_1*%
%TO.N,BTN2*%
X146000000Y-122000000D03*
X158500000Y-122000000D03*
%TO.P,SW2,2,2_2*%
%TO.N,GND*%
X146000000Y-127000000D03*
X158500000Y-127000000D03*
%TD*%
D10*
%TO.P,R3,1*%
%TO.N,IN+*%
X116000000Y-46000000D03*
%TO.P,R3,2*%
%TO.N,GND*%
X123620000Y-46000000D03*
%TD*%
D11*
%TO.P,C1,1*%
%TO.N,+9V*%
X88000000Y-56000000D03*
D10*
%TO.P,C1,2*%
%TO.N,GND*%
X90000000Y-56000000D03*
%TD*%
%TO.N,Net-(D1-COM)*%
D23*
X132000000Y-48000000D02*
X122000000Y-48000000D01*
X140128200Y-49208800D02*
X133208800Y-49208800D01*
X122000000Y-48000000D02*
X116000000Y-54000000D01*
X133208800Y-49208800D02*
X132000000Y-48000000D01*
X139620000Y-44000000D02*
X140822900Y-45202900D01*
X140822900Y-48514100D02*
X140128200Y-49208800D01*
X140822900Y-45202900D02*
X140822900Y-48514100D01*
%TO.N,+5V*%
X100000000Y-86000000D02*
X104000000Y-90000000D01*
X93080000Y-86000000D02*
X100000000Y-86000000D01*
%TO.N,GND*%
X135620000Y-73620000D02*
X128000000Y-73620000D01*
X109080000Y-42969100D02*
X120589100Y-42969100D01*
X120589100Y-42969100D02*
X123620000Y-46000000D01*
X158500000Y-143000000D02*
X146000000Y-143000000D01*
X109080000Y-42969100D02*
X109080000Y-41018300D01*
X146000000Y-143000000D02*
X143998300Y-143000000D01*
X98920000Y-42969100D02*
X98920000Y-41018300D01*
X90540000Y-86000000D02*
X95742700Y-91202700D01*
X95742700Y-91202700D02*
X100000000Y-91202700D01*
X88000000Y-44000000D02*
X89251700Y-44000000D01*
X98920000Y-42969100D02*
X90282600Y-42969100D01*
X109080000Y-41018300D02*
X98920000Y-41018300D01*
X90500000Y-109000000D02*
X78000000Y-109000000D01*
X98920000Y-44920000D02*
X98920000Y-42969100D01*
X106000000Y-90102200D02*
X106000000Y-90000000D01*
X133020000Y-140640000D02*
X102540000Y-140640000D01*
X134290000Y-141910000D02*
X142908300Y-141910000D01*
X90282600Y-42969100D02*
X89251700Y-44000000D01*
X158500000Y-127000000D02*
X146000000Y-127000000D01*
X100000000Y-91202700D02*
X104899500Y-91202700D01*
X109080000Y-44920000D02*
X109080000Y-42969100D01*
X104899500Y-91202700D02*
X106000000Y-90102200D01*
X133020000Y-140640000D02*
X134290000Y-141910000D01*
X139350000Y-108890000D02*
X134290000Y-108890000D01*
X123620000Y-46000000D02*
X137620000Y-46000000D01*
X97460000Y-138100000D02*
X100000000Y-138100000D01*
X143240000Y-66000000D02*
X146000000Y-66000000D01*
X100000000Y-100000000D02*
X100000000Y-91202700D01*
X142908300Y-141910000D02*
X143998300Y-143000000D01*
X114540000Y-73620000D02*
X128000000Y-73620000D01*
X141000000Y-110540000D02*
X139350000Y-108890000D01*
X102540000Y-140640000D02*
X100000000Y-138100000D01*
X110920000Y-70000000D02*
X114540000Y-73620000D01*
X134290000Y-108890000D02*
X133020000Y-107620000D01*
X137620000Y-46000000D02*
X139620000Y-48000000D01*
X135620000Y-73620000D02*
X143240000Y-66000000D01*
%TO.N,FE_OUT*%
X147224500Y-65515200D02*
X147224500Y-66500300D01*
X146472800Y-64763500D02*
X147224500Y-65515200D01*
X141000000Y-66000000D02*
X142236500Y-64763500D01*
X133724800Y-80000000D02*
X133620000Y-80000000D01*
X142236500Y-64763500D02*
X146472800Y-64763500D01*
X147224500Y-66500300D02*
X133724800Y-80000000D01*
%TO.N,BTN1*%
X90500000Y-104000000D02*
X92501700Y-104000000D01*
X97460000Y-105080000D02*
X93581700Y-105080000D01*
X93581700Y-105080000D02*
X92501700Y-104000000D01*
X90500000Y-104000000D02*
X78000000Y-104000000D01*
%TO.N,+3.3V*%
X141000000Y-108000000D02*
X135940000Y-108000000D01*
X108965300Y-106350000D02*
X106425300Y-103810000D01*
X134290000Y-106350000D02*
X108965300Y-106350000D01*
X135940000Y-108000000D02*
X135560000Y-107620000D01*
X106425300Y-103810000D02*
X98730000Y-103810000D01*
X135560000Y-107620000D02*
X134290000Y-106350000D01*
X98730000Y-103810000D02*
X97460000Y-102540000D01*
%TO.N,IN+*%
X104000000Y-66000000D02*
X104000000Y-64348300D01*
X107566200Y-60782100D02*
X104000000Y-64348300D01*
X105014000Y-48864500D02*
X113135500Y-48864500D01*
X104497800Y-48348300D02*
X105014000Y-48864500D01*
X113135500Y-48864500D02*
X116000000Y-46000000D01*
X104000000Y-48348300D02*
X104497800Y-48348300D01*
X121000000Y-62000000D02*
X119782100Y-60782100D01*
X119782100Y-60782100D02*
X107566200Y-60782100D01*
X104000000Y-50000000D02*
X104000000Y-48348300D01*
%TO.N,Net-(SW4-B)*%
X114491000Y-68491000D02*
X106839300Y-68491000D01*
X116000000Y-70000000D02*
X114491000Y-68491000D01*
X106000000Y-66000000D02*
X106000000Y-67651700D01*
X106839300Y-68491000D02*
X106000000Y-67651700D01*
%TO.N,Net-(SW4-C)*%
X108000000Y-64348300D02*
X110348300Y-62000000D01*
X108000000Y-66000000D02*
X108000000Y-64348300D01*
X110348300Y-62000000D02*
X116000000Y-62000000D01*
%TO.N,DC*%
X135560000Y-115240000D02*
X138080000Y-115240000D01*
X138080000Y-115240000D02*
X141000000Y-118160000D01*
%TO.N,RES*%
X141000000Y-115620000D02*
X139350000Y-113970000D01*
X134290000Y-113970000D02*
X133020000Y-115240000D01*
X139350000Y-113970000D02*
X134290000Y-113970000D01*
%TO.N,CS*%
X136190000Y-119050000D02*
X134290000Y-119050000D01*
X141563500Y-119430000D02*
X136570000Y-119430000D01*
X134290000Y-119050000D02*
X133020000Y-117780000D01*
X142337200Y-114417200D02*
X142337200Y-118656300D01*
X136570000Y-119430000D02*
X136190000Y-119050000D01*
X142337200Y-118656300D02*
X141563500Y-119430000D01*
X141000000Y-113080000D02*
X142337200Y-114417200D01*
%TO.N,SCK*%
X132476300Y-124130000D02*
X140110000Y-124130000D01*
X131686100Y-123339800D02*
X132476300Y-124130000D01*
X133020000Y-120320000D02*
X131686100Y-121653900D01*
X140110000Y-124130000D02*
X141000000Y-123240000D01*
X131686100Y-121653900D02*
X131686100Y-123339800D01*
%TO.N,MOSI*%
X140110000Y-121590000D02*
X134290000Y-121590000D01*
X134290000Y-121590000D02*
X133020000Y-122860000D01*
X141000000Y-120700000D02*
X140110000Y-121590000D01*
%TO.N,BTN2*%
X135560000Y-130480000D02*
X138107200Y-130480000D01*
X143998300Y-124588900D02*
X143998300Y-122000000D01*
X146000000Y-122000000D02*
X143998300Y-122000000D01*
X158500000Y-122000000D02*
X146000000Y-122000000D01*
X138107200Y-130480000D02*
X143998300Y-124588900D01*
%TO.N,BTN3*%
X134290000Y-131750000D02*
X137748300Y-131750000D01*
X133020000Y-130480000D02*
X134290000Y-131750000D01*
X137748300Y-131750000D02*
X143998300Y-138000000D01*
X146000000Y-138000000D02*
X143998300Y-138000000D01*
X158500000Y-138000000D02*
X146000000Y-138000000D01*
%TD*%
M02*
