M48
; DRILL file KiCad 10.0.3 date 2026-06-18T18:48:08
; FORMAT={-:-/ absolute / metric / decimal}
; #@! TF.CreationDate,2026-06-18T18:48:08+05:30
; #@! TF.GenerationSoftware,Kicad,Pcbnew,10.0.3
; #@! TF.FileFunction,MixedPlating,1,2
FMAT,2
METRIC
; #@! TA.AperFunction,Plated,PTH,ComponentDrill
T1C0.800
; #@! TA.AperFunction,Plated,PTH,ComponentDrill
T2C0.890
; #@! TA.AperFunction,Plated,PTH,ComponentDrill
T3C1.000
; #@! TA.AperFunction,Plated,PTH,ComponentDrill
T4C1.100
; #@! TA.AperFunction,Plated,PTH,ComponentDrill
T5C1.300
; #@! TA.AperFunction,Plated,PTH,ComponentDrill
T6C1.500
; #@! TA.AperFunction,Plated,PTH,ComponentDrill
T7C2.010
; #@! TA.AperFunction,NonPlated,NPTH,ComponentDrill
T8C3.500
%
G90
G05
T1
X88.0Y-56.0
X90.0Y-56.0
X104.0Y-66.0
X104.0Y-90.0
X106.0Y-66.0
X106.0Y-90.0
X108.0Y-66.0
X110.92Y-70.0
X113.46Y-70.0
X116.0Y-46.0
X116.0Y-54.0
X116.0Y-62.0
X116.0Y-70.0
X121.0Y-62.0
X123.62Y-46.0
X123.62Y-54.0
X126.0Y-80.0
X128.0Y-66.0
X128.0Y-68.54
X128.0Y-71.08
X128.0Y-73.62
X132.0Y-44.0
X132.0Y-48.0
X133.62Y-80.0
X135.62Y-66.0
X135.62Y-68.54
X135.62Y-71.08
X135.62Y-73.62
X139.62Y-44.0
X139.62Y-48.0
X141.0Y-66.0
X146.0Y-66.0
T2
X101.46Y-50.0
X104.0Y-50.0
T3
X88.0Y-44.0
X88.0Y-46.54
X97.46Y-100.0
X97.46Y-102.54
X97.46Y-105.08
X97.46Y-107.62
X97.46Y-110.16
X97.46Y-112.7
X97.46Y-115.24
X97.46Y-117.78
X97.46Y-120.32
X97.46Y-122.86
X97.46Y-125.4
X97.46Y-127.94
X97.46Y-130.48
X97.46Y-133.02
X97.46Y-135.56
X97.46Y-138.1
X100.0Y-100.0
X100.0Y-102.54
X100.0Y-105.08
X100.0Y-107.62
X100.0Y-110.16
X100.0Y-112.7
X100.0Y-115.24
X100.0Y-117.78
X100.0Y-120.32
X100.0Y-122.86
X100.0Y-125.4
X100.0Y-127.94
X100.0Y-130.48
X100.0Y-133.02
X100.0Y-135.56
X100.0Y-138.1
X133.02Y-100.0
X133.02Y-102.54
X133.02Y-105.08
X133.02Y-107.62
X133.02Y-110.16
X133.02Y-112.7
X133.02Y-115.24
X133.02Y-117.78
X133.02Y-120.32
X133.02Y-122.86
X133.02Y-125.4
X133.02Y-127.94
X133.02Y-130.48
X133.02Y-133.02
X133.02Y-135.56
X133.02Y-138.1
X133.02Y-140.64
X133.02Y-143.18
X135.56Y-100.0
X135.56Y-102.54
X135.56Y-105.08
X135.56Y-107.62
X135.56Y-110.16
X135.56Y-112.7
X135.56Y-115.24
X135.56Y-117.78
X135.56Y-120.32
X135.56Y-122.86
X135.56Y-125.4
X135.56Y-127.94
X135.56Y-130.48
X135.56Y-133.02
X135.56Y-135.56
X135.56Y-138.1
X135.56Y-140.64
X135.56Y-143.18
X141.0Y-108.0
X141.0Y-110.54
X141.0Y-113.08
X141.0Y-115.62
X141.0Y-118.16
X141.0Y-120.7
X141.0Y-123.24
X141.0Y-125.78
T4
X88.0Y-86.0
X90.54Y-86.0
X93.08Y-86.0
T5
X78.0Y-104.0
X78.0Y-109.0
X90.5Y-104.0
X90.5Y-109.0
X146.0Y-122.0
X146.0Y-127.0
X146.0Y-138.0
X146.0Y-143.0
X158.5Y-122.0
X158.5Y-127.0
X158.5Y-138.0
X158.5Y-143.0
T6
X101.9Y-66.0
X110.1Y-66.0
T7
X98.92Y-44.92
X109.08Y-44.92
T8
X90.54Y-69.34
M30
