%TF.GenerationSoftware,KiCad,Pcbnew,10.0.3*%
%TF.CreationDate,2026-06-18T18:48:07+05:30*%
%TF.ProjectId,fullScope,66756c6c-5363-46f7-9065-2e6b69636164,rev?*%
%TF.SameCoordinates,Original*%
%TF.FileFunction,AssemblyDrawing,Top*%
%FSLAX46Y46*%
G04 Gerber Fmt 4.6, Leading zero omitted, Abs format (unit mm)*
G04 Created by KiCad (PCBNEW 10.0.3) date 2026-06-18 18:48:07*
%MOMM*%
%LPD*%
G01*
G04 APERTURE LIST*
%ADD10C,0.150000*%
%ADD11C,0.110000*%
%ADD12C,0.100000*%
G04 APERTURE END LIST*
D10*
X119214761Y-56824819D02*
X118643333Y-56824819D01*
X118929047Y-56824819D02*
X118929047Y-55824819D01*
X118929047Y-55824819D02*
X118833809Y-55967676D01*
X118833809Y-55967676D02*
X118738571Y-56062914D01*
X118738571Y-56062914D02*
X118643333Y-56110533D01*
X119833809Y-55824819D02*
X119929047Y-55824819D01*
X119929047Y-55824819D02*
X120024285Y-55872438D01*
X120024285Y-55872438D02*
X120071904Y-55920057D01*
X120071904Y-55920057D02*
X120119523Y-56015295D01*
X120119523Y-56015295D02*
X120167142Y-56205771D01*
X120167142Y-56205771D02*
X120167142Y-56443866D01*
X120167142Y-56443866D02*
X120119523Y-56634342D01*
X120119523Y-56634342D02*
X120071904Y-56729580D01*
X120071904Y-56729580D02*
X120024285Y-56777200D01*
X120024285Y-56777200D02*
X119929047Y-56824819D01*
X119929047Y-56824819D02*
X119833809Y-56824819D01*
X119833809Y-56824819D02*
X119738571Y-56777200D01*
X119738571Y-56777200D02*
X119690952Y-56729580D01*
X119690952Y-56729580D02*
X119643333Y-56634342D01*
X119643333Y-56634342D02*
X119595714Y-56443866D01*
X119595714Y-56443866D02*
X119595714Y-56205771D01*
X119595714Y-56205771D02*
X119643333Y-56015295D01*
X119643333Y-56015295D02*
X119690952Y-55920057D01*
X119690952Y-55920057D02*
X119738571Y-55872438D01*
X119738571Y-55872438D02*
X119833809Y-55824819D01*
X120595714Y-56824819D02*
X120595714Y-55824819D01*
X120690952Y-56443866D02*
X120976666Y-56824819D01*
X120976666Y-56158152D02*
X120595714Y-56539104D01*
X119643333Y-54454819D02*
X119310000Y-53978628D01*
X119071905Y-54454819D02*
X119071905Y-53454819D01*
X119071905Y-53454819D02*
X119452857Y-53454819D01*
X119452857Y-53454819D02*
X119548095Y-53502438D01*
X119548095Y-53502438D02*
X119595714Y-53550057D01*
X119595714Y-53550057D02*
X119643333Y-53645295D01*
X119643333Y-53645295D02*
X119643333Y-53788152D01*
X119643333Y-53788152D02*
X119595714Y-53883390D01*
X119595714Y-53883390D02*
X119548095Y-53931009D01*
X119548095Y-53931009D02*
X119452857Y-53978628D01*
X119452857Y-53978628D02*
X119071905Y-53978628D01*
X120500476Y-53788152D02*
X120500476Y-54454819D01*
X120262381Y-53407200D02*
X120024286Y-54121485D01*
X120024286Y-54121485D02*
X120643333Y-54121485D01*
X103071428Y-94204819D02*
X102500000Y-94204819D01*
X102785714Y-94204819D02*
X102785714Y-93204819D01*
X102785714Y-93204819D02*
X102690476Y-93347676D01*
X102690476Y-93347676D02*
X102595238Y-93442914D01*
X102595238Y-93442914D02*
X102500000Y-93490533D01*
X103690476Y-93204819D02*
X103785714Y-93204819D01*
X103785714Y-93204819D02*
X103880952Y-93252438D01*
X103880952Y-93252438D02*
X103928571Y-93300057D01*
X103928571Y-93300057D02*
X103976190Y-93395295D01*
X103976190Y-93395295D02*
X104023809Y-93585771D01*
X104023809Y-93585771D02*
X104023809Y-93823866D01*
X104023809Y-93823866D02*
X103976190Y-94014342D01*
X103976190Y-94014342D02*
X103928571Y-94109580D01*
X103928571Y-94109580D02*
X103880952Y-94157200D01*
X103880952Y-94157200D02*
X103785714Y-94204819D01*
X103785714Y-94204819D02*
X103690476Y-94204819D01*
X103690476Y-94204819D02*
X103595238Y-94157200D01*
X103595238Y-94157200D02*
X103547619Y-94109580D01*
X103547619Y-94109580D02*
X103500000Y-94014342D01*
X103500000Y-94014342D02*
X103452381Y-93823866D01*
X103452381Y-93823866D02*
X103452381Y-93585771D01*
X103452381Y-93585771D02*
X103500000Y-93395295D01*
X103500000Y-93395295D02*
X103547619Y-93300057D01*
X103547619Y-93300057D02*
X103595238Y-93252438D01*
X103595238Y-93252438D02*
X103690476Y-93204819D01*
X104642857Y-93204819D02*
X104738095Y-93204819D01*
X104738095Y-93204819D02*
X104833333Y-93252438D01*
X104833333Y-93252438D02*
X104880952Y-93300057D01*
X104880952Y-93300057D02*
X104928571Y-93395295D01*
X104928571Y-93395295D02*
X104976190Y-93585771D01*
X104976190Y-93585771D02*
X104976190Y-93823866D01*
X104976190Y-93823866D02*
X104928571Y-94014342D01*
X104928571Y-94014342D02*
X104880952Y-94109580D01*
X104880952Y-94109580D02*
X104833333Y-94157200D01*
X104833333Y-94157200D02*
X104738095Y-94204819D01*
X104738095Y-94204819D02*
X104642857Y-94204819D01*
X104642857Y-94204819D02*
X104547619Y-94157200D01*
X104547619Y-94157200D02*
X104500000Y-94109580D01*
X104500000Y-94109580D02*
X104452381Y-94014342D01*
X104452381Y-94014342D02*
X104404762Y-93823866D01*
X104404762Y-93823866D02*
X104404762Y-93585771D01*
X104404762Y-93585771D02*
X104452381Y-93395295D01*
X104452381Y-93395295D02*
X104500000Y-93300057D01*
X104500000Y-93300057D02*
X104547619Y-93252438D01*
X104547619Y-93252438D02*
X104642857Y-93204819D01*
X106595238Y-93538152D02*
X106595238Y-94204819D01*
X106166667Y-93538152D02*
X106166667Y-94061961D01*
X106166667Y-94061961D02*
X106214286Y-94157200D01*
X106214286Y-94157200D02*
X106309524Y-94204819D01*
X106309524Y-94204819D02*
X106452381Y-94204819D01*
X106452381Y-94204819D02*
X106547619Y-94157200D01*
X106547619Y-94157200D02*
X106595238Y-94109580D01*
X107404762Y-93681009D02*
X107071429Y-93681009D01*
X107071429Y-94204819D02*
X107071429Y-93204819D01*
X107071429Y-93204819D02*
X107547619Y-93204819D01*
X104833333Y-90359580D02*
X104785714Y-90407200D01*
X104785714Y-90407200D02*
X104642857Y-90454819D01*
X104642857Y-90454819D02*
X104547619Y-90454819D01*
X104547619Y-90454819D02*
X104404762Y-90407200D01*
X104404762Y-90407200D02*
X104309524Y-90311961D01*
X104309524Y-90311961D02*
X104261905Y-90216723D01*
X104261905Y-90216723D02*
X104214286Y-90026247D01*
X104214286Y-90026247D02*
X104214286Y-89883390D01*
X104214286Y-89883390D02*
X104261905Y-89692914D01*
X104261905Y-89692914D02*
X104309524Y-89597676D01*
X104309524Y-89597676D02*
X104404762Y-89502438D01*
X104404762Y-89502438D02*
X104547619Y-89454819D01*
X104547619Y-89454819D02*
X104642857Y-89454819D01*
X104642857Y-89454819D02*
X104785714Y-89502438D01*
X104785714Y-89502438D02*
X104833333Y-89550057D01*
X105214286Y-89550057D02*
X105261905Y-89502438D01*
X105261905Y-89502438D02*
X105357143Y-89454819D01*
X105357143Y-89454819D02*
X105595238Y-89454819D01*
X105595238Y-89454819D02*
X105690476Y-89502438D01*
X105690476Y-89502438D02*
X105738095Y-89550057D01*
X105738095Y-89550057D02*
X105785714Y-89645295D01*
X105785714Y-89645295D02*
X105785714Y-89740533D01*
X105785714Y-89740533D02*
X105738095Y-89883390D01*
X105738095Y-89883390D02*
X105166667Y-90454819D01*
X105166667Y-90454819D02*
X105785714Y-90454819D01*
X129595714Y-82824819D02*
X129024286Y-82824819D01*
X129310000Y-82824819D02*
X129310000Y-81824819D01*
X129310000Y-81824819D02*
X129214762Y-81967676D01*
X129214762Y-81967676D02*
X129119524Y-82062914D01*
X129119524Y-82062914D02*
X129024286Y-82110533D01*
X130024286Y-82824819D02*
X130024286Y-81824819D01*
X130595714Y-82824819D02*
X130167143Y-82253390D01*
X130595714Y-81824819D02*
X130024286Y-82396247D01*
X129643333Y-80454819D02*
X129310000Y-79978628D01*
X129071905Y-80454819D02*
X129071905Y-79454819D01*
X129071905Y-79454819D02*
X129452857Y-79454819D01*
X129452857Y-79454819D02*
X129548095Y-79502438D01*
X129548095Y-79502438D02*
X129595714Y-79550057D01*
X129595714Y-79550057D02*
X129643333Y-79645295D01*
X129643333Y-79645295D02*
X129643333Y-79788152D01*
X129643333Y-79788152D02*
X129595714Y-79883390D01*
X129595714Y-79883390D02*
X129548095Y-79931009D01*
X129548095Y-79931009D02*
X129452857Y-79978628D01*
X129452857Y-79978628D02*
X129071905Y-79978628D01*
X130548095Y-79454819D02*
X130071905Y-79454819D01*
X130071905Y-79454819D02*
X130024286Y-79931009D01*
X130024286Y-79931009D02*
X130071905Y-79883390D01*
X130071905Y-79883390D02*
X130167143Y-79835771D01*
X130167143Y-79835771D02*
X130405238Y-79835771D01*
X130405238Y-79835771D02*
X130500476Y-79883390D01*
X130500476Y-79883390D02*
X130548095Y-79931009D01*
X130548095Y-79931009D02*
X130595714Y-80026247D01*
X130595714Y-80026247D02*
X130595714Y-80264342D01*
X130595714Y-80264342D02*
X130548095Y-80359580D01*
X130548095Y-80359580D02*
X130500476Y-80407200D01*
X130500476Y-80407200D02*
X130405238Y-80454819D01*
X130405238Y-80454819D02*
X130167143Y-80454819D01*
X130167143Y-80454819D02*
X130071905Y-80407200D01*
X130071905Y-80407200D02*
X130024286Y-80359580D01*
X143047618Y-68954819D02*
X142476190Y-68954819D01*
X142761904Y-68954819D02*
X142761904Y-67954819D01*
X142761904Y-67954819D02*
X142666666Y-68097676D01*
X142666666Y-68097676D02*
X142571428Y-68192914D01*
X142571428Y-68192914D02*
X142476190Y-68240533D01*
X143476190Y-68288152D02*
X143476190Y-68954819D01*
X143476190Y-68383390D02*
X143523809Y-68335771D01*
X143523809Y-68335771D02*
X143619047Y-68288152D01*
X143619047Y-68288152D02*
X143761904Y-68288152D01*
X143761904Y-68288152D02*
X143857142Y-68335771D01*
X143857142Y-68335771D02*
X143904761Y-68431009D01*
X143904761Y-68431009D02*
X143904761Y-68954819D01*
X144238095Y-68288152D02*
X144619047Y-68288152D01*
X144380952Y-68954819D02*
X144380952Y-68097676D01*
X144380952Y-68097676D02*
X144428571Y-68002438D01*
X144428571Y-68002438D02*
X144523809Y-67954819D01*
X144523809Y-67954819D02*
X144619047Y-67954819D01*
X143333333Y-66359580D02*
X143285714Y-66407200D01*
X143285714Y-66407200D02*
X143142857Y-66454819D01*
X143142857Y-66454819D02*
X143047619Y-66454819D01*
X143047619Y-66454819D02*
X142904762Y-66407200D01*
X142904762Y-66407200D02*
X142809524Y-66311961D01*
X142809524Y-66311961D02*
X142761905Y-66216723D01*
X142761905Y-66216723D02*
X142714286Y-66026247D01*
X142714286Y-66026247D02*
X142714286Y-65883390D01*
X142714286Y-65883390D02*
X142761905Y-65692914D01*
X142761905Y-65692914D02*
X142809524Y-65597676D01*
X142809524Y-65597676D02*
X142904762Y-65502438D01*
X142904762Y-65502438D02*
X143047619Y-65454819D01*
X143047619Y-65454819D02*
X143142857Y-65454819D01*
X143142857Y-65454819D02*
X143285714Y-65502438D01*
X143285714Y-65502438D02*
X143333333Y-65550057D01*
X144190476Y-65788152D02*
X144190476Y-66454819D01*
X143952381Y-65407200D02*
X143714286Y-66121485D01*
X143714286Y-66121485D02*
X144333333Y-66121485D01*
X82846190Y-114431009D02*
X82989047Y-114478628D01*
X82989047Y-114478628D02*
X83036666Y-114526247D01*
X83036666Y-114526247D02*
X83084285Y-114621485D01*
X83084285Y-114621485D02*
X83084285Y-114764342D01*
X83084285Y-114764342D02*
X83036666Y-114859580D01*
X83036666Y-114859580D02*
X82989047Y-114907200D01*
X82989047Y-114907200D02*
X82893809Y-114954819D01*
X82893809Y-114954819D02*
X82512857Y-114954819D01*
X82512857Y-114954819D02*
X82512857Y-113954819D01*
X82512857Y-113954819D02*
X82846190Y-113954819D01*
X82846190Y-113954819D02*
X82941428Y-114002438D01*
X82941428Y-114002438D02*
X82989047Y-114050057D01*
X82989047Y-114050057D02*
X83036666Y-114145295D01*
X83036666Y-114145295D02*
X83036666Y-114240533D01*
X83036666Y-114240533D02*
X82989047Y-114335771D01*
X82989047Y-114335771D02*
X82941428Y-114383390D01*
X82941428Y-114383390D02*
X82846190Y-114431009D01*
X82846190Y-114431009D02*
X82512857Y-114431009D01*
X83370000Y-114288152D02*
X83750952Y-114288152D01*
X83512857Y-113954819D02*
X83512857Y-114811961D01*
X83512857Y-114811961D02*
X83560476Y-114907200D01*
X83560476Y-114907200D02*
X83655714Y-114954819D01*
X83655714Y-114954819D02*
X83750952Y-114954819D01*
X84084286Y-114288152D02*
X84084286Y-114954819D01*
X84084286Y-114383390D02*
X84131905Y-114335771D01*
X84131905Y-114335771D02*
X84227143Y-114288152D01*
X84227143Y-114288152D02*
X84370000Y-114288152D01*
X84370000Y-114288152D02*
X84465238Y-114335771D01*
X84465238Y-114335771D02*
X84512857Y-114431009D01*
X84512857Y-114431009D02*
X84512857Y-114954819D01*
X86274762Y-114954819D02*
X85703334Y-114954819D01*
X85989048Y-114954819D02*
X85989048Y-113954819D01*
X85989048Y-113954819D02*
X85893810Y-114097676D01*
X85893810Y-114097676D02*
X85798572Y-114192914D01*
X85798572Y-114192914D02*
X85703334Y-114240533D01*
X82916667Y-106907200D02*
X83059524Y-106954819D01*
X83059524Y-106954819D02*
X83297619Y-106954819D01*
X83297619Y-106954819D02*
X83392857Y-106907200D01*
X83392857Y-106907200D02*
X83440476Y-106859580D01*
X83440476Y-106859580D02*
X83488095Y-106764342D01*
X83488095Y-106764342D02*
X83488095Y-106669104D01*
X83488095Y-106669104D02*
X83440476Y-106573866D01*
X83440476Y-106573866D02*
X83392857Y-106526247D01*
X83392857Y-106526247D02*
X83297619Y-106478628D01*
X83297619Y-106478628D02*
X83107143Y-106431009D01*
X83107143Y-106431009D02*
X83011905Y-106383390D01*
X83011905Y-106383390D02*
X82964286Y-106335771D01*
X82964286Y-106335771D02*
X82916667Y-106240533D01*
X82916667Y-106240533D02*
X82916667Y-106145295D01*
X82916667Y-106145295D02*
X82964286Y-106050057D01*
X82964286Y-106050057D02*
X83011905Y-106002438D01*
X83011905Y-106002438D02*
X83107143Y-105954819D01*
X83107143Y-105954819D02*
X83345238Y-105954819D01*
X83345238Y-105954819D02*
X83488095Y-106002438D01*
X83821429Y-105954819D02*
X84059524Y-106954819D01*
X84059524Y-106954819D02*
X84250000Y-106240533D01*
X84250000Y-106240533D02*
X84440476Y-106954819D01*
X84440476Y-106954819D02*
X84678572Y-105954819D01*
X85583333Y-106954819D02*
X85011905Y-106954819D01*
X85297619Y-106954819D02*
X85297619Y-105954819D01*
X85297619Y-105954819D02*
X85202381Y-106097676D01*
X85202381Y-106097676D02*
X85107143Y-106192914D01*
X85107143Y-106192914D02*
X85011905Y-106240533D01*
X127048095Y-76404819D02*
X127048095Y-75404819D01*
X127048095Y-75404819D02*
X127381428Y-76119104D01*
X127381428Y-76119104D02*
X127714761Y-75404819D01*
X127714761Y-75404819D02*
X127714761Y-76404819D01*
X128762380Y-76309580D02*
X128714761Y-76357200D01*
X128714761Y-76357200D02*
X128571904Y-76404819D01*
X128571904Y-76404819D02*
X128476666Y-76404819D01*
X128476666Y-76404819D02*
X128333809Y-76357200D01*
X128333809Y-76357200D02*
X128238571Y-76261961D01*
X128238571Y-76261961D02*
X128190952Y-76166723D01*
X128190952Y-76166723D02*
X128143333Y-75976247D01*
X128143333Y-75976247D02*
X128143333Y-75833390D01*
X128143333Y-75833390D02*
X128190952Y-75642914D01*
X128190952Y-75642914D02*
X128238571Y-75547676D01*
X128238571Y-75547676D02*
X128333809Y-75452438D01*
X128333809Y-75452438D02*
X128476666Y-75404819D01*
X128476666Y-75404819D02*
X128571904Y-75404819D01*
X128571904Y-75404819D02*
X128714761Y-75452438D01*
X128714761Y-75452438D02*
X128762380Y-75500057D01*
X129190952Y-76404819D02*
X129190952Y-75404819D01*
X129190952Y-75404819D02*
X129571904Y-75404819D01*
X129571904Y-75404819D02*
X129667142Y-75452438D01*
X129667142Y-75452438D02*
X129714761Y-75500057D01*
X129714761Y-75500057D02*
X129762380Y-75595295D01*
X129762380Y-75595295D02*
X129762380Y-75738152D01*
X129762380Y-75738152D02*
X129714761Y-75833390D01*
X129714761Y-75833390D02*
X129667142Y-75881009D01*
X129667142Y-75881009D02*
X129571904Y-75928628D01*
X129571904Y-75928628D02*
X129190952Y-75928628D01*
X130619523Y-75404819D02*
X130429047Y-75404819D01*
X130429047Y-75404819D02*
X130333809Y-75452438D01*
X130333809Y-75452438D02*
X130286190Y-75500057D01*
X130286190Y-75500057D02*
X130190952Y-75642914D01*
X130190952Y-75642914D02*
X130143333Y-75833390D01*
X130143333Y-75833390D02*
X130143333Y-76214342D01*
X130143333Y-76214342D02*
X130190952Y-76309580D01*
X130190952Y-76309580D02*
X130238571Y-76357200D01*
X130238571Y-76357200D02*
X130333809Y-76404819D01*
X130333809Y-76404819D02*
X130524285Y-76404819D01*
X130524285Y-76404819D02*
X130619523Y-76357200D01*
X130619523Y-76357200D02*
X130667142Y-76309580D01*
X130667142Y-76309580D02*
X130714761Y-76214342D01*
X130714761Y-76214342D02*
X130714761Y-75976247D01*
X130714761Y-75976247D02*
X130667142Y-75881009D01*
X130667142Y-75881009D02*
X130619523Y-75833390D01*
X130619523Y-75833390D02*
X130524285Y-75785771D01*
X130524285Y-75785771D02*
X130333809Y-75785771D01*
X130333809Y-75785771D02*
X130238571Y-75833390D01*
X130238571Y-75833390D02*
X130190952Y-75881009D01*
X130190952Y-75881009D02*
X130143333Y-75976247D01*
X131333809Y-75404819D02*
X131429047Y-75404819D01*
X131429047Y-75404819D02*
X131524285Y-75452438D01*
X131524285Y-75452438D02*
X131571904Y-75500057D01*
X131571904Y-75500057D02*
X131619523Y-75595295D01*
X131619523Y-75595295D02*
X131667142Y-75785771D01*
X131667142Y-75785771D02*
X131667142Y-76023866D01*
X131667142Y-76023866D02*
X131619523Y-76214342D01*
X131619523Y-76214342D02*
X131571904Y-76309580D01*
X131571904Y-76309580D02*
X131524285Y-76357200D01*
X131524285Y-76357200D02*
X131429047Y-76404819D01*
X131429047Y-76404819D02*
X131333809Y-76404819D01*
X131333809Y-76404819D02*
X131238571Y-76357200D01*
X131238571Y-76357200D02*
X131190952Y-76309580D01*
X131190952Y-76309580D02*
X131143333Y-76214342D01*
X131143333Y-76214342D02*
X131095714Y-76023866D01*
X131095714Y-76023866D02*
X131095714Y-75785771D01*
X131095714Y-75785771D02*
X131143333Y-75595295D01*
X131143333Y-75595295D02*
X131190952Y-75500057D01*
X131190952Y-75500057D02*
X131238571Y-75452438D01*
X131238571Y-75452438D02*
X131333809Y-75404819D01*
X132286190Y-75404819D02*
X132381428Y-75404819D01*
X132381428Y-75404819D02*
X132476666Y-75452438D01*
X132476666Y-75452438D02*
X132524285Y-75500057D01*
X132524285Y-75500057D02*
X132571904Y-75595295D01*
X132571904Y-75595295D02*
X132619523Y-75785771D01*
X132619523Y-75785771D02*
X132619523Y-76023866D01*
X132619523Y-76023866D02*
X132571904Y-76214342D01*
X132571904Y-76214342D02*
X132524285Y-76309580D01*
X132524285Y-76309580D02*
X132476666Y-76357200D01*
X132476666Y-76357200D02*
X132381428Y-76404819D01*
X132381428Y-76404819D02*
X132286190Y-76404819D01*
X132286190Y-76404819D02*
X132190952Y-76357200D01*
X132190952Y-76357200D02*
X132143333Y-76309580D01*
X132143333Y-76309580D02*
X132095714Y-76214342D01*
X132095714Y-76214342D02*
X132048095Y-76023866D01*
X132048095Y-76023866D02*
X132048095Y-75785771D01*
X132048095Y-75785771D02*
X132095714Y-75595295D01*
X132095714Y-75595295D02*
X132143333Y-75500057D01*
X132143333Y-75500057D02*
X132190952Y-75452438D01*
X132190952Y-75452438D02*
X132286190Y-75404819D01*
X133000476Y-75500057D02*
X133048095Y-75452438D01*
X133048095Y-75452438D02*
X133143333Y-75404819D01*
X133143333Y-75404819D02*
X133381428Y-75404819D01*
X133381428Y-75404819D02*
X133476666Y-75452438D01*
X133476666Y-75452438D02*
X133524285Y-75500057D01*
X133524285Y-75500057D02*
X133571904Y-75595295D01*
X133571904Y-75595295D02*
X133571904Y-75690533D01*
X133571904Y-75690533D02*
X133524285Y-75833390D01*
X133524285Y-75833390D02*
X132952857Y-76404819D01*
X132952857Y-76404819D02*
X133571904Y-76404819D01*
X134000476Y-76023866D02*
X134762381Y-76023866D01*
X135143333Y-76404819D02*
X135667142Y-75738152D01*
X135143333Y-75738152D02*
X135667142Y-76404819D01*
X136048095Y-76404819D02*
X136048095Y-75404819D01*
X136048095Y-75404819D02*
X136429047Y-75404819D01*
X136429047Y-75404819D02*
X136524285Y-75452438D01*
X136524285Y-75452438D02*
X136571904Y-75500057D01*
X136571904Y-75500057D02*
X136619523Y-75595295D01*
X136619523Y-75595295D02*
X136619523Y-75738152D01*
X136619523Y-75738152D02*
X136571904Y-75833390D01*
X136571904Y-75833390D02*
X136524285Y-75881009D01*
X136524285Y-75881009D02*
X136429047Y-75928628D01*
X136429047Y-75928628D02*
X136048095Y-75928628D01*
X131264819Y-70571904D02*
X132074342Y-70571904D01*
X132074342Y-70571904D02*
X132169580Y-70524285D01*
X132169580Y-70524285D02*
X132217200Y-70476666D01*
X132217200Y-70476666D02*
X132264819Y-70381428D01*
X132264819Y-70381428D02*
X132264819Y-70190952D01*
X132264819Y-70190952D02*
X132217200Y-70095714D01*
X132217200Y-70095714D02*
X132169580Y-70048095D01*
X132169580Y-70048095D02*
X132074342Y-70000476D01*
X132074342Y-70000476D02*
X131264819Y-70000476D01*
X132264819Y-69000476D02*
X132264819Y-69571904D01*
X132264819Y-69286190D02*
X131264819Y-69286190D01*
X131264819Y-69286190D02*
X131407676Y-69381428D01*
X131407676Y-69381428D02*
X131502914Y-69476666D01*
X131502914Y-69476666D02*
X131550533Y-69571904D01*
X86976191Y-48374819D02*
X87309524Y-49374819D01*
X87309524Y-49374819D02*
X87642857Y-48374819D01*
X87976191Y-49374819D02*
X87976191Y-48708152D01*
X87976191Y-48374819D02*
X87928572Y-48422438D01*
X87928572Y-48422438D02*
X87976191Y-48470057D01*
X87976191Y-48470057D02*
X88023810Y-48422438D01*
X88023810Y-48422438D02*
X87976191Y-48374819D01*
X87976191Y-48374819D02*
X87976191Y-48470057D01*
X88452381Y-48708152D02*
X88452381Y-49374819D01*
X88452381Y-48803390D02*
X88500000Y-48755771D01*
X88500000Y-48755771D02*
X88595238Y-48708152D01*
X88595238Y-48708152D02*
X88738095Y-48708152D01*
X88738095Y-48708152D02*
X88833333Y-48755771D01*
X88833333Y-48755771D02*
X88880952Y-48851009D01*
X88880952Y-48851009D02*
X88880952Y-49374819D01*
X87454819Y-45603333D02*
X88169104Y-45603333D01*
X88169104Y-45603333D02*
X88311961Y-45650952D01*
X88311961Y-45650952D02*
X88407200Y-45746190D01*
X88407200Y-45746190D02*
X88454819Y-45889047D01*
X88454819Y-45889047D02*
X88454819Y-45984285D01*
X87454819Y-44650952D02*
X87454819Y-45127142D01*
X87454819Y-45127142D02*
X87931009Y-45174761D01*
X87931009Y-45174761D02*
X87883390Y-45127142D01*
X87883390Y-45127142D02*
X87835771Y-45031904D01*
X87835771Y-45031904D02*
X87835771Y-44793809D01*
X87835771Y-44793809D02*
X87883390Y-44698571D01*
X87883390Y-44698571D02*
X87931009Y-44650952D01*
X87931009Y-44650952D02*
X88026247Y-44603333D01*
X88026247Y-44603333D02*
X88264342Y-44603333D01*
X88264342Y-44603333D02*
X88359580Y-44650952D01*
X88359580Y-44650952D02*
X88407200Y-44698571D01*
X88407200Y-44698571D02*
X88454819Y-44793809D01*
X88454819Y-44793809D02*
X88454819Y-45031904D01*
X88454819Y-45031904D02*
X88407200Y-45127142D01*
X88407200Y-45127142D02*
X88359580Y-45174761D01*
X91087141Y-141229580D02*
X91039522Y-141277200D01*
X91039522Y-141277200D02*
X90896665Y-141324819D01*
X90896665Y-141324819D02*
X90801427Y-141324819D01*
X90801427Y-141324819D02*
X90658570Y-141277200D01*
X90658570Y-141277200D02*
X90563332Y-141181961D01*
X90563332Y-141181961D02*
X90515713Y-141086723D01*
X90515713Y-141086723D02*
X90468094Y-140896247D01*
X90468094Y-140896247D02*
X90468094Y-140753390D01*
X90468094Y-140753390D02*
X90515713Y-140562914D01*
X90515713Y-140562914D02*
X90563332Y-140467676D01*
X90563332Y-140467676D02*
X90658570Y-140372438D01*
X90658570Y-140372438D02*
X90801427Y-140324819D01*
X90801427Y-140324819D02*
X90896665Y-140324819D01*
X90896665Y-140324819D02*
X91039522Y-140372438D01*
X91039522Y-140372438D02*
X91087141Y-140420057D01*
X91658570Y-141324819D02*
X91563332Y-141277200D01*
X91563332Y-141277200D02*
X91515713Y-141229580D01*
X91515713Y-141229580D02*
X91468094Y-141134342D01*
X91468094Y-141134342D02*
X91468094Y-140848628D01*
X91468094Y-140848628D02*
X91515713Y-140753390D01*
X91515713Y-140753390D02*
X91563332Y-140705771D01*
X91563332Y-140705771D02*
X91658570Y-140658152D01*
X91658570Y-140658152D02*
X91801427Y-140658152D01*
X91801427Y-140658152D02*
X91896665Y-140705771D01*
X91896665Y-140705771D02*
X91944284Y-140753390D01*
X91944284Y-140753390D02*
X91991903Y-140848628D01*
X91991903Y-140848628D02*
X91991903Y-141134342D01*
X91991903Y-141134342D02*
X91944284Y-141229580D01*
X91944284Y-141229580D02*
X91896665Y-141277200D01*
X91896665Y-141277200D02*
X91801427Y-141324819D01*
X91801427Y-141324819D02*
X91658570Y-141324819D01*
X92420475Y-140658152D02*
X92420475Y-141324819D01*
X92420475Y-140753390D02*
X92468094Y-140705771D01*
X92468094Y-140705771D02*
X92563332Y-140658152D01*
X92563332Y-140658152D02*
X92706189Y-140658152D01*
X92706189Y-140658152D02*
X92801427Y-140705771D01*
X92801427Y-140705771D02*
X92849046Y-140801009D01*
X92849046Y-140801009D02*
X92849046Y-141324819D01*
X93325237Y-140658152D02*
X93325237Y-141324819D01*
X93325237Y-140753390D02*
X93372856Y-140705771D01*
X93372856Y-140705771D02*
X93468094Y-140658152D01*
X93468094Y-140658152D02*
X93610951Y-140658152D01*
X93610951Y-140658152D02*
X93706189Y-140705771D01*
X93706189Y-140705771D02*
X93753808Y-140801009D01*
X93753808Y-140801009D02*
X93753808Y-141324819D01*
X93991904Y-141420057D02*
X94753808Y-141420057D01*
X95182380Y-140324819D02*
X95277618Y-140324819D01*
X95277618Y-140324819D02*
X95372856Y-140372438D01*
X95372856Y-140372438D02*
X95420475Y-140420057D01*
X95420475Y-140420057D02*
X95468094Y-140515295D01*
X95468094Y-140515295D02*
X95515713Y-140705771D01*
X95515713Y-140705771D02*
X95515713Y-140943866D01*
X95515713Y-140943866D02*
X95468094Y-141134342D01*
X95468094Y-141134342D02*
X95420475Y-141229580D01*
X95420475Y-141229580D02*
X95372856Y-141277200D01*
X95372856Y-141277200D02*
X95277618Y-141324819D01*
X95277618Y-141324819D02*
X95182380Y-141324819D01*
X95182380Y-141324819D02*
X95087142Y-141277200D01*
X95087142Y-141277200D02*
X95039523Y-141229580D01*
X95039523Y-141229580D02*
X94991904Y-141134342D01*
X94991904Y-141134342D02*
X94944285Y-140943866D01*
X94944285Y-140943866D02*
X94944285Y-140705771D01*
X94944285Y-140705771D02*
X94991904Y-140515295D01*
X94991904Y-140515295D02*
X95039523Y-140420057D01*
X95039523Y-140420057D02*
X95087142Y-140372438D01*
X95087142Y-140372438D02*
X95182380Y-140324819D01*
X95896666Y-140420057D02*
X95944285Y-140372438D01*
X95944285Y-140372438D02*
X96039523Y-140324819D01*
X96039523Y-140324819D02*
X96277618Y-140324819D01*
X96277618Y-140324819D02*
X96372856Y-140372438D01*
X96372856Y-140372438D02*
X96420475Y-140420057D01*
X96420475Y-140420057D02*
X96468094Y-140515295D01*
X96468094Y-140515295D02*
X96468094Y-140610533D01*
X96468094Y-140610533D02*
X96420475Y-140753390D01*
X96420475Y-140753390D02*
X95849047Y-141324819D01*
X95849047Y-141324819D02*
X96468094Y-141324819D01*
X96801428Y-141324819D02*
X97325237Y-140658152D01*
X96801428Y-140658152D02*
X97325237Y-141324819D01*
X98229999Y-141324819D02*
X97658571Y-141324819D01*
X97944285Y-141324819D02*
X97944285Y-140324819D01*
X97944285Y-140324819D02*
X97849047Y-140467676D01*
X97849047Y-140467676D02*
X97753809Y-140562914D01*
X97753809Y-140562914D02*
X97658571Y-140610533D01*
X99087142Y-140324819D02*
X98896666Y-140324819D01*
X98896666Y-140324819D02*
X98801428Y-140372438D01*
X98801428Y-140372438D02*
X98753809Y-140420057D01*
X98753809Y-140420057D02*
X98658571Y-140562914D01*
X98658571Y-140562914D02*
X98610952Y-140753390D01*
X98610952Y-140753390D02*
X98610952Y-141134342D01*
X98610952Y-141134342D02*
X98658571Y-141229580D01*
X98658571Y-141229580D02*
X98706190Y-141277200D01*
X98706190Y-141277200D02*
X98801428Y-141324819D01*
X98801428Y-141324819D02*
X98991904Y-141324819D01*
X98991904Y-141324819D02*
X99087142Y-141277200D01*
X99087142Y-141277200D02*
X99134761Y-141229580D01*
X99134761Y-141229580D02*
X99182380Y-141134342D01*
X99182380Y-141134342D02*
X99182380Y-140896247D01*
X99182380Y-140896247D02*
X99134761Y-140801009D01*
X99134761Y-140801009D02*
X99087142Y-140753390D01*
X99087142Y-140753390D02*
X98991904Y-140705771D01*
X98991904Y-140705771D02*
X98801428Y-140705771D01*
X98801428Y-140705771D02*
X98706190Y-140753390D01*
X98706190Y-140753390D02*
X98658571Y-140801009D01*
X98658571Y-140801009D02*
X98610952Y-140896247D01*
X99372857Y-141420057D02*
X100134761Y-141420057D01*
X100563333Y-140324819D02*
X100753809Y-140324819D01*
X100753809Y-140324819D02*
X100849047Y-140372438D01*
X100849047Y-140372438D02*
X100944285Y-140467676D01*
X100944285Y-140467676D02*
X100991904Y-140658152D01*
X100991904Y-140658152D02*
X100991904Y-140991485D01*
X100991904Y-140991485D02*
X100944285Y-141181961D01*
X100944285Y-141181961D02*
X100849047Y-141277200D01*
X100849047Y-141277200D02*
X100753809Y-141324819D01*
X100753809Y-141324819D02*
X100563333Y-141324819D01*
X100563333Y-141324819D02*
X100468095Y-141277200D01*
X100468095Y-141277200D02*
X100372857Y-141181961D01*
X100372857Y-141181961D02*
X100325238Y-140991485D01*
X100325238Y-140991485D02*
X100325238Y-140658152D01*
X100325238Y-140658152D02*
X100372857Y-140467676D01*
X100372857Y-140467676D02*
X100468095Y-140372438D01*
X100468095Y-140372438D02*
X100563333Y-140324819D01*
X101849047Y-141324819D02*
X101849047Y-140324819D01*
X101849047Y-141277200D02*
X101753809Y-141324819D01*
X101753809Y-141324819D02*
X101563333Y-141324819D01*
X101563333Y-141324819D02*
X101468095Y-141277200D01*
X101468095Y-141277200D02*
X101420476Y-141229580D01*
X101420476Y-141229580D02*
X101372857Y-141134342D01*
X101372857Y-141134342D02*
X101372857Y-140848628D01*
X101372857Y-140848628D02*
X101420476Y-140753390D01*
X101420476Y-140753390D02*
X101468095Y-140705771D01*
X101468095Y-140705771D02*
X101563333Y-140658152D01*
X101563333Y-140658152D02*
X101753809Y-140658152D01*
X101753809Y-140658152D02*
X101849047Y-140705771D01*
X102753809Y-141324819D02*
X102753809Y-140324819D01*
X102753809Y-141277200D02*
X102658571Y-141324819D01*
X102658571Y-141324819D02*
X102468095Y-141324819D01*
X102468095Y-141324819D02*
X102372857Y-141277200D01*
X102372857Y-141277200D02*
X102325238Y-141229580D01*
X102325238Y-141229580D02*
X102277619Y-141134342D01*
X102277619Y-141134342D02*
X102277619Y-140848628D01*
X102277619Y-140848628D02*
X102325238Y-140753390D01*
X102325238Y-140753390D02*
X102372857Y-140705771D01*
X102372857Y-140705771D02*
X102468095Y-140658152D01*
X102468095Y-140658152D02*
X102658571Y-140658152D01*
X102658571Y-140658152D02*
X102753809Y-140705771D01*
X102991905Y-141420057D02*
X103753809Y-141420057D01*
X103991905Y-140801009D02*
X104325238Y-140801009D01*
X104468095Y-141324819D02*
X103991905Y-141324819D01*
X103991905Y-141324819D02*
X103991905Y-140324819D01*
X103991905Y-140324819D02*
X104468095Y-140324819D01*
X104801429Y-140658152D02*
X105039524Y-141324819D01*
X105039524Y-141324819D02*
X105277619Y-140658152D01*
X106039524Y-141277200D02*
X105944286Y-141324819D01*
X105944286Y-141324819D02*
X105753810Y-141324819D01*
X105753810Y-141324819D02*
X105658572Y-141277200D01*
X105658572Y-141277200D02*
X105610953Y-141181961D01*
X105610953Y-141181961D02*
X105610953Y-140801009D01*
X105610953Y-140801009D02*
X105658572Y-140705771D01*
X105658572Y-140705771D02*
X105753810Y-140658152D01*
X105753810Y-140658152D02*
X105944286Y-140658152D01*
X105944286Y-140658152D02*
X106039524Y-140705771D01*
X106039524Y-140705771D02*
X106087143Y-140801009D01*
X106087143Y-140801009D02*
X106087143Y-140896247D01*
X106087143Y-140896247D02*
X105610953Y-140991485D01*
X106515715Y-140658152D02*
X106515715Y-141324819D01*
X106515715Y-140753390D02*
X106563334Y-140705771D01*
X106563334Y-140705771D02*
X106658572Y-140658152D01*
X106658572Y-140658152D02*
X106801429Y-140658152D01*
X106801429Y-140658152D02*
X106896667Y-140705771D01*
X106896667Y-140705771D02*
X106944286Y-140801009D01*
X106944286Y-140801009D02*
X106944286Y-141324819D01*
X98184819Y-119383333D02*
X98899104Y-119383333D01*
X98899104Y-119383333D02*
X99041961Y-119430952D01*
X99041961Y-119430952D02*
X99137200Y-119526190D01*
X99137200Y-119526190D02*
X99184819Y-119669047D01*
X99184819Y-119669047D02*
X99184819Y-119764285D01*
X98280057Y-118954761D02*
X98232438Y-118907142D01*
X98232438Y-118907142D02*
X98184819Y-118811904D01*
X98184819Y-118811904D02*
X98184819Y-118573809D01*
X98184819Y-118573809D02*
X98232438Y-118478571D01*
X98232438Y-118478571D02*
X98280057Y-118430952D01*
X98280057Y-118430952D02*
X98375295Y-118383333D01*
X98375295Y-118383333D02*
X98470533Y-118383333D01*
X98470533Y-118383333D02*
X98613390Y-118430952D01*
X98613390Y-118430952D02*
X99184819Y-119002380D01*
X99184819Y-119002380D02*
X99184819Y-118383333D01*
X102904762Y-69407200D02*
X103047619Y-69454819D01*
X103047619Y-69454819D02*
X103285714Y-69454819D01*
X103285714Y-69454819D02*
X103380952Y-69407200D01*
X103380952Y-69407200D02*
X103428571Y-69359580D01*
X103428571Y-69359580D02*
X103476190Y-69264342D01*
X103476190Y-69264342D02*
X103476190Y-69169104D01*
X103476190Y-69169104D02*
X103428571Y-69073866D01*
X103428571Y-69073866D02*
X103380952Y-69026247D01*
X103380952Y-69026247D02*
X103285714Y-68978628D01*
X103285714Y-68978628D02*
X103095238Y-68931009D01*
X103095238Y-68931009D02*
X103000000Y-68883390D01*
X103000000Y-68883390D02*
X102952381Y-68835771D01*
X102952381Y-68835771D02*
X102904762Y-68740533D01*
X102904762Y-68740533D02*
X102904762Y-68645295D01*
X102904762Y-68645295D02*
X102952381Y-68550057D01*
X102952381Y-68550057D02*
X103000000Y-68502438D01*
X103000000Y-68502438D02*
X103095238Y-68454819D01*
X103095238Y-68454819D02*
X103333333Y-68454819D01*
X103333333Y-68454819D02*
X103476190Y-68502438D01*
X103809524Y-68454819D02*
X104047619Y-69454819D01*
X104047619Y-69454819D02*
X104238095Y-68740533D01*
X104238095Y-68740533D02*
X104428571Y-69454819D01*
X104428571Y-69454819D02*
X104666667Y-68454819D01*
X104809524Y-69550057D02*
X105571428Y-69550057D01*
X105761905Y-69407200D02*
X105904762Y-69454819D01*
X105904762Y-69454819D02*
X106142857Y-69454819D01*
X106142857Y-69454819D02*
X106238095Y-69407200D01*
X106238095Y-69407200D02*
X106285714Y-69359580D01*
X106285714Y-69359580D02*
X106333333Y-69264342D01*
X106333333Y-69264342D02*
X106333333Y-69169104D01*
X106333333Y-69169104D02*
X106285714Y-69073866D01*
X106285714Y-69073866D02*
X106238095Y-69026247D01*
X106238095Y-69026247D02*
X106142857Y-68978628D01*
X106142857Y-68978628D02*
X105952381Y-68931009D01*
X105952381Y-68931009D02*
X105857143Y-68883390D01*
X105857143Y-68883390D02*
X105809524Y-68835771D01*
X105809524Y-68835771D02*
X105761905Y-68740533D01*
X105761905Y-68740533D02*
X105761905Y-68645295D01*
X105761905Y-68645295D02*
X105809524Y-68550057D01*
X105809524Y-68550057D02*
X105857143Y-68502438D01*
X105857143Y-68502438D02*
X105952381Y-68454819D01*
X105952381Y-68454819D02*
X106190476Y-68454819D01*
X106190476Y-68454819D02*
X106333333Y-68502438D01*
X106761905Y-69454819D02*
X106761905Y-68454819D01*
X106761905Y-68454819D02*
X107142857Y-68454819D01*
X107142857Y-68454819D02*
X107238095Y-68502438D01*
X107238095Y-68502438D02*
X107285714Y-68550057D01*
X107285714Y-68550057D02*
X107333333Y-68645295D01*
X107333333Y-68645295D02*
X107333333Y-68788152D01*
X107333333Y-68788152D02*
X107285714Y-68883390D01*
X107285714Y-68883390D02*
X107238095Y-68931009D01*
X107238095Y-68931009D02*
X107142857Y-68978628D01*
X107142857Y-68978628D02*
X106761905Y-68978628D01*
X107761905Y-69454819D02*
X107761905Y-68454819D01*
X107761905Y-68454819D02*
X108000000Y-68454819D01*
X108000000Y-68454819D02*
X108142857Y-68502438D01*
X108142857Y-68502438D02*
X108238095Y-68597676D01*
X108238095Y-68597676D02*
X108285714Y-68692914D01*
X108285714Y-68692914D02*
X108333333Y-68883390D01*
X108333333Y-68883390D02*
X108333333Y-69026247D01*
X108333333Y-69026247D02*
X108285714Y-69216723D01*
X108285714Y-69216723D02*
X108238095Y-69311961D01*
X108238095Y-69311961D02*
X108142857Y-69407200D01*
X108142857Y-69407200D02*
X108000000Y-69454819D01*
X108000000Y-69454819D02*
X107761905Y-69454819D01*
X108619048Y-68454819D02*
X109190476Y-68454819D01*
X108904762Y-69454819D02*
X108904762Y-68454819D01*
X106656667Y-63417200D02*
X106799524Y-63464819D01*
X106799524Y-63464819D02*
X107037619Y-63464819D01*
X107037619Y-63464819D02*
X107132857Y-63417200D01*
X107132857Y-63417200D02*
X107180476Y-63369580D01*
X107180476Y-63369580D02*
X107228095Y-63274342D01*
X107228095Y-63274342D02*
X107228095Y-63179104D01*
X107228095Y-63179104D02*
X107180476Y-63083866D01*
X107180476Y-63083866D02*
X107132857Y-63036247D01*
X107132857Y-63036247D02*
X107037619Y-62988628D01*
X107037619Y-62988628D02*
X106847143Y-62941009D01*
X106847143Y-62941009D02*
X106751905Y-62893390D01*
X106751905Y-62893390D02*
X106704286Y-62845771D01*
X106704286Y-62845771D02*
X106656667Y-62750533D01*
X106656667Y-62750533D02*
X106656667Y-62655295D01*
X106656667Y-62655295D02*
X106704286Y-62560057D01*
X106704286Y-62560057D02*
X106751905Y-62512438D01*
X106751905Y-62512438D02*
X106847143Y-62464819D01*
X106847143Y-62464819D02*
X107085238Y-62464819D01*
X107085238Y-62464819D02*
X107228095Y-62512438D01*
X107561429Y-62464819D02*
X107799524Y-63464819D01*
X107799524Y-63464819D02*
X107990000Y-62750533D01*
X107990000Y-62750533D02*
X108180476Y-63464819D01*
X108180476Y-63464819D02*
X108418572Y-62464819D01*
X109228095Y-62798152D02*
X109228095Y-63464819D01*
X108990000Y-62417200D02*
X108751905Y-63131485D01*
X108751905Y-63131485D02*
X109370952Y-63131485D01*
X126647141Y-146309580D02*
X126599522Y-146357200D01*
X126599522Y-146357200D02*
X126456665Y-146404819D01*
X126456665Y-146404819D02*
X126361427Y-146404819D01*
X126361427Y-146404819D02*
X126218570Y-146357200D01*
X126218570Y-146357200D02*
X126123332Y-146261961D01*
X126123332Y-146261961D02*
X126075713Y-146166723D01*
X126075713Y-146166723D02*
X126028094Y-145976247D01*
X126028094Y-145976247D02*
X126028094Y-145833390D01*
X126028094Y-145833390D02*
X126075713Y-145642914D01*
X126075713Y-145642914D02*
X126123332Y-145547676D01*
X126123332Y-145547676D02*
X126218570Y-145452438D01*
X126218570Y-145452438D02*
X126361427Y-145404819D01*
X126361427Y-145404819D02*
X126456665Y-145404819D01*
X126456665Y-145404819D02*
X126599522Y-145452438D01*
X126599522Y-145452438D02*
X126647141Y-145500057D01*
X127218570Y-146404819D02*
X127123332Y-146357200D01*
X127123332Y-146357200D02*
X127075713Y-146309580D01*
X127075713Y-146309580D02*
X127028094Y-146214342D01*
X127028094Y-146214342D02*
X127028094Y-145928628D01*
X127028094Y-145928628D02*
X127075713Y-145833390D01*
X127075713Y-145833390D02*
X127123332Y-145785771D01*
X127123332Y-145785771D02*
X127218570Y-145738152D01*
X127218570Y-145738152D02*
X127361427Y-145738152D01*
X127361427Y-145738152D02*
X127456665Y-145785771D01*
X127456665Y-145785771D02*
X127504284Y-145833390D01*
X127504284Y-145833390D02*
X127551903Y-145928628D01*
X127551903Y-145928628D02*
X127551903Y-146214342D01*
X127551903Y-146214342D02*
X127504284Y-146309580D01*
X127504284Y-146309580D02*
X127456665Y-146357200D01*
X127456665Y-146357200D02*
X127361427Y-146404819D01*
X127361427Y-146404819D02*
X127218570Y-146404819D01*
X127980475Y-145738152D02*
X127980475Y-146404819D01*
X127980475Y-145833390D02*
X128028094Y-145785771D01*
X128028094Y-145785771D02*
X128123332Y-145738152D01*
X128123332Y-145738152D02*
X128266189Y-145738152D01*
X128266189Y-145738152D02*
X128361427Y-145785771D01*
X128361427Y-145785771D02*
X128409046Y-145881009D01*
X128409046Y-145881009D02*
X128409046Y-146404819D01*
X128885237Y-145738152D02*
X128885237Y-146404819D01*
X128885237Y-145833390D02*
X128932856Y-145785771D01*
X128932856Y-145785771D02*
X129028094Y-145738152D01*
X129028094Y-145738152D02*
X129170951Y-145738152D01*
X129170951Y-145738152D02*
X129266189Y-145785771D01*
X129266189Y-145785771D02*
X129313808Y-145881009D01*
X129313808Y-145881009D02*
X129313808Y-146404819D01*
X129551904Y-146500057D02*
X130313808Y-146500057D01*
X130742380Y-145404819D02*
X130837618Y-145404819D01*
X130837618Y-145404819D02*
X130932856Y-145452438D01*
X130932856Y-145452438D02*
X130980475Y-145500057D01*
X130980475Y-145500057D02*
X131028094Y-145595295D01*
X131028094Y-145595295D02*
X131075713Y-145785771D01*
X131075713Y-145785771D02*
X131075713Y-146023866D01*
X131075713Y-146023866D02*
X131028094Y-146214342D01*
X131028094Y-146214342D02*
X130980475Y-146309580D01*
X130980475Y-146309580D02*
X130932856Y-146357200D01*
X130932856Y-146357200D02*
X130837618Y-146404819D01*
X130837618Y-146404819D02*
X130742380Y-146404819D01*
X130742380Y-146404819D02*
X130647142Y-146357200D01*
X130647142Y-146357200D02*
X130599523Y-146309580D01*
X130599523Y-146309580D02*
X130551904Y-146214342D01*
X130551904Y-146214342D02*
X130504285Y-146023866D01*
X130504285Y-146023866D02*
X130504285Y-145785771D01*
X130504285Y-145785771D02*
X130551904Y-145595295D01*
X130551904Y-145595295D02*
X130599523Y-145500057D01*
X130599523Y-145500057D02*
X130647142Y-145452438D01*
X130647142Y-145452438D02*
X130742380Y-145404819D01*
X131456666Y-145500057D02*
X131504285Y-145452438D01*
X131504285Y-145452438D02*
X131599523Y-145404819D01*
X131599523Y-145404819D02*
X131837618Y-145404819D01*
X131837618Y-145404819D02*
X131932856Y-145452438D01*
X131932856Y-145452438D02*
X131980475Y-145500057D01*
X131980475Y-145500057D02*
X132028094Y-145595295D01*
X132028094Y-145595295D02*
X132028094Y-145690533D01*
X132028094Y-145690533D02*
X131980475Y-145833390D01*
X131980475Y-145833390D02*
X131409047Y-146404819D01*
X131409047Y-146404819D02*
X132028094Y-146404819D01*
X132361428Y-146404819D02*
X132885237Y-145738152D01*
X132361428Y-145738152D02*
X132885237Y-146404819D01*
X133789999Y-146404819D02*
X133218571Y-146404819D01*
X133504285Y-146404819D02*
X133504285Y-145404819D01*
X133504285Y-145404819D02*
X133409047Y-145547676D01*
X133409047Y-145547676D02*
X133313809Y-145642914D01*
X133313809Y-145642914D02*
X133218571Y-145690533D01*
X134361428Y-145833390D02*
X134266190Y-145785771D01*
X134266190Y-145785771D02*
X134218571Y-145738152D01*
X134218571Y-145738152D02*
X134170952Y-145642914D01*
X134170952Y-145642914D02*
X134170952Y-145595295D01*
X134170952Y-145595295D02*
X134218571Y-145500057D01*
X134218571Y-145500057D02*
X134266190Y-145452438D01*
X134266190Y-145452438D02*
X134361428Y-145404819D01*
X134361428Y-145404819D02*
X134551904Y-145404819D01*
X134551904Y-145404819D02*
X134647142Y-145452438D01*
X134647142Y-145452438D02*
X134694761Y-145500057D01*
X134694761Y-145500057D02*
X134742380Y-145595295D01*
X134742380Y-145595295D02*
X134742380Y-145642914D01*
X134742380Y-145642914D02*
X134694761Y-145738152D01*
X134694761Y-145738152D02*
X134647142Y-145785771D01*
X134647142Y-145785771D02*
X134551904Y-145833390D01*
X134551904Y-145833390D02*
X134361428Y-145833390D01*
X134361428Y-145833390D02*
X134266190Y-145881009D01*
X134266190Y-145881009D02*
X134218571Y-145928628D01*
X134218571Y-145928628D02*
X134170952Y-146023866D01*
X134170952Y-146023866D02*
X134170952Y-146214342D01*
X134170952Y-146214342D02*
X134218571Y-146309580D01*
X134218571Y-146309580D02*
X134266190Y-146357200D01*
X134266190Y-146357200D02*
X134361428Y-146404819D01*
X134361428Y-146404819D02*
X134551904Y-146404819D01*
X134551904Y-146404819D02*
X134647142Y-146357200D01*
X134647142Y-146357200D02*
X134694761Y-146309580D01*
X134694761Y-146309580D02*
X134742380Y-146214342D01*
X134742380Y-146214342D02*
X134742380Y-146023866D01*
X134742380Y-146023866D02*
X134694761Y-145928628D01*
X134694761Y-145928628D02*
X134647142Y-145881009D01*
X134647142Y-145881009D02*
X134551904Y-145833390D01*
X134932857Y-146500057D02*
X135694761Y-146500057D01*
X136123333Y-145404819D02*
X136313809Y-145404819D01*
X136313809Y-145404819D02*
X136409047Y-145452438D01*
X136409047Y-145452438D02*
X136504285Y-145547676D01*
X136504285Y-145547676D02*
X136551904Y-145738152D01*
X136551904Y-145738152D02*
X136551904Y-146071485D01*
X136551904Y-146071485D02*
X136504285Y-146261961D01*
X136504285Y-146261961D02*
X136409047Y-146357200D01*
X136409047Y-146357200D02*
X136313809Y-146404819D01*
X136313809Y-146404819D02*
X136123333Y-146404819D01*
X136123333Y-146404819D02*
X136028095Y-146357200D01*
X136028095Y-146357200D02*
X135932857Y-146261961D01*
X135932857Y-146261961D02*
X135885238Y-146071485D01*
X135885238Y-146071485D02*
X135885238Y-145738152D01*
X135885238Y-145738152D02*
X135932857Y-145547676D01*
X135932857Y-145547676D02*
X136028095Y-145452438D01*
X136028095Y-145452438D02*
X136123333Y-145404819D01*
X137409047Y-146404819D02*
X137409047Y-145404819D01*
X137409047Y-146357200D02*
X137313809Y-146404819D01*
X137313809Y-146404819D02*
X137123333Y-146404819D01*
X137123333Y-146404819D02*
X137028095Y-146357200D01*
X137028095Y-146357200D02*
X136980476Y-146309580D01*
X136980476Y-146309580D02*
X136932857Y-146214342D01*
X136932857Y-146214342D02*
X136932857Y-145928628D01*
X136932857Y-145928628D02*
X136980476Y-145833390D01*
X136980476Y-145833390D02*
X137028095Y-145785771D01*
X137028095Y-145785771D02*
X137123333Y-145738152D01*
X137123333Y-145738152D02*
X137313809Y-145738152D01*
X137313809Y-145738152D02*
X137409047Y-145785771D01*
X138313809Y-146404819D02*
X138313809Y-145404819D01*
X138313809Y-146357200D02*
X138218571Y-146404819D01*
X138218571Y-146404819D02*
X138028095Y-146404819D01*
X138028095Y-146404819D02*
X137932857Y-146357200D01*
X137932857Y-146357200D02*
X137885238Y-146309580D01*
X137885238Y-146309580D02*
X137837619Y-146214342D01*
X137837619Y-146214342D02*
X137837619Y-145928628D01*
X137837619Y-145928628D02*
X137885238Y-145833390D01*
X137885238Y-145833390D02*
X137932857Y-145785771D01*
X137932857Y-145785771D02*
X138028095Y-145738152D01*
X138028095Y-145738152D02*
X138218571Y-145738152D01*
X138218571Y-145738152D02*
X138313809Y-145785771D01*
X138551905Y-146500057D02*
X139313809Y-146500057D01*
X139551905Y-145881009D02*
X139885238Y-145881009D01*
X140028095Y-146404819D02*
X139551905Y-146404819D01*
X139551905Y-146404819D02*
X139551905Y-145404819D01*
X139551905Y-145404819D02*
X140028095Y-145404819D01*
X140361429Y-145738152D02*
X140599524Y-146404819D01*
X140599524Y-146404819D02*
X140837619Y-145738152D01*
X141599524Y-146357200D02*
X141504286Y-146404819D01*
X141504286Y-146404819D02*
X141313810Y-146404819D01*
X141313810Y-146404819D02*
X141218572Y-146357200D01*
X141218572Y-146357200D02*
X141170953Y-146261961D01*
X141170953Y-146261961D02*
X141170953Y-145881009D01*
X141170953Y-145881009D02*
X141218572Y-145785771D01*
X141218572Y-145785771D02*
X141313810Y-145738152D01*
X141313810Y-145738152D02*
X141504286Y-145738152D01*
X141504286Y-145738152D02*
X141599524Y-145785771D01*
X141599524Y-145785771D02*
X141647143Y-145881009D01*
X141647143Y-145881009D02*
X141647143Y-145976247D01*
X141647143Y-145976247D02*
X141170953Y-146071485D01*
X142075715Y-145738152D02*
X142075715Y-146404819D01*
X142075715Y-145833390D02*
X142123334Y-145785771D01*
X142123334Y-145785771D02*
X142218572Y-145738152D01*
X142218572Y-145738152D02*
X142361429Y-145738152D01*
X142361429Y-145738152D02*
X142456667Y-145785771D01*
X142456667Y-145785771D02*
X142504286Y-145881009D01*
X142504286Y-145881009D02*
X142504286Y-146404819D01*
X133744819Y-121923333D02*
X134459104Y-121923333D01*
X134459104Y-121923333D02*
X134601961Y-121970952D01*
X134601961Y-121970952D02*
X134697200Y-122066190D01*
X134697200Y-122066190D02*
X134744819Y-122209047D01*
X134744819Y-122209047D02*
X134744819Y-122304285D01*
X134078152Y-121018571D02*
X134744819Y-121018571D01*
X133697200Y-121256666D02*
X134411485Y-121494761D01*
X134411485Y-121494761D02*
X134411485Y-120875714D01*
X103476191Y-56454819D02*
X103476191Y-55454819D01*
X103952381Y-56454819D02*
X103952381Y-55454819D01*
X103952381Y-55454819D02*
X104523809Y-56454819D01*
X104523809Y-56454819D02*
X104523809Y-55454819D01*
X103666666Y-49454819D02*
X103666666Y-50169104D01*
X103666666Y-50169104D02*
X103619047Y-50311961D01*
X103619047Y-50311961D02*
X103523809Y-50407200D01*
X103523809Y-50407200D02*
X103380952Y-50454819D01*
X103380952Y-50454819D02*
X103285714Y-50454819D01*
X104666666Y-50454819D02*
X104095238Y-50454819D01*
X104380952Y-50454819D02*
X104380952Y-49454819D01*
X104380952Y-49454819D02*
X104285714Y-49597676D01*
X104285714Y-49597676D02*
X104190476Y-49692914D01*
X104190476Y-49692914D02*
X104095238Y-49740533D01*
X85659047Y-88404819D02*
X85182857Y-88404819D01*
X85182857Y-88404819D02*
X85182857Y-87404819D01*
X85992381Y-88404819D02*
X85992381Y-87404819D01*
X85992381Y-87404819D02*
X86325714Y-88119104D01*
X86325714Y-88119104D02*
X86659047Y-87404819D01*
X86659047Y-87404819D02*
X86659047Y-88404819D01*
X87040000Y-87404819D02*
X87706666Y-87404819D01*
X87706666Y-87404819D02*
X87278095Y-88404819D01*
X88230476Y-87833390D02*
X88135238Y-87785771D01*
X88135238Y-87785771D02*
X88087619Y-87738152D01*
X88087619Y-87738152D02*
X88040000Y-87642914D01*
X88040000Y-87642914D02*
X88040000Y-87595295D01*
X88040000Y-87595295D02*
X88087619Y-87500057D01*
X88087619Y-87500057D02*
X88135238Y-87452438D01*
X88135238Y-87452438D02*
X88230476Y-87404819D01*
X88230476Y-87404819D02*
X88420952Y-87404819D01*
X88420952Y-87404819D02*
X88516190Y-87452438D01*
X88516190Y-87452438D02*
X88563809Y-87500057D01*
X88563809Y-87500057D02*
X88611428Y-87595295D01*
X88611428Y-87595295D02*
X88611428Y-87642914D01*
X88611428Y-87642914D02*
X88563809Y-87738152D01*
X88563809Y-87738152D02*
X88516190Y-87785771D01*
X88516190Y-87785771D02*
X88420952Y-87833390D01*
X88420952Y-87833390D02*
X88230476Y-87833390D01*
X88230476Y-87833390D02*
X88135238Y-87881009D01*
X88135238Y-87881009D02*
X88087619Y-87928628D01*
X88087619Y-87928628D02*
X88040000Y-88023866D01*
X88040000Y-88023866D02*
X88040000Y-88214342D01*
X88040000Y-88214342D02*
X88087619Y-88309580D01*
X88087619Y-88309580D02*
X88135238Y-88357200D01*
X88135238Y-88357200D02*
X88230476Y-88404819D01*
X88230476Y-88404819D02*
X88420952Y-88404819D01*
X88420952Y-88404819D02*
X88516190Y-88357200D01*
X88516190Y-88357200D02*
X88563809Y-88309580D01*
X88563809Y-88309580D02*
X88611428Y-88214342D01*
X88611428Y-88214342D02*
X88611428Y-88023866D01*
X88611428Y-88023866D02*
X88563809Y-87928628D01*
X88563809Y-87928628D02*
X88516190Y-87881009D01*
X88516190Y-87881009D02*
X88420952Y-87833390D01*
X89230476Y-87404819D02*
X89325714Y-87404819D01*
X89325714Y-87404819D02*
X89420952Y-87452438D01*
X89420952Y-87452438D02*
X89468571Y-87500057D01*
X89468571Y-87500057D02*
X89516190Y-87595295D01*
X89516190Y-87595295D02*
X89563809Y-87785771D01*
X89563809Y-87785771D02*
X89563809Y-88023866D01*
X89563809Y-88023866D02*
X89516190Y-88214342D01*
X89516190Y-88214342D02*
X89468571Y-88309580D01*
X89468571Y-88309580D02*
X89420952Y-88357200D01*
X89420952Y-88357200D02*
X89325714Y-88404819D01*
X89325714Y-88404819D02*
X89230476Y-88404819D01*
X89230476Y-88404819D02*
X89135238Y-88357200D01*
X89135238Y-88357200D02*
X89087619Y-88309580D01*
X89087619Y-88309580D02*
X89040000Y-88214342D01*
X89040000Y-88214342D02*
X88992381Y-88023866D01*
X88992381Y-88023866D02*
X88992381Y-87785771D01*
X88992381Y-87785771D02*
X89040000Y-87595295D01*
X89040000Y-87595295D02*
X89087619Y-87500057D01*
X89087619Y-87500057D02*
X89135238Y-87452438D01*
X89135238Y-87452438D02*
X89230476Y-87404819D01*
X90468571Y-87404819D02*
X89992381Y-87404819D01*
X89992381Y-87404819D02*
X89944762Y-87881009D01*
X89944762Y-87881009D02*
X89992381Y-87833390D01*
X89992381Y-87833390D02*
X90087619Y-87785771D01*
X90087619Y-87785771D02*
X90325714Y-87785771D01*
X90325714Y-87785771D02*
X90420952Y-87833390D01*
X90420952Y-87833390D02*
X90468571Y-87881009D01*
X90468571Y-87881009D02*
X90516190Y-87976247D01*
X90516190Y-87976247D02*
X90516190Y-88214342D01*
X90516190Y-88214342D02*
X90468571Y-88309580D01*
X90468571Y-88309580D02*
X90420952Y-88357200D01*
X90420952Y-88357200D02*
X90325714Y-88404819D01*
X90325714Y-88404819D02*
X90087619Y-88404819D01*
X90087619Y-88404819D02*
X89992381Y-88357200D01*
X89992381Y-88357200D02*
X89944762Y-88309580D01*
X90706667Y-88500057D02*
X91468571Y-88500057D01*
X91563810Y-87404819D02*
X92135238Y-87404819D01*
X91849524Y-88404819D02*
X91849524Y-87404819D01*
X92659048Y-87404819D02*
X92849524Y-87404819D01*
X92849524Y-87404819D02*
X92944762Y-87452438D01*
X92944762Y-87452438D02*
X93040000Y-87547676D01*
X93040000Y-87547676D02*
X93087619Y-87738152D01*
X93087619Y-87738152D02*
X93087619Y-88071485D01*
X93087619Y-88071485D02*
X93040000Y-88261961D01*
X93040000Y-88261961D02*
X92944762Y-88357200D01*
X92944762Y-88357200D02*
X92849524Y-88404819D01*
X92849524Y-88404819D02*
X92659048Y-88404819D01*
X92659048Y-88404819D02*
X92563810Y-88357200D01*
X92563810Y-88357200D02*
X92468572Y-88261961D01*
X92468572Y-88261961D02*
X92420953Y-88071485D01*
X92420953Y-88071485D02*
X92420953Y-87738152D01*
X92420953Y-87738152D02*
X92468572Y-87547676D01*
X92468572Y-87547676D02*
X92563810Y-87452438D01*
X92563810Y-87452438D02*
X92659048Y-87404819D01*
X93468572Y-87500057D02*
X93516191Y-87452438D01*
X93516191Y-87452438D02*
X93611429Y-87404819D01*
X93611429Y-87404819D02*
X93849524Y-87404819D01*
X93849524Y-87404819D02*
X93944762Y-87452438D01*
X93944762Y-87452438D02*
X93992381Y-87500057D01*
X93992381Y-87500057D02*
X94040000Y-87595295D01*
X94040000Y-87595295D02*
X94040000Y-87690533D01*
X94040000Y-87690533D02*
X93992381Y-87833390D01*
X93992381Y-87833390D02*
X93420953Y-88404819D01*
X93420953Y-88404819D02*
X94040000Y-88404819D01*
X94420953Y-87500057D02*
X94468572Y-87452438D01*
X94468572Y-87452438D02*
X94563810Y-87404819D01*
X94563810Y-87404819D02*
X94801905Y-87404819D01*
X94801905Y-87404819D02*
X94897143Y-87452438D01*
X94897143Y-87452438D02*
X94944762Y-87500057D01*
X94944762Y-87500057D02*
X94992381Y-87595295D01*
X94992381Y-87595295D02*
X94992381Y-87690533D01*
X94992381Y-87690533D02*
X94944762Y-87833390D01*
X94944762Y-87833390D02*
X94373334Y-88404819D01*
X94373334Y-88404819D02*
X94992381Y-88404819D01*
X95611429Y-87404819D02*
X95706667Y-87404819D01*
X95706667Y-87404819D02*
X95801905Y-87452438D01*
X95801905Y-87452438D02*
X95849524Y-87500057D01*
X95849524Y-87500057D02*
X95897143Y-87595295D01*
X95897143Y-87595295D02*
X95944762Y-87785771D01*
X95944762Y-87785771D02*
X95944762Y-88023866D01*
X95944762Y-88023866D02*
X95897143Y-88214342D01*
X95897143Y-88214342D02*
X95849524Y-88309580D01*
X95849524Y-88309580D02*
X95801905Y-88357200D01*
X95801905Y-88357200D02*
X95706667Y-88404819D01*
X95706667Y-88404819D02*
X95611429Y-88404819D01*
X95611429Y-88404819D02*
X95516191Y-88357200D01*
X95516191Y-88357200D02*
X95468572Y-88309580D01*
X95468572Y-88309580D02*
X95420953Y-88214342D01*
X95420953Y-88214342D02*
X95373334Y-88023866D01*
X95373334Y-88023866D02*
X95373334Y-87785771D01*
X95373334Y-87785771D02*
X95420953Y-87595295D01*
X95420953Y-87595295D02*
X95468572Y-87500057D01*
X95468572Y-87500057D02*
X95516191Y-87452438D01*
X95516191Y-87452438D02*
X95611429Y-87404819D01*
X89778095Y-76224819D02*
X89778095Y-77034342D01*
X89778095Y-77034342D02*
X89825714Y-77129580D01*
X89825714Y-77129580D02*
X89873333Y-77177200D01*
X89873333Y-77177200D02*
X89968571Y-77224819D01*
X89968571Y-77224819D02*
X90159047Y-77224819D01*
X90159047Y-77224819D02*
X90254285Y-77177200D01*
X90254285Y-77177200D02*
X90301904Y-77129580D01*
X90301904Y-77129580D02*
X90349523Y-77034342D01*
X90349523Y-77034342D02*
X90349523Y-76224819D01*
X90730476Y-76224819D02*
X91349523Y-76224819D01*
X91349523Y-76224819D02*
X91016190Y-76605771D01*
X91016190Y-76605771D02*
X91159047Y-76605771D01*
X91159047Y-76605771D02*
X91254285Y-76653390D01*
X91254285Y-76653390D02*
X91301904Y-76701009D01*
X91301904Y-76701009D02*
X91349523Y-76796247D01*
X91349523Y-76796247D02*
X91349523Y-77034342D01*
X91349523Y-77034342D02*
X91301904Y-77129580D01*
X91301904Y-77129580D02*
X91254285Y-77177200D01*
X91254285Y-77177200D02*
X91159047Y-77224819D01*
X91159047Y-77224819D02*
X90873333Y-77224819D01*
X90873333Y-77224819D02*
X90778095Y-77177200D01*
X90778095Y-77177200D02*
X90730476Y-77129580D01*
X112340952Y-73124819D02*
X111864762Y-73124819D01*
X111864762Y-73124819D02*
X111817143Y-73601009D01*
X111817143Y-73601009D02*
X111864762Y-73553390D01*
X111864762Y-73553390D02*
X111960000Y-73505771D01*
X111960000Y-73505771D02*
X112198095Y-73505771D01*
X112198095Y-73505771D02*
X112293333Y-73553390D01*
X112293333Y-73553390D02*
X112340952Y-73601009D01*
X112340952Y-73601009D02*
X112388571Y-73696247D01*
X112388571Y-73696247D02*
X112388571Y-73934342D01*
X112388571Y-73934342D02*
X112340952Y-74029580D01*
X112340952Y-74029580D02*
X112293333Y-74077200D01*
X112293333Y-74077200D02*
X112198095Y-74124819D01*
X112198095Y-74124819D02*
X111960000Y-74124819D01*
X111960000Y-74124819D02*
X111864762Y-74077200D01*
X111864762Y-74077200D02*
X111817143Y-74029580D01*
X113007619Y-73124819D02*
X113102857Y-73124819D01*
X113102857Y-73124819D02*
X113198095Y-73172438D01*
X113198095Y-73172438D02*
X113245714Y-73220057D01*
X113245714Y-73220057D02*
X113293333Y-73315295D01*
X113293333Y-73315295D02*
X113340952Y-73505771D01*
X113340952Y-73505771D02*
X113340952Y-73743866D01*
X113340952Y-73743866D02*
X113293333Y-73934342D01*
X113293333Y-73934342D02*
X113245714Y-74029580D01*
X113245714Y-74029580D02*
X113198095Y-74077200D01*
X113198095Y-74077200D02*
X113102857Y-74124819D01*
X113102857Y-74124819D02*
X113007619Y-74124819D01*
X113007619Y-74124819D02*
X112912381Y-74077200D01*
X112912381Y-74077200D02*
X112864762Y-74029580D01*
X112864762Y-74029580D02*
X112817143Y-73934342D01*
X112817143Y-73934342D02*
X112769524Y-73743866D01*
X112769524Y-73743866D02*
X112769524Y-73505771D01*
X112769524Y-73505771D02*
X112817143Y-73315295D01*
X112817143Y-73315295D02*
X112864762Y-73220057D01*
X112864762Y-73220057D02*
X112912381Y-73172438D01*
X112912381Y-73172438D02*
X113007619Y-73124819D01*
X113960000Y-73124819D02*
X114055238Y-73124819D01*
X114055238Y-73124819D02*
X114150476Y-73172438D01*
X114150476Y-73172438D02*
X114198095Y-73220057D01*
X114198095Y-73220057D02*
X114245714Y-73315295D01*
X114245714Y-73315295D02*
X114293333Y-73505771D01*
X114293333Y-73505771D02*
X114293333Y-73743866D01*
X114293333Y-73743866D02*
X114245714Y-73934342D01*
X114245714Y-73934342D02*
X114198095Y-74029580D01*
X114198095Y-74029580D02*
X114150476Y-74077200D01*
X114150476Y-74077200D02*
X114055238Y-74124819D01*
X114055238Y-74124819D02*
X113960000Y-74124819D01*
X113960000Y-74124819D02*
X113864762Y-74077200D01*
X113864762Y-74077200D02*
X113817143Y-74029580D01*
X113817143Y-74029580D02*
X113769524Y-73934342D01*
X113769524Y-73934342D02*
X113721905Y-73743866D01*
X113721905Y-73743866D02*
X113721905Y-73505771D01*
X113721905Y-73505771D02*
X113769524Y-73315295D01*
X113769524Y-73315295D02*
X113817143Y-73220057D01*
X113817143Y-73220057D02*
X113864762Y-73172438D01*
X113864762Y-73172438D02*
X113960000Y-73124819D01*
X114721905Y-74124819D02*
X114721905Y-73124819D01*
X114817143Y-73743866D02*
X115102857Y-74124819D01*
X115102857Y-73458152D02*
X114721905Y-73839104D01*
X112229761Y-70459819D02*
X111896428Y-69983628D01*
X111658333Y-70459819D02*
X111658333Y-69459819D01*
X111658333Y-69459819D02*
X112039285Y-69459819D01*
X112039285Y-69459819D02*
X112134523Y-69507438D01*
X112134523Y-69507438D02*
X112182142Y-69555057D01*
X112182142Y-69555057D02*
X112229761Y-69650295D01*
X112229761Y-69650295D02*
X112229761Y-69793152D01*
X112229761Y-69793152D02*
X112182142Y-69888390D01*
X112182142Y-69888390D02*
X112134523Y-69936009D01*
X112134523Y-69936009D02*
X112039285Y-69983628D01*
X112039285Y-69983628D02*
X111658333Y-69983628D01*
X112515476Y-69459819D02*
X112848809Y-70459819D01*
X112848809Y-70459819D02*
X113182142Y-69459819D01*
X114039285Y-70459819D02*
X113467857Y-70459819D01*
X113753571Y-70459819D02*
X113753571Y-69459819D01*
X113753571Y-69459819D02*
X113658333Y-69602676D01*
X113658333Y-69602676D02*
X113563095Y-69697914D01*
X113563095Y-69697914D02*
X113467857Y-69745533D01*
X140309523Y-128614819D02*
X139833333Y-128614819D01*
X139833333Y-128614819D02*
X139833333Y-127614819D01*
X141214285Y-128519580D02*
X141166666Y-128567200D01*
X141166666Y-128567200D02*
X141023809Y-128614819D01*
X141023809Y-128614819D02*
X140928571Y-128614819D01*
X140928571Y-128614819D02*
X140785714Y-128567200D01*
X140785714Y-128567200D02*
X140690476Y-128471961D01*
X140690476Y-128471961D02*
X140642857Y-128376723D01*
X140642857Y-128376723D02*
X140595238Y-128186247D01*
X140595238Y-128186247D02*
X140595238Y-128043390D01*
X140595238Y-128043390D02*
X140642857Y-127852914D01*
X140642857Y-127852914D02*
X140690476Y-127757676D01*
X140690476Y-127757676D02*
X140785714Y-127662438D01*
X140785714Y-127662438D02*
X140928571Y-127614819D01*
X140928571Y-127614819D02*
X141023809Y-127614819D01*
X141023809Y-127614819D02*
X141166666Y-127662438D01*
X141166666Y-127662438D02*
X141214285Y-127710057D01*
X141642857Y-128614819D02*
X141642857Y-127614819D01*
X141642857Y-127614819D02*
X141880952Y-127614819D01*
X141880952Y-127614819D02*
X142023809Y-127662438D01*
X142023809Y-127662438D02*
X142119047Y-127757676D01*
X142119047Y-127757676D02*
X142166666Y-127852914D01*
X142166666Y-127852914D02*
X142214285Y-128043390D01*
X142214285Y-128043390D02*
X142214285Y-128186247D01*
X142214285Y-128186247D02*
X142166666Y-128376723D01*
X142166666Y-128376723D02*
X142119047Y-128471961D01*
X142119047Y-128471961D02*
X142023809Y-128567200D01*
X142023809Y-128567200D02*
X141880952Y-128614819D01*
X141880952Y-128614819D02*
X141642857Y-128614819D01*
X140454819Y-117223333D02*
X141169104Y-117223333D01*
X141169104Y-117223333D02*
X141311961Y-117270952D01*
X141311961Y-117270952D02*
X141407200Y-117366190D01*
X141407200Y-117366190D02*
X141454819Y-117509047D01*
X141454819Y-117509047D02*
X141454819Y-117604285D01*
X140454819Y-116842380D02*
X140454819Y-116223333D01*
X140454819Y-116223333D02*
X140835771Y-116556666D01*
X140835771Y-116556666D02*
X140835771Y-116413809D01*
X140835771Y-116413809D02*
X140883390Y-116318571D01*
X140883390Y-116318571D02*
X140931009Y-116270952D01*
X140931009Y-116270952D02*
X141026247Y-116223333D01*
X141026247Y-116223333D02*
X141264342Y-116223333D01*
X141264342Y-116223333D02*
X141359580Y-116270952D01*
X141359580Y-116270952D02*
X141407200Y-116318571D01*
X141407200Y-116318571D02*
X141454819Y-116413809D01*
X141454819Y-116413809D02*
X141454819Y-116699523D01*
X141454819Y-116699523D02*
X141407200Y-116794761D01*
X141407200Y-116794761D02*
X141359580Y-116842380D01*
X135119523Y-49824819D02*
X134929047Y-49824819D01*
X134929047Y-49824819D02*
X134833809Y-49872438D01*
X134833809Y-49872438D02*
X134786190Y-49920057D01*
X134786190Y-49920057D02*
X134690952Y-50062914D01*
X134690952Y-50062914D02*
X134643333Y-50253390D01*
X134643333Y-50253390D02*
X134643333Y-50634342D01*
X134643333Y-50634342D02*
X134690952Y-50729580D01*
X134690952Y-50729580D02*
X134738571Y-50777200D01*
X134738571Y-50777200D02*
X134833809Y-50824819D01*
X134833809Y-50824819D02*
X135024285Y-50824819D01*
X135024285Y-50824819D02*
X135119523Y-50777200D01*
X135119523Y-50777200D02*
X135167142Y-50729580D01*
X135167142Y-50729580D02*
X135214761Y-50634342D01*
X135214761Y-50634342D02*
X135214761Y-50396247D01*
X135214761Y-50396247D02*
X135167142Y-50301009D01*
X135167142Y-50301009D02*
X135119523Y-50253390D01*
X135119523Y-50253390D02*
X135024285Y-50205771D01*
X135024285Y-50205771D02*
X134833809Y-50205771D01*
X134833809Y-50205771D02*
X134738571Y-50253390D01*
X134738571Y-50253390D02*
X134690952Y-50301009D01*
X134690952Y-50301009D02*
X134643333Y-50396247D01*
X135786190Y-50253390D02*
X135690952Y-50205771D01*
X135690952Y-50205771D02*
X135643333Y-50158152D01*
X135643333Y-50158152D02*
X135595714Y-50062914D01*
X135595714Y-50062914D02*
X135595714Y-50015295D01*
X135595714Y-50015295D02*
X135643333Y-49920057D01*
X135643333Y-49920057D02*
X135690952Y-49872438D01*
X135690952Y-49872438D02*
X135786190Y-49824819D01*
X135786190Y-49824819D02*
X135976666Y-49824819D01*
X135976666Y-49824819D02*
X136071904Y-49872438D01*
X136071904Y-49872438D02*
X136119523Y-49920057D01*
X136119523Y-49920057D02*
X136167142Y-50015295D01*
X136167142Y-50015295D02*
X136167142Y-50062914D01*
X136167142Y-50062914D02*
X136119523Y-50158152D01*
X136119523Y-50158152D02*
X136071904Y-50205771D01*
X136071904Y-50205771D02*
X135976666Y-50253390D01*
X135976666Y-50253390D02*
X135786190Y-50253390D01*
X135786190Y-50253390D02*
X135690952Y-50301009D01*
X135690952Y-50301009D02*
X135643333Y-50348628D01*
X135643333Y-50348628D02*
X135595714Y-50443866D01*
X135595714Y-50443866D02*
X135595714Y-50634342D01*
X135595714Y-50634342D02*
X135643333Y-50729580D01*
X135643333Y-50729580D02*
X135690952Y-50777200D01*
X135690952Y-50777200D02*
X135786190Y-50824819D01*
X135786190Y-50824819D02*
X135976666Y-50824819D01*
X135976666Y-50824819D02*
X136071904Y-50777200D01*
X136071904Y-50777200D02*
X136119523Y-50729580D01*
X136119523Y-50729580D02*
X136167142Y-50634342D01*
X136167142Y-50634342D02*
X136167142Y-50443866D01*
X136167142Y-50443866D02*
X136119523Y-50348628D01*
X136119523Y-50348628D02*
X136071904Y-50301009D01*
X136071904Y-50301009D02*
X135976666Y-50253390D01*
X136595714Y-50824819D02*
X136595714Y-49824819D01*
X136690952Y-50443866D02*
X136976666Y-50824819D01*
X136976666Y-50158152D02*
X136595714Y-50539104D01*
X135643333Y-48454819D02*
X135310000Y-47978628D01*
X135071905Y-48454819D02*
X135071905Y-47454819D01*
X135071905Y-47454819D02*
X135452857Y-47454819D01*
X135452857Y-47454819D02*
X135548095Y-47502438D01*
X135548095Y-47502438D02*
X135595714Y-47550057D01*
X135595714Y-47550057D02*
X135643333Y-47645295D01*
X135643333Y-47645295D02*
X135643333Y-47788152D01*
X135643333Y-47788152D02*
X135595714Y-47883390D01*
X135595714Y-47883390D02*
X135548095Y-47931009D01*
X135548095Y-47931009D02*
X135452857Y-47978628D01*
X135452857Y-47978628D02*
X135071905Y-47978628D01*
X136024286Y-47550057D02*
X136071905Y-47502438D01*
X136071905Y-47502438D02*
X136167143Y-47454819D01*
X136167143Y-47454819D02*
X136405238Y-47454819D01*
X136405238Y-47454819D02*
X136500476Y-47502438D01*
X136500476Y-47502438D02*
X136548095Y-47550057D01*
X136548095Y-47550057D02*
X136595714Y-47645295D01*
X136595714Y-47645295D02*
X136595714Y-47740533D01*
X136595714Y-47740533D02*
X136548095Y-47883390D01*
X136548095Y-47883390D02*
X135976667Y-48454819D01*
X135976667Y-48454819D02*
X136595714Y-48454819D01*
X118047618Y-64954819D02*
X117476190Y-64954819D01*
X117761904Y-64954819D02*
X117761904Y-63954819D01*
X117761904Y-63954819D02*
X117666666Y-64097676D01*
X117666666Y-64097676D02*
X117571428Y-64192914D01*
X117571428Y-64192914D02*
X117476190Y-64240533D01*
X118904761Y-64288152D02*
X118904761Y-64954819D01*
X118476190Y-64288152D02*
X118476190Y-64811961D01*
X118476190Y-64811961D02*
X118523809Y-64907200D01*
X118523809Y-64907200D02*
X118619047Y-64954819D01*
X118619047Y-64954819D02*
X118761904Y-64954819D01*
X118761904Y-64954819D02*
X118857142Y-64907200D01*
X118857142Y-64907200D02*
X118904761Y-64859580D01*
X119238095Y-64288152D02*
X119619047Y-64288152D01*
X119380952Y-64954819D02*
X119380952Y-64097676D01*
X119380952Y-64097676D02*
X119428571Y-64002438D01*
X119428571Y-64002438D02*
X119523809Y-63954819D01*
X119523809Y-63954819D02*
X119619047Y-63954819D01*
X118333333Y-62359580D02*
X118285714Y-62407200D01*
X118285714Y-62407200D02*
X118142857Y-62454819D01*
X118142857Y-62454819D02*
X118047619Y-62454819D01*
X118047619Y-62454819D02*
X117904762Y-62407200D01*
X117904762Y-62407200D02*
X117809524Y-62311961D01*
X117809524Y-62311961D02*
X117761905Y-62216723D01*
X117761905Y-62216723D02*
X117714286Y-62026247D01*
X117714286Y-62026247D02*
X117714286Y-61883390D01*
X117714286Y-61883390D02*
X117761905Y-61692914D01*
X117761905Y-61692914D02*
X117809524Y-61597676D01*
X117809524Y-61597676D02*
X117904762Y-61502438D01*
X117904762Y-61502438D02*
X118047619Y-61454819D01*
X118047619Y-61454819D02*
X118142857Y-61454819D01*
X118142857Y-61454819D02*
X118285714Y-61502438D01*
X118285714Y-61502438D02*
X118333333Y-61550057D01*
X118666667Y-61454819D02*
X119285714Y-61454819D01*
X119285714Y-61454819D02*
X118952381Y-61835771D01*
X118952381Y-61835771D02*
X119095238Y-61835771D01*
X119095238Y-61835771D02*
X119190476Y-61883390D01*
X119190476Y-61883390D02*
X119238095Y-61931009D01*
X119238095Y-61931009D02*
X119285714Y-62026247D01*
X119285714Y-62026247D02*
X119285714Y-62264342D01*
X119285714Y-62264342D02*
X119238095Y-62359580D01*
X119238095Y-62359580D02*
X119190476Y-62407200D01*
X119190476Y-62407200D02*
X119095238Y-62454819D01*
X119095238Y-62454819D02*
X118809524Y-62454819D01*
X118809524Y-62454819D02*
X118714286Y-62407200D01*
X118714286Y-62407200D02*
X118666667Y-62359580D01*
X125833333Y-58331009D02*
X125976190Y-58378628D01*
X125976190Y-58378628D02*
X126023809Y-58426247D01*
X126023809Y-58426247D02*
X126071428Y-58521485D01*
X126071428Y-58521485D02*
X126071428Y-58664342D01*
X126071428Y-58664342D02*
X126023809Y-58759580D01*
X126023809Y-58759580D02*
X125976190Y-58807200D01*
X125976190Y-58807200D02*
X125880952Y-58854819D01*
X125880952Y-58854819D02*
X125500000Y-58854819D01*
X125500000Y-58854819D02*
X125500000Y-57854819D01*
X125500000Y-57854819D02*
X125833333Y-57854819D01*
X125833333Y-57854819D02*
X125928571Y-57902438D01*
X125928571Y-57902438D02*
X125976190Y-57950057D01*
X125976190Y-57950057D02*
X126023809Y-58045295D01*
X126023809Y-58045295D02*
X126023809Y-58140533D01*
X126023809Y-58140533D02*
X125976190Y-58235771D01*
X125976190Y-58235771D02*
X125928571Y-58283390D01*
X125928571Y-58283390D02*
X125833333Y-58331009D01*
X125833333Y-58331009D02*
X125500000Y-58331009D01*
X126452381Y-58569104D02*
X126928571Y-58569104D01*
X126357143Y-58854819D02*
X126690476Y-57854819D01*
X126690476Y-57854819D02*
X127023809Y-58854819D01*
X127214286Y-57854819D02*
X127785714Y-57854819D01*
X127500000Y-58854819D02*
X127500000Y-57854819D01*
X128595238Y-57854819D02*
X128119048Y-57854819D01*
X128119048Y-57854819D02*
X128071429Y-58331009D01*
X128071429Y-58331009D02*
X128119048Y-58283390D01*
X128119048Y-58283390D02*
X128214286Y-58235771D01*
X128214286Y-58235771D02*
X128452381Y-58235771D01*
X128452381Y-58235771D02*
X128547619Y-58283390D01*
X128547619Y-58283390D02*
X128595238Y-58331009D01*
X128595238Y-58331009D02*
X128642857Y-58426247D01*
X128642857Y-58426247D02*
X128642857Y-58664342D01*
X128642857Y-58664342D02*
X128595238Y-58759580D01*
X128595238Y-58759580D02*
X128547619Y-58807200D01*
X128547619Y-58807200D02*
X128452381Y-58854819D01*
X128452381Y-58854819D02*
X128214286Y-58854819D01*
X128214286Y-58854819D02*
X128119048Y-58807200D01*
X128119048Y-58807200D02*
X128071429Y-58759580D01*
X129500000Y-58188152D02*
X129500000Y-58854819D01*
X129261905Y-57807200D02*
X129023810Y-58521485D01*
X129023810Y-58521485D02*
X129642857Y-58521485D01*
X129976191Y-58807200D02*
X130119048Y-58854819D01*
X130119048Y-58854819D02*
X130357143Y-58854819D01*
X130357143Y-58854819D02*
X130452381Y-58807200D01*
X130452381Y-58807200D02*
X130500000Y-58759580D01*
X130500000Y-58759580D02*
X130547619Y-58664342D01*
X130547619Y-58664342D02*
X130547619Y-58569104D01*
X130547619Y-58569104D02*
X130500000Y-58473866D01*
X130500000Y-58473866D02*
X130452381Y-58426247D01*
X130452381Y-58426247D02*
X130357143Y-58378628D01*
X130357143Y-58378628D02*
X130166667Y-58331009D01*
X130166667Y-58331009D02*
X130071429Y-58283390D01*
X130071429Y-58283390D02*
X130023810Y-58235771D01*
X130023810Y-58235771D02*
X129976191Y-58140533D01*
X129976191Y-58140533D02*
X129976191Y-58045295D01*
X129976191Y-58045295D02*
X130023810Y-57950057D01*
X130023810Y-57950057D02*
X130071429Y-57902438D01*
X130071429Y-57902438D02*
X130166667Y-57854819D01*
X130166667Y-57854819D02*
X130404762Y-57854819D01*
X130404762Y-57854819D02*
X130547619Y-57902438D01*
D11*
X128327365Y-56531428D02*
X127607365Y-56531428D01*
X127607365Y-56531428D02*
X127607365Y-56359999D01*
X127607365Y-56359999D02*
X127641651Y-56257142D01*
X127641651Y-56257142D02*
X127710222Y-56188571D01*
X127710222Y-56188571D02*
X127778794Y-56154285D01*
X127778794Y-56154285D02*
X127915937Y-56119999D01*
X127915937Y-56119999D02*
X128018794Y-56119999D01*
X128018794Y-56119999D02*
X128155937Y-56154285D01*
X128155937Y-56154285D02*
X128224508Y-56188571D01*
X128224508Y-56188571D02*
X128293080Y-56257142D01*
X128293080Y-56257142D02*
X128327365Y-56359999D01*
X128327365Y-56359999D02*
X128327365Y-56531428D01*
X128327365Y-55434285D02*
X128327365Y-55845714D01*
X128327365Y-55639999D02*
X127607365Y-55639999D01*
X127607365Y-55639999D02*
X127710222Y-55708571D01*
X127710222Y-55708571D02*
X127778794Y-55777142D01*
X127778794Y-55777142D02*
X127813080Y-55845714D01*
D10*
X135119523Y-45824819D02*
X134929047Y-45824819D01*
X134929047Y-45824819D02*
X134833809Y-45872438D01*
X134833809Y-45872438D02*
X134786190Y-45920057D01*
X134786190Y-45920057D02*
X134690952Y-46062914D01*
X134690952Y-46062914D02*
X134643333Y-46253390D01*
X134643333Y-46253390D02*
X134643333Y-46634342D01*
X134643333Y-46634342D02*
X134690952Y-46729580D01*
X134690952Y-46729580D02*
X134738571Y-46777200D01*
X134738571Y-46777200D02*
X134833809Y-46824819D01*
X134833809Y-46824819D02*
X135024285Y-46824819D01*
X135024285Y-46824819D02*
X135119523Y-46777200D01*
X135119523Y-46777200D02*
X135167142Y-46729580D01*
X135167142Y-46729580D02*
X135214761Y-46634342D01*
X135214761Y-46634342D02*
X135214761Y-46396247D01*
X135214761Y-46396247D02*
X135167142Y-46301009D01*
X135167142Y-46301009D02*
X135119523Y-46253390D01*
X135119523Y-46253390D02*
X135024285Y-46205771D01*
X135024285Y-46205771D02*
X134833809Y-46205771D01*
X134833809Y-46205771D02*
X134738571Y-46253390D01*
X134738571Y-46253390D02*
X134690952Y-46301009D01*
X134690952Y-46301009D02*
X134643333Y-46396247D01*
X135786190Y-46253390D02*
X135690952Y-46205771D01*
X135690952Y-46205771D02*
X135643333Y-46158152D01*
X135643333Y-46158152D02*
X135595714Y-46062914D01*
X135595714Y-46062914D02*
X135595714Y-46015295D01*
X135595714Y-46015295D02*
X135643333Y-45920057D01*
X135643333Y-45920057D02*
X135690952Y-45872438D01*
X135690952Y-45872438D02*
X135786190Y-45824819D01*
X135786190Y-45824819D02*
X135976666Y-45824819D01*
X135976666Y-45824819D02*
X136071904Y-45872438D01*
X136071904Y-45872438D02*
X136119523Y-45920057D01*
X136119523Y-45920057D02*
X136167142Y-46015295D01*
X136167142Y-46015295D02*
X136167142Y-46062914D01*
X136167142Y-46062914D02*
X136119523Y-46158152D01*
X136119523Y-46158152D02*
X136071904Y-46205771D01*
X136071904Y-46205771D02*
X135976666Y-46253390D01*
X135976666Y-46253390D02*
X135786190Y-46253390D01*
X135786190Y-46253390D02*
X135690952Y-46301009D01*
X135690952Y-46301009D02*
X135643333Y-46348628D01*
X135643333Y-46348628D02*
X135595714Y-46443866D01*
X135595714Y-46443866D02*
X135595714Y-46634342D01*
X135595714Y-46634342D02*
X135643333Y-46729580D01*
X135643333Y-46729580D02*
X135690952Y-46777200D01*
X135690952Y-46777200D02*
X135786190Y-46824819D01*
X135786190Y-46824819D02*
X135976666Y-46824819D01*
X135976666Y-46824819D02*
X136071904Y-46777200D01*
X136071904Y-46777200D02*
X136119523Y-46729580D01*
X136119523Y-46729580D02*
X136167142Y-46634342D01*
X136167142Y-46634342D02*
X136167142Y-46443866D01*
X136167142Y-46443866D02*
X136119523Y-46348628D01*
X136119523Y-46348628D02*
X136071904Y-46301009D01*
X136071904Y-46301009D02*
X135976666Y-46253390D01*
X136595714Y-46824819D02*
X136595714Y-45824819D01*
X136690952Y-46443866D02*
X136976666Y-46824819D01*
X136976666Y-46158152D02*
X136595714Y-46539104D01*
X135643333Y-44454819D02*
X135310000Y-43978628D01*
X135071905Y-44454819D02*
X135071905Y-43454819D01*
X135071905Y-43454819D02*
X135452857Y-43454819D01*
X135452857Y-43454819D02*
X135548095Y-43502438D01*
X135548095Y-43502438D02*
X135595714Y-43550057D01*
X135595714Y-43550057D02*
X135643333Y-43645295D01*
X135643333Y-43645295D02*
X135643333Y-43788152D01*
X135643333Y-43788152D02*
X135595714Y-43883390D01*
X135595714Y-43883390D02*
X135548095Y-43931009D01*
X135548095Y-43931009D02*
X135452857Y-43978628D01*
X135452857Y-43978628D02*
X135071905Y-43978628D01*
X136595714Y-44454819D02*
X136024286Y-44454819D01*
X136310000Y-44454819D02*
X136310000Y-43454819D01*
X136310000Y-43454819D02*
X136214762Y-43597676D01*
X136214762Y-43597676D02*
X136119524Y-43692914D01*
X136119524Y-43692914D02*
X136024286Y-43740533D01*
X150846190Y-148431009D02*
X150989047Y-148478628D01*
X150989047Y-148478628D02*
X151036666Y-148526247D01*
X151036666Y-148526247D02*
X151084285Y-148621485D01*
X151084285Y-148621485D02*
X151084285Y-148764342D01*
X151084285Y-148764342D02*
X151036666Y-148859580D01*
X151036666Y-148859580D02*
X150989047Y-148907200D01*
X150989047Y-148907200D02*
X150893809Y-148954819D01*
X150893809Y-148954819D02*
X150512857Y-148954819D01*
X150512857Y-148954819D02*
X150512857Y-147954819D01*
X150512857Y-147954819D02*
X150846190Y-147954819D01*
X150846190Y-147954819D02*
X150941428Y-148002438D01*
X150941428Y-148002438D02*
X150989047Y-148050057D01*
X150989047Y-148050057D02*
X151036666Y-148145295D01*
X151036666Y-148145295D02*
X151036666Y-148240533D01*
X151036666Y-148240533D02*
X150989047Y-148335771D01*
X150989047Y-148335771D02*
X150941428Y-148383390D01*
X150941428Y-148383390D02*
X150846190Y-148431009D01*
X150846190Y-148431009D02*
X150512857Y-148431009D01*
X151370000Y-148288152D02*
X151750952Y-148288152D01*
X151512857Y-147954819D02*
X151512857Y-148811961D01*
X151512857Y-148811961D02*
X151560476Y-148907200D01*
X151560476Y-148907200D02*
X151655714Y-148954819D01*
X151655714Y-148954819D02*
X151750952Y-148954819D01*
X152084286Y-148288152D02*
X152084286Y-148954819D01*
X152084286Y-148383390D02*
X152131905Y-148335771D01*
X152131905Y-148335771D02*
X152227143Y-148288152D01*
X152227143Y-148288152D02*
X152370000Y-148288152D01*
X152370000Y-148288152D02*
X152465238Y-148335771D01*
X152465238Y-148335771D02*
X152512857Y-148431009D01*
X152512857Y-148431009D02*
X152512857Y-148954819D01*
X153655715Y-147954819D02*
X154274762Y-147954819D01*
X154274762Y-147954819D02*
X153941429Y-148335771D01*
X153941429Y-148335771D02*
X154084286Y-148335771D01*
X154084286Y-148335771D02*
X154179524Y-148383390D01*
X154179524Y-148383390D02*
X154227143Y-148431009D01*
X154227143Y-148431009D02*
X154274762Y-148526247D01*
X154274762Y-148526247D02*
X154274762Y-148764342D01*
X154274762Y-148764342D02*
X154227143Y-148859580D01*
X154227143Y-148859580D02*
X154179524Y-148907200D01*
X154179524Y-148907200D02*
X154084286Y-148954819D01*
X154084286Y-148954819D02*
X153798572Y-148954819D01*
X153798572Y-148954819D02*
X153703334Y-148907200D01*
X153703334Y-148907200D02*
X153655715Y-148859580D01*
X150916667Y-140907200D02*
X151059524Y-140954819D01*
X151059524Y-140954819D02*
X151297619Y-140954819D01*
X151297619Y-140954819D02*
X151392857Y-140907200D01*
X151392857Y-140907200D02*
X151440476Y-140859580D01*
X151440476Y-140859580D02*
X151488095Y-140764342D01*
X151488095Y-140764342D02*
X151488095Y-140669104D01*
X151488095Y-140669104D02*
X151440476Y-140573866D01*
X151440476Y-140573866D02*
X151392857Y-140526247D01*
X151392857Y-140526247D02*
X151297619Y-140478628D01*
X151297619Y-140478628D02*
X151107143Y-140431009D01*
X151107143Y-140431009D02*
X151011905Y-140383390D01*
X151011905Y-140383390D02*
X150964286Y-140335771D01*
X150964286Y-140335771D02*
X150916667Y-140240533D01*
X150916667Y-140240533D02*
X150916667Y-140145295D01*
X150916667Y-140145295D02*
X150964286Y-140050057D01*
X150964286Y-140050057D02*
X151011905Y-140002438D01*
X151011905Y-140002438D02*
X151107143Y-139954819D01*
X151107143Y-139954819D02*
X151345238Y-139954819D01*
X151345238Y-139954819D02*
X151488095Y-140002438D01*
X151821429Y-139954819D02*
X152059524Y-140954819D01*
X152059524Y-140954819D02*
X152250000Y-140240533D01*
X152250000Y-140240533D02*
X152440476Y-140954819D01*
X152440476Y-140954819D02*
X152678572Y-139954819D01*
X152964286Y-139954819D02*
X153583333Y-139954819D01*
X153583333Y-139954819D02*
X153250000Y-140335771D01*
X153250000Y-140335771D02*
X153392857Y-140335771D01*
X153392857Y-140335771D02*
X153488095Y-140383390D01*
X153488095Y-140383390D02*
X153535714Y-140431009D01*
X153535714Y-140431009D02*
X153583333Y-140526247D01*
X153583333Y-140526247D02*
X153583333Y-140764342D01*
X153583333Y-140764342D02*
X153535714Y-140859580D01*
X153535714Y-140859580D02*
X153488095Y-140907200D01*
X153488095Y-140907200D02*
X153392857Y-140954819D01*
X153392857Y-140954819D02*
X153107143Y-140954819D01*
X153107143Y-140954819D02*
X153011905Y-140907200D01*
X153011905Y-140907200D02*
X152964286Y-140859580D01*
X150846190Y-132431009D02*
X150989047Y-132478628D01*
X150989047Y-132478628D02*
X151036666Y-132526247D01*
X151036666Y-132526247D02*
X151084285Y-132621485D01*
X151084285Y-132621485D02*
X151084285Y-132764342D01*
X151084285Y-132764342D02*
X151036666Y-132859580D01*
X151036666Y-132859580D02*
X150989047Y-132907200D01*
X150989047Y-132907200D02*
X150893809Y-132954819D01*
X150893809Y-132954819D02*
X150512857Y-132954819D01*
X150512857Y-132954819D02*
X150512857Y-131954819D01*
X150512857Y-131954819D02*
X150846190Y-131954819D01*
X150846190Y-131954819D02*
X150941428Y-132002438D01*
X150941428Y-132002438D02*
X150989047Y-132050057D01*
X150989047Y-132050057D02*
X151036666Y-132145295D01*
X151036666Y-132145295D02*
X151036666Y-132240533D01*
X151036666Y-132240533D02*
X150989047Y-132335771D01*
X150989047Y-132335771D02*
X150941428Y-132383390D01*
X150941428Y-132383390D02*
X150846190Y-132431009D01*
X150846190Y-132431009D02*
X150512857Y-132431009D01*
X151370000Y-132288152D02*
X151750952Y-132288152D01*
X151512857Y-131954819D02*
X151512857Y-132811961D01*
X151512857Y-132811961D02*
X151560476Y-132907200D01*
X151560476Y-132907200D02*
X151655714Y-132954819D01*
X151655714Y-132954819D02*
X151750952Y-132954819D01*
X152084286Y-132288152D02*
X152084286Y-132954819D01*
X152084286Y-132383390D02*
X152131905Y-132335771D01*
X152131905Y-132335771D02*
X152227143Y-132288152D01*
X152227143Y-132288152D02*
X152370000Y-132288152D01*
X152370000Y-132288152D02*
X152465238Y-132335771D01*
X152465238Y-132335771D02*
X152512857Y-132431009D01*
X152512857Y-132431009D02*
X152512857Y-132954819D01*
X153703334Y-132050057D02*
X153750953Y-132002438D01*
X153750953Y-132002438D02*
X153846191Y-131954819D01*
X153846191Y-131954819D02*
X154084286Y-131954819D01*
X154084286Y-131954819D02*
X154179524Y-132002438D01*
X154179524Y-132002438D02*
X154227143Y-132050057D01*
X154227143Y-132050057D02*
X154274762Y-132145295D01*
X154274762Y-132145295D02*
X154274762Y-132240533D01*
X154274762Y-132240533D02*
X154227143Y-132383390D01*
X154227143Y-132383390D02*
X153655715Y-132954819D01*
X153655715Y-132954819D02*
X154274762Y-132954819D01*
X150916667Y-124907200D02*
X151059524Y-124954819D01*
X151059524Y-124954819D02*
X151297619Y-124954819D01*
X151297619Y-124954819D02*
X151392857Y-124907200D01*
X151392857Y-124907200D02*
X151440476Y-124859580D01*
X151440476Y-124859580D02*
X151488095Y-124764342D01*
X151488095Y-124764342D02*
X151488095Y-124669104D01*
X151488095Y-124669104D02*
X151440476Y-124573866D01*
X151440476Y-124573866D02*
X151392857Y-124526247D01*
X151392857Y-124526247D02*
X151297619Y-124478628D01*
X151297619Y-124478628D02*
X151107143Y-124431009D01*
X151107143Y-124431009D02*
X151011905Y-124383390D01*
X151011905Y-124383390D02*
X150964286Y-124335771D01*
X150964286Y-124335771D02*
X150916667Y-124240533D01*
X150916667Y-124240533D02*
X150916667Y-124145295D01*
X150916667Y-124145295D02*
X150964286Y-124050057D01*
X150964286Y-124050057D02*
X151011905Y-124002438D01*
X151011905Y-124002438D02*
X151107143Y-123954819D01*
X151107143Y-123954819D02*
X151345238Y-123954819D01*
X151345238Y-123954819D02*
X151488095Y-124002438D01*
X151821429Y-123954819D02*
X152059524Y-124954819D01*
X152059524Y-124954819D02*
X152250000Y-124240533D01*
X152250000Y-124240533D02*
X152440476Y-124954819D01*
X152440476Y-124954819D02*
X152678572Y-123954819D01*
X153011905Y-124050057D02*
X153059524Y-124002438D01*
X153059524Y-124002438D02*
X153154762Y-123954819D01*
X153154762Y-123954819D02*
X153392857Y-123954819D01*
X153392857Y-123954819D02*
X153488095Y-124002438D01*
X153488095Y-124002438D02*
X153535714Y-124050057D01*
X153535714Y-124050057D02*
X153583333Y-124145295D01*
X153583333Y-124145295D02*
X153583333Y-124240533D01*
X153583333Y-124240533D02*
X153535714Y-124383390D01*
X153535714Y-124383390D02*
X152964286Y-124954819D01*
X152964286Y-124954819D02*
X153583333Y-124954819D01*
X119524285Y-48824819D02*
X118952857Y-48824819D01*
X119238571Y-48824819D02*
X119238571Y-47824819D01*
X119238571Y-47824819D02*
X119143333Y-47967676D01*
X119143333Y-47967676D02*
X119048095Y-48062914D01*
X119048095Y-48062914D02*
X118952857Y-48110533D01*
X119952857Y-48824819D02*
X119952857Y-47824819D01*
X119952857Y-47824819D02*
X120286190Y-48539104D01*
X120286190Y-48539104D02*
X120619523Y-47824819D01*
X120619523Y-47824819D02*
X120619523Y-48824819D01*
X119643333Y-46454819D02*
X119310000Y-45978628D01*
X119071905Y-46454819D02*
X119071905Y-45454819D01*
X119071905Y-45454819D02*
X119452857Y-45454819D01*
X119452857Y-45454819D02*
X119548095Y-45502438D01*
X119548095Y-45502438D02*
X119595714Y-45550057D01*
X119595714Y-45550057D02*
X119643333Y-45645295D01*
X119643333Y-45645295D02*
X119643333Y-45788152D01*
X119643333Y-45788152D02*
X119595714Y-45883390D01*
X119595714Y-45883390D02*
X119548095Y-45931009D01*
X119548095Y-45931009D02*
X119452857Y-45978628D01*
X119452857Y-45978628D02*
X119071905Y-45978628D01*
X119976667Y-45454819D02*
X120595714Y-45454819D01*
X120595714Y-45454819D02*
X120262381Y-45835771D01*
X120262381Y-45835771D02*
X120405238Y-45835771D01*
X120405238Y-45835771D02*
X120500476Y-45883390D01*
X120500476Y-45883390D02*
X120548095Y-45931009D01*
X120548095Y-45931009D02*
X120595714Y-46026247D01*
X120595714Y-46026247D02*
X120595714Y-46264342D01*
X120595714Y-46264342D02*
X120548095Y-46359580D01*
X120548095Y-46359580D02*
X120500476Y-46407200D01*
X120500476Y-46407200D02*
X120405238Y-46454819D01*
X120405238Y-46454819D02*
X120119524Y-46454819D01*
X120119524Y-46454819D02*
X120024286Y-46407200D01*
X120024286Y-46407200D02*
X119976667Y-46359580D01*
X87547618Y-60204819D02*
X86976190Y-60204819D01*
X87261904Y-60204819D02*
X87261904Y-59204819D01*
X87261904Y-59204819D02*
X87166666Y-59347676D01*
X87166666Y-59347676D02*
X87071428Y-59442914D01*
X87071428Y-59442914D02*
X86976190Y-59490533D01*
X88166666Y-59204819D02*
X88261904Y-59204819D01*
X88261904Y-59204819D02*
X88357142Y-59252438D01*
X88357142Y-59252438D02*
X88404761Y-59300057D01*
X88404761Y-59300057D02*
X88452380Y-59395295D01*
X88452380Y-59395295D02*
X88499999Y-59585771D01*
X88499999Y-59585771D02*
X88499999Y-59823866D01*
X88499999Y-59823866D02*
X88452380Y-60014342D01*
X88452380Y-60014342D02*
X88404761Y-60109580D01*
X88404761Y-60109580D02*
X88357142Y-60157200D01*
X88357142Y-60157200D02*
X88261904Y-60204819D01*
X88261904Y-60204819D02*
X88166666Y-60204819D01*
X88166666Y-60204819D02*
X88071428Y-60157200D01*
X88071428Y-60157200D02*
X88023809Y-60109580D01*
X88023809Y-60109580D02*
X87976190Y-60014342D01*
X87976190Y-60014342D02*
X87928571Y-59823866D01*
X87928571Y-59823866D02*
X87928571Y-59585771D01*
X87928571Y-59585771D02*
X87976190Y-59395295D01*
X87976190Y-59395295D02*
X88023809Y-59300057D01*
X88023809Y-59300057D02*
X88071428Y-59252438D01*
X88071428Y-59252438D02*
X88166666Y-59204819D01*
X90119047Y-59538152D02*
X90119047Y-60204819D01*
X89690476Y-59538152D02*
X89690476Y-60061961D01*
X89690476Y-60061961D02*
X89738095Y-60157200D01*
X89738095Y-60157200D02*
X89833333Y-60204819D01*
X89833333Y-60204819D02*
X89976190Y-60204819D01*
X89976190Y-60204819D02*
X90071428Y-60157200D01*
X90071428Y-60157200D02*
X90119047Y-60109580D01*
X90928571Y-59681009D02*
X90595238Y-59681009D01*
X90595238Y-60204819D02*
X90595238Y-59204819D01*
X90595238Y-59204819D02*
X91071428Y-59204819D01*
X88833333Y-56359580D02*
X88785714Y-56407200D01*
X88785714Y-56407200D02*
X88642857Y-56454819D01*
X88642857Y-56454819D02*
X88547619Y-56454819D01*
X88547619Y-56454819D02*
X88404762Y-56407200D01*
X88404762Y-56407200D02*
X88309524Y-56311961D01*
X88309524Y-56311961D02*
X88261905Y-56216723D01*
X88261905Y-56216723D02*
X88214286Y-56026247D01*
X88214286Y-56026247D02*
X88214286Y-55883390D01*
X88214286Y-55883390D02*
X88261905Y-55692914D01*
X88261905Y-55692914D02*
X88309524Y-55597676D01*
X88309524Y-55597676D02*
X88404762Y-55502438D01*
X88404762Y-55502438D02*
X88547619Y-55454819D01*
X88547619Y-55454819D02*
X88642857Y-55454819D01*
X88642857Y-55454819D02*
X88785714Y-55502438D01*
X88785714Y-55502438D02*
X88833333Y-55550057D01*
X89785714Y-56454819D02*
X89214286Y-56454819D01*
X89500000Y-56454819D02*
X89500000Y-55454819D01*
X89500000Y-55454819D02*
X89404762Y-55597676D01*
X89404762Y-55597676D02*
X89309524Y-55692914D01*
X89309524Y-55692914D02*
X89214286Y-55740533D01*
%TO.C,R4*%
D12*
X116000000Y-54000000D02*
X116660000Y-54000000D01*
X123620000Y-54000000D02*
X122960000Y-54000000D01*
X116660000Y-52750000D02*
X122960000Y-52750000D01*
X122960000Y-55250000D01*
X116660000Y-55250000D01*
X116660000Y-52750000D01*
%TO.C,C2*%
X102866395Y-88912500D02*
X103366395Y-88912500D01*
X103116395Y-88662500D02*
X103116395Y-89162500D01*
X107500000Y-90000000D02*
G75*
G02*
X102500000Y-90000000I-2500000J0D01*
G01*
X102500000Y-90000000D02*
G75*
G02*
X107500000Y-90000000I2500000J0D01*
G01*
%TO.C,R5*%
X126000000Y-80000000D02*
X126660000Y-80000000D01*
X133620000Y-80000000D02*
X132960000Y-80000000D01*
X126660000Y-78750000D02*
X132960000Y-78750000D01*
X132960000Y-81250000D01*
X126660000Y-81250000D01*
X126660000Y-78750000D01*
%TO.C,C4*%
X141000000Y-64750000D02*
X146000000Y-64750000D01*
X146000000Y-67250000D01*
X141000000Y-67250000D01*
X141000000Y-64750000D01*
%TO.C,SW1*%
X78250000Y-100500000D02*
X90250000Y-100500000D01*
X90250000Y-112500000D01*
X78250000Y-112500000D01*
X78250000Y-100500000D01*
%TO.C,U1*%
X128635000Y-65730000D02*
X129635000Y-64730000D01*
X128635000Y-74890000D02*
X128635000Y-65730000D01*
X129635000Y-64730000D02*
X134985000Y-64730000D01*
X134985000Y-64730000D02*
X134985000Y-74890000D01*
X134985000Y-74890000D02*
X128635000Y-74890000D01*
%TO.C,J5*%
X86730000Y-43365000D02*
X87365000Y-42730000D01*
X86730000Y-47810000D02*
X86730000Y-43365000D01*
X87365000Y-42730000D02*
X89270000Y-42730000D01*
X89270000Y-42730000D02*
X89270000Y-47810000D01*
X89270000Y-47810000D02*
X86730000Y-47810000D01*
%TO.C,J2*%
X96190000Y-98730000D02*
X100270000Y-98730000D01*
X96190000Y-139370000D02*
X96190000Y-98730000D01*
X100270000Y-98730000D02*
X101270000Y-99730000D01*
X101270000Y-99730000D02*
X101270000Y-139370000D01*
X101270000Y-139370000D02*
X96190000Y-139370000D01*
%TO.C,SW4*%
X101700000Y-63850000D02*
X103500000Y-63850000D01*
X101700000Y-68150000D02*
X101700000Y-63850000D01*
X103500000Y-63850000D02*
X104000000Y-64350000D01*
X104000000Y-64350000D02*
X104500000Y-63850000D01*
X104000000Y-65000000D02*
X104000000Y-67000000D01*
X104000000Y-65000000D02*
X108000000Y-65000000D01*
X104000000Y-67000000D02*
X108000000Y-67000000D01*
X104500000Y-63850000D02*
X110300000Y-63850000D01*
X104660000Y-65000000D02*
X104660000Y-67000000D01*
X105340000Y-65000000D02*
X105340000Y-67000000D01*
X106000000Y-65000000D02*
X106000000Y-67000000D01*
X108000000Y-65000000D02*
X108000000Y-67000000D01*
X110300000Y-63850000D02*
X110300000Y-68150000D01*
X110300000Y-68150000D02*
X101700000Y-68150000D01*
%TO.C,J4*%
X131750000Y-98730000D02*
X135830000Y-98730000D01*
X131750000Y-144450000D02*
X131750000Y-98730000D01*
X135830000Y-98730000D02*
X136830000Y-99730000D01*
X136830000Y-99730000D02*
X136830000Y-144450000D01*
X136830000Y-144450000D02*
X131750000Y-144450000D01*
%TO.C,J1*%
X96650000Y-37300000D02*
X96650000Y-52200000D01*
X96650000Y-52200000D02*
X111350000Y-52200000D01*
X97650000Y-28600000D02*
X97650000Y-37300000D01*
X99000000Y-30000000D02*
X109000000Y-29000000D01*
X99000000Y-31000000D02*
X109000000Y-30000000D01*
X99000000Y-32000000D02*
X109000000Y-31000000D01*
X99000000Y-33000000D02*
X109000000Y-32000000D01*
X99000000Y-34000000D02*
X109000000Y-33000000D01*
X99000000Y-35000000D02*
X109000000Y-34000000D01*
X99000000Y-36000000D02*
X109000000Y-35000000D01*
X99200000Y-16700000D02*
X99200000Y-28600000D01*
X108800000Y-16700000D02*
X99200000Y-16700000D01*
X108800000Y-28600000D02*
X108800000Y-16700000D01*
X110350000Y-28600000D02*
X97650000Y-28600000D01*
X110350000Y-37300000D02*
X110350000Y-28600000D01*
X111350000Y-37300000D02*
X96650000Y-37300000D01*
X111350000Y-52200000D02*
X111350000Y-37300000D01*
X105000000Y-21930000D02*
G75*
G02*
X103000000Y-21930000I-1000000J0D01*
G01*
X103000000Y-21930000D02*
G75*
G02*
X105000000Y-21930000I1000000J0D01*
G01*
%TO.C,U3*%
X85540000Y-66540000D02*
X95540000Y-66540000D01*
X95540000Y-72940000D01*
X85540000Y-72940000D01*
X85540000Y-66540000D01*
X85540000Y-72940000D02*
X95540000Y-72940000D01*
X95540000Y-82190000D01*
X85540000Y-82190000D01*
X85540000Y-72940000D01*
X87625000Y-82190000D02*
X88375000Y-82190000D01*
X88375000Y-86000000D01*
X87625000Y-86000000D01*
X87625000Y-82190000D01*
X90165000Y-82190000D02*
X90915000Y-82190000D01*
X90915000Y-86000000D01*
X90165000Y-86000000D01*
X90165000Y-82190000D01*
X92705000Y-82190000D02*
X93455000Y-82190000D01*
X93455000Y-86000000D01*
X92705000Y-86000000D01*
X92705000Y-82190000D01*
X92390000Y-69340000D02*
G75*
G02*
X88690000Y-69340000I-1850000J0D01*
G01*
X88690000Y-69340000D02*
G75*
G02*
X92390000Y-69340000I1850000J0D01*
G01*
%TO.C,RV1*%
X117652000Y-70320000D02*
X116125000Y-71847000D01*
X117785000Y-70453000D02*
X116258000Y-71980000D01*
X108695000Y-67590000D02*
X118225000Y-67590000D01*
X118225000Y-72420000D01*
X108695000Y-72420000D01*
X108695000Y-67590000D01*
X118050000Y-71150000D02*
G75*
G02*
X115860000Y-71150000I-1095000J0D01*
G01*
X115860000Y-71150000D02*
G75*
G02*
X118050000Y-71150000I1095000J0D01*
G01*
%TO.C,J3*%
X139730000Y-107365000D02*
X140365000Y-106730000D01*
X139730000Y-127050000D02*
X139730000Y-107365000D01*
X140365000Y-106730000D02*
X142270000Y-106730000D01*
X142270000Y-106730000D02*
X142270000Y-127050000D01*
X142270000Y-127050000D02*
X139730000Y-127050000D01*
%TO.C,R2*%
X132000000Y-48000000D02*
X132660000Y-48000000D01*
X139620000Y-48000000D02*
X138960000Y-48000000D01*
X132660000Y-46750000D02*
X138960000Y-46750000D01*
X138960000Y-49250000D01*
X132660000Y-49250000D01*
X132660000Y-46750000D01*
%TO.C,C3*%
X116000000Y-60750000D02*
X121000000Y-60750000D01*
X121000000Y-63250000D01*
X116000000Y-63250000D01*
X116000000Y-60750000D01*
%TO.C,D1*%
X127675000Y-54550000D02*
X128650000Y-54550000D01*
X128650000Y-57450000D01*
X127350000Y-57450000D01*
X127350000Y-54875000D01*
X127675000Y-54550000D01*
%TO.C,R1*%
X132000000Y-44000000D02*
X132660000Y-44000000D01*
X139620000Y-44000000D02*
X138960000Y-44000000D01*
X132660000Y-42750000D02*
X138960000Y-42750000D01*
X138960000Y-45250000D01*
X132660000Y-45250000D01*
X132660000Y-42750000D01*
%TO.C,SW3*%
X146250000Y-134500000D02*
X158250000Y-134500000D01*
X158250000Y-146500000D01*
X146250000Y-146500000D01*
X146250000Y-134500000D01*
%TO.C,SW2*%
X146250000Y-118500000D02*
X158250000Y-118500000D01*
X158250000Y-130500000D01*
X146250000Y-130500000D01*
X146250000Y-118500000D01*
%TO.C,R3*%
X116000000Y-46000000D02*
X116660000Y-46000000D01*
X123620000Y-46000000D02*
X122960000Y-46000000D01*
X116660000Y-44750000D02*
X122960000Y-44750000D01*
X122960000Y-47250000D01*
X116660000Y-47250000D01*
X116660000Y-44750000D01*
%TO.C,C1*%
X86866395Y-54912500D02*
X87366395Y-54912500D01*
X87116395Y-54662500D02*
X87116395Y-55162500D01*
X91500000Y-56000000D02*
G75*
G02*
X86500000Y-56000000I-2500000J0D01*
G01*
X86500000Y-56000000D02*
G75*
G02*
X91500000Y-56000000I2500000J0D01*
G01*
%TD*%
M02*
